%TF.GenerationSoftware,KiCad,Pcbnew,(6.0.7-1)-1*%
%TF.CreationDate,2022-08-01T14:13:19+02:00*%
%TF.ProjectId,green60-test3,67726565-6e36-4302-9d74-657374332e6b,v1.0.0*%
%TF.SameCoordinates,Original*%
%TF.FileFunction,Soldermask,Bot*%
%TF.FilePolarity,Negative*%
%FSLAX46Y46*%
G04 Gerber Fmt 4.6, Leading zero omitted, Abs format (unit mm)*
G04 Created by KiCad (PCBNEW (6.0.7-1)-1) date 2022-08-01 14:13:19*
%MOMM*%
%LPD*%
G01*
G04 APERTURE LIST*
G04 Aperture macros list*
%AMRoundRect*
0 Rectangle with rounded corners*
0 $1 Rounding radius*
0 $2 $3 $4 $5 $6 $7 $8 $9 X,Y pos of 4 corners*
0 Add a 4 corners polygon primitive as box body*
4,1,4,$2,$3,$4,$5,$6,$7,$8,$9,$2,$3,0*
0 Add four circle primitives for the rounded corners*
1,1,$1+$1,$2,$3*
1,1,$1+$1,$4,$5*
1,1,$1+$1,$6,$7*
1,1,$1+$1,$8,$9*
0 Add four rect primitives between the rounded corners*
20,1,$1+$1,$2,$3,$4,$5,0*
20,1,$1+$1,$4,$5,$6,$7,0*
20,1,$1+$1,$6,$7,$8,$9,0*
20,1,$1+$1,$8,$9,$2,$3,0*%
G04 Aperture macros list end*
%ADD10C,1.801800*%
%ADD11C,3.100000*%
%ADD12C,3.529000*%
%ADD13RoundRect,0.050000X-0.891312X-1.607969X1.607969X-0.891312X0.891312X1.607969X-1.607969X0.891312X0*%
%ADD14RoundRect,0.050000X-0.267185X-0.700794X0.597950X-0.452720X0.267185X0.700794X-0.597950X0.452720X0*%
%ADD15RoundRect,0.050000X-1.300000X-1.300000X1.300000X-1.300000X1.300000X1.300000X-1.300000X1.300000X0*%
%ADD16RoundRect,0.050000X-0.450000X-0.600000X0.450000X-0.600000X0.450000X0.600000X-0.450000X0.600000X0*%
%ADD17RoundRect,0.050000X-1.607969X-0.891312X0.891312X-1.607969X1.607969X0.891312X-0.891312X1.607969X0*%
%ADD18RoundRect,0.050000X-0.597950X-0.452720X0.267185X-0.700794X0.597950X0.452720X-0.267185X0.700794X0*%
%ADD19RoundRect,0.050000X-1.524167X-1.028064X1.028064X-1.524167X1.524167X1.028064X-1.028064X1.524167X0*%
%ADD20RoundRect,0.050000X-0.556218X-0.503112X0.327247X-0.674840X0.556218X0.503112X-0.327247X0.674840X0*%
%ADD21RoundRect,0.050000X-1.028064X-1.524167X1.524167X-1.028064X1.028064X1.524167X-1.524167X1.028064X0*%
%ADD22RoundRect,0.050000X-0.327247X-0.674840X0.556218X-0.503112X0.327247X0.674840X-0.556218X0.503112X0*%
%ADD23RoundRect,0.050000X0.891312X-1.607969X1.607969X0.891312X-0.891312X1.607969X-1.607969X-0.891312X0*%
%ADD24RoundRect,0.050000X0.452720X-0.597950X0.700794X0.267185X-0.452720X0.597950X-0.700794X-0.267185X0*%
%ADD25RoundRect,0.050000X-0.876300X-0.876300X0.876300X-0.876300X0.876300X0.876300X-0.876300X0.876300X0*%
%ADD26C,1.852600*%
%ADD27RoundRect,0.050000X-1.607969X0.891312X-0.891312X-1.607969X1.607969X-0.891312X0.891312X1.607969X0*%
%ADD28RoundRect,0.050000X-0.700794X0.267185X-0.452720X-0.597950X0.700794X-0.267185X0.452720X0.597950X0*%
G04 APERTURE END LIST*
D10*
%TO.C,S28*%
X255494865Y-59562947D03*
D11*
X248567884Y-55359445D03*
X253980594Y-56096034D03*
D10*
X244920987Y-62594957D03*
D12*
X250207926Y-61078952D03*
D13*
X245419752Y-56262157D03*
X257128726Y-55193322D03*
D14*
X253264257Y-65751520D03*
X250092094Y-66661124D03*
%TD*%
D11*
%TO.C,S44*%
X188376324Y-92567484D03*
D12*
X188376324Y-98517484D03*
D10*
X182876324Y-98517484D03*
X193876324Y-98517484D03*
D11*
X193376324Y-94767484D03*
D15*
X185101324Y-92567484D03*
D16*
X190026324Y-103851484D03*
D15*
X196651324Y-94767484D03*
D16*
X186726324Y-103851484D03*
%TD*%
D11*
%TO.C,S35*%
X214238100Y-66243652D03*
X219650810Y-66980241D03*
D12*
X215878142Y-71963159D03*
D10*
X210591203Y-73479164D03*
X221165081Y-70447154D03*
D13*
X211089968Y-67146364D03*
D14*
X218934473Y-76635727D03*
D13*
X222798942Y-66077529D03*
D14*
X215762310Y-77545331D03*
%TD*%
D12*
%TO.C,S22*%
X127758921Y-98517484D03*
D10*
X133258921Y-98517484D03*
D11*
X127758921Y-92567484D03*
X132758921Y-94767484D03*
D10*
X122258921Y-98517484D03*
D15*
X124483921Y-92567484D03*
D16*
X129408921Y-103851484D03*
D15*
X136033921Y-94767484D03*
D16*
X126108921Y-103851484D03*
%TD*%
D12*
%TO.C,S10*%
X84608216Y-61234116D03*
D11*
X90448165Y-59007571D03*
D10*
X89895155Y-62750121D03*
X79321277Y-59718111D03*
D11*
X86248258Y-55514609D03*
D17*
X83100126Y-54611897D03*
X93596297Y-59910284D03*
D18*
X84724048Y-66816288D03*
X81551885Y-65906684D03*
%TD*%
D12*
%TO.C,S43*%
X212463897Y-92707867D03*
D10*
X207176958Y-94223872D03*
D11*
X216236565Y-87724949D03*
X210823855Y-86988360D03*
D10*
X217750836Y-91191862D03*
D13*
X207675723Y-87891072D03*
D14*
X215520228Y-97380435D03*
D13*
X219384697Y-86822237D03*
D14*
X212348065Y-98290039D03*
%TD*%
D10*
%TO.C,S33*%
X221554255Y-46408672D03*
X232128133Y-43376662D03*
D11*
X230613862Y-39909749D03*
D12*
X226841194Y-44892667D03*
D11*
X225201152Y-39173160D03*
D13*
X222053020Y-40075872D03*
X233761994Y-39007037D03*
D14*
X229897525Y-49565235D03*
X226725362Y-50474839D03*
%TD*%
D10*
%TO.C,S6*%
X60640380Y-59562947D03*
D11*
X67567361Y-55359445D03*
D10*
X71214258Y-62594957D03*
D12*
X65927319Y-61078952D03*
D11*
X71767268Y-58852407D03*
D17*
X64419229Y-54456733D03*
X74915400Y-59755120D03*
D18*
X66043151Y-66661124D03*
X62870988Y-65751520D03*
%TD*%
D10*
%TO.C,S30*%
X246123195Y-26880050D03*
D11*
X239196214Y-22676548D03*
X244608924Y-23413137D03*
D12*
X240836256Y-28396055D03*
D10*
X235549317Y-29912060D03*
D13*
X236048082Y-23579260D03*
X247757056Y-22510425D03*
D14*
X243892587Y-33068623D03*
X240720424Y-33978227D03*
%TD*%
D10*
%TO.C,S5*%
X46671152Y-33785068D03*
D11*
X53205416Y-28993835D03*
D10*
X57469052Y-35883966D03*
D11*
X57693772Y-32107460D03*
D12*
X52070102Y-34834517D03*
D19*
X49990586Y-28368936D03*
D20*
X52672012Y-40385351D03*
D19*
X60908601Y-32732359D03*
D20*
X49432642Y-39755682D03*
%TD*%
D12*
%TO.C,S14*%
X104942938Y-55621710D03*
D10*
X99655999Y-54105705D03*
D11*
X110782887Y-53395165D03*
D10*
X110229877Y-57137715D03*
D11*
X106582980Y-49902203D03*
D17*
X103434848Y-48999491D03*
D18*
X105058770Y-61203882D03*
D17*
X113931019Y-54297878D03*
D18*
X101886607Y-60294278D03*
%TD*%
D12*
%TO.C,S11*%
X89294051Y-44892667D03*
D10*
X84007112Y-43376662D03*
D11*
X95134000Y-42666122D03*
X90934093Y-39173160D03*
D10*
X94580990Y-46408672D03*
D17*
X87785961Y-38270448D03*
D18*
X89409883Y-50474839D03*
D17*
X98282132Y-43568835D03*
D18*
X86237720Y-49565235D03*
%TD*%
D11*
%TO.C,S42*%
X176748705Y-47969209D03*
X171335995Y-47232620D03*
D12*
X172976037Y-52952127D03*
D10*
X178262976Y-51436122D03*
X167689098Y-54468132D03*
D13*
X168187863Y-48135332D03*
D14*
X176032368Y-57624695D03*
D13*
X179896837Y-47066497D03*
D14*
X172860205Y-58534299D03*
%TD*%
D11*
%TO.C,S7*%
X72253196Y-39017996D03*
D12*
X70613154Y-44737503D03*
D11*
X76453103Y-42510958D03*
D10*
X75900093Y-46253508D03*
X65326215Y-43221498D03*
D17*
X69105064Y-38115284D03*
X79601235Y-43413671D03*
D18*
X70728986Y-50319675D03*
X67556823Y-49410071D03*
%TD*%
D11*
%TO.C,S25*%
X274745251Y-63574694D03*
D12*
X270552649Y-68209841D03*
D10*
X275951599Y-67160392D03*
X265153699Y-69259290D03*
D11*
X269417335Y-62369159D03*
D21*
X266202506Y-62994059D03*
D22*
X273190109Y-73131006D03*
D21*
X277960080Y-62949795D03*
D22*
X269950739Y-73760675D03*
%TD*%
D11*
%TO.C,S19*%
X134841078Y-68356061D03*
D10*
X138583628Y-68909071D03*
D12*
X137067623Y-74196010D03*
D11*
X131348116Y-72555968D03*
D10*
X135551618Y-79482949D03*
D23*
X130445404Y-75704100D03*
D24*
X142649795Y-74080178D03*
D23*
X135743791Y-65207929D03*
D24*
X141740191Y-77252341D03*
%TD*%
D10*
%TO.C,S15*%
X114915712Y-40796266D03*
D12*
X109628773Y-39280261D03*
D10*
X104341834Y-37764256D03*
D11*
X111268815Y-33560754D03*
X115468722Y-37053716D03*
D17*
X108120683Y-32658042D03*
X118616854Y-37956429D03*
D18*
X109744605Y-44862433D03*
X106572442Y-43952829D03*
%TD*%
D11*
%TO.C,S17*%
X123334415Y-56786199D03*
X127534322Y-60279161D03*
D10*
X116407434Y-60989701D03*
D12*
X121694373Y-62505706D03*
D10*
X126981312Y-64021711D03*
D17*
X120186283Y-55883487D03*
D18*
X121810205Y-68087878D03*
D17*
X130682454Y-61181874D03*
D18*
X118638042Y-67178274D03*
%TD*%
D10*
%TO.C,S16*%
X111721599Y-77331150D03*
D11*
X122848487Y-76620610D03*
X118648580Y-73127648D03*
D12*
X117008538Y-78847155D03*
D10*
X122295477Y-80363160D03*
D17*
X115500448Y-72224936D03*
X125996619Y-77523323D03*
D18*
X117124370Y-84429327D03*
X113952207Y-83519723D03*
%TD*%
D10*
%TO.C,S1*%
X34934133Y-57480897D03*
D11*
X30670497Y-50590766D03*
D10*
X24136233Y-55381999D03*
D11*
X35158853Y-53704391D03*
D12*
X29535183Y-56431448D03*
D19*
X27455667Y-49965867D03*
D20*
X30137093Y-61982282D03*
D19*
X38373682Y-54329290D03*
D20*
X26897723Y-61352613D03*
%TD*%
D11*
%TO.C,S39*%
X198213540Y-57522788D03*
D10*
X189153933Y-64021711D03*
D12*
X194440872Y-62505706D03*
D10*
X199727811Y-60989701D03*
D11*
X192800830Y-56786199D03*
D13*
X189652698Y-57688911D03*
X201361672Y-56620076D03*
D14*
X197497203Y-67178274D03*
X194325040Y-68087878D03*
%TD*%
D25*
%TO.C,MCU1*%
X148065183Y-34051448D03*
D26*
X150605183Y-34051448D03*
X153145183Y-34051448D03*
X155685183Y-34051448D03*
X158225183Y-34051448D03*
X160765183Y-34051448D03*
X163305183Y-34051448D03*
X165845183Y-34051448D03*
X168385183Y-34051448D03*
X170925183Y-34051448D03*
X173465183Y-34051448D03*
X176005183Y-34051448D03*
X148065183Y-18811448D03*
X150605183Y-18811448D03*
X153145183Y-18811448D03*
X155685183Y-18811448D03*
X158225183Y-18811448D03*
X160765183Y-18811448D03*
X163305183Y-18811448D03*
X165845183Y-18811448D03*
X168385183Y-18811448D03*
X170925183Y-18811448D03*
X173465183Y-18811448D03*
X176005183Y-18811448D03*
%TD*%
D10*
%TO.C,S24*%
X277957359Y-40793235D03*
X288755259Y-38694337D03*
D11*
X282220995Y-33903104D03*
D12*
X283356309Y-39743786D03*
D11*
X287548911Y-35108639D03*
D21*
X279006166Y-34528004D03*
D22*
X285993769Y-44664951D03*
D21*
X290763740Y-34483740D03*
D22*
X282754399Y-45294620D03*
%TD*%
D11*
%TO.C,S2*%
X33914250Y-33903104D03*
D10*
X38177886Y-40793235D03*
D12*
X32778936Y-39743786D03*
D11*
X38402606Y-37016729D03*
D10*
X27379986Y-38694337D03*
D19*
X30699420Y-33278205D03*
X41617435Y-37641628D03*
D20*
X33380846Y-45294620D03*
X30141476Y-44664951D03*
%TD*%
D12*
%TO.C,S29*%
X245522091Y-44737503D03*
D11*
X249294759Y-39754585D03*
X243882049Y-39017996D03*
D10*
X240235152Y-46253508D03*
X250809030Y-43221498D03*
D13*
X240733917Y-39920708D03*
D14*
X248578422Y-49410071D03*
D13*
X252442891Y-38851873D03*
D14*
X245406259Y-50319675D03*
%TD*%
D12*
%TO.C,S31*%
X236212864Y-77575565D03*
D10*
X230925925Y-79091570D03*
X241499803Y-76059560D03*
D11*
X239985532Y-72592647D03*
X234572822Y-71856058D03*
D13*
X231424690Y-72758770D03*
X243133664Y-71689935D03*
D14*
X239269195Y-82248133D03*
X236097032Y-83157737D03*
%TD*%
D10*
%TO.C,S18*%
X121093270Y-44648252D03*
D12*
X126380209Y-46164257D03*
D11*
X128020251Y-40444750D03*
X132220158Y-43937712D03*
D10*
X131667148Y-47680262D03*
D17*
X124872119Y-39542038D03*
X135368290Y-44840425D03*
D18*
X126496041Y-51746429D03*
X123323878Y-50836825D03*
%TD*%
D10*
%TO.C,S32*%
X226240090Y-62750121D03*
D11*
X235299697Y-56251198D03*
D12*
X231527029Y-61234116D03*
D10*
X236813968Y-59718111D03*
D11*
X229886987Y-55514609D03*
D13*
X226738855Y-56417321D03*
X238447829Y-55348486D03*
D14*
X234583360Y-65906684D03*
X231411197Y-66816288D03*
%TD*%
D11*
%TO.C,S4*%
X54450019Y-48795122D03*
D12*
X48826349Y-51522179D03*
D11*
X49961663Y-45681497D03*
D10*
X43427399Y-50472730D03*
X54225299Y-52571628D03*
D19*
X46746833Y-45056598D03*
D20*
X49428259Y-57073013D03*
D19*
X57664848Y-49420021D03*
D20*
X46188889Y-56443344D03*
%TD*%
D10*
%TO.C,S20*%
X137872269Y-51436122D03*
X148446147Y-54468132D03*
D11*
X148999157Y-50725582D03*
D12*
X143159208Y-52952127D03*
D11*
X144799250Y-47232620D03*
D17*
X141651118Y-46329908D03*
X152147289Y-51628295D03*
D18*
X143275040Y-58534299D03*
X140102877Y-57624695D03*
%TD*%
D10*
%TO.C,S21*%
X108958287Y-94223872D03*
D12*
X103671348Y-92707867D03*
D11*
X109511297Y-90481322D03*
X105311390Y-86988360D03*
D10*
X98384409Y-91191862D03*
D17*
X102163258Y-86085648D03*
D18*
X103787180Y-98290039D03*
D17*
X112659429Y-91384035D03*
D18*
X100615017Y-97380435D03*
%TD*%
D11*
%TO.C,S41*%
X184787130Y-72555968D03*
D10*
X177551618Y-68909071D03*
D11*
X184050541Y-77968678D03*
D10*
X180583628Y-79482949D03*
D12*
X179067623Y-74196010D03*
D27*
X183884418Y-69407836D03*
X184953253Y-81116810D03*
D28*
X174395055Y-77252341D03*
X173485451Y-74080178D03*
%TD*%
D11*
%TO.C,S40*%
X193527705Y-41181339D03*
D10*
X195041976Y-44648252D03*
D11*
X188114995Y-40444750D03*
D10*
X184468098Y-47680262D03*
D12*
X189755037Y-46164257D03*
D13*
X184966863Y-41347462D03*
D14*
X192811368Y-50836825D03*
D13*
X196675837Y-40278627D03*
D14*
X189639205Y-51746429D03*
%TD*%
D11*
%TO.C,S23*%
X290792664Y-51796301D03*
D10*
X281201112Y-57480897D03*
D11*
X285464748Y-50590766D03*
D12*
X286600062Y-56431448D03*
D10*
X291999012Y-55381999D03*
D21*
X282249919Y-51215666D03*
D22*
X289237522Y-61352613D03*
D21*
X294007493Y-51171402D03*
D22*
X285998152Y-61982282D03*
%TD*%
D12*
%TO.C,S38*%
X199126707Y-78847155D03*
D10*
X204413646Y-77331150D03*
D11*
X202899375Y-73864237D03*
X197486665Y-73127648D03*
D10*
X193839768Y-80363160D03*
D13*
X194338533Y-74030360D03*
D14*
X202183038Y-83519723D03*
D13*
X206047507Y-72961525D03*
D14*
X199010875Y-84429327D03*
%TD*%
D10*
%TO.C,S13*%
X94970164Y-70447154D03*
X105544042Y-73479164D03*
D11*
X101897145Y-66243652D03*
D12*
X100257103Y-71963159D03*
D11*
X106097052Y-69736614D03*
D17*
X98749013Y-65340940D03*
D18*
X100372935Y-77545331D03*
D17*
X109245184Y-70639327D03*
D18*
X97200772Y-76635727D03*
%TD*%
D10*
%TO.C,S26*%
X272707846Y-50472730D03*
D11*
X266173582Y-45681497D03*
D10*
X261909946Y-52571628D03*
D12*
X267308896Y-51522179D03*
D11*
X271501498Y-46887032D03*
D21*
X262958753Y-46306397D03*
X274716327Y-46262133D03*
D22*
X269946356Y-56443344D03*
X266706986Y-57073013D03*
%TD*%
D11*
%TO.C,S37*%
X210279140Y-34297343D03*
D10*
X201219533Y-40796266D03*
X211793411Y-37764256D03*
D12*
X206506472Y-39280261D03*
D11*
X204866430Y-33560754D03*
D13*
X201718298Y-34463466D03*
X213427272Y-33394631D03*
D14*
X209562803Y-43952829D03*
X206390640Y-44862433D03*
%TD*%
D11*
%TO.C,S27*%
X268257745Y-30199370D03*
X262929829Y-28993835D03*
D10*
X258666193Y-35883966D03*
D12*
X264065143Y-34834517D03*
D10*
X269464093Y-33785068D03*
D21*
X259715000Y-29618735D03*
X271472574Y-29574471D03*
D22*
X266702603Y-39755682D03*
X263463233Y-40385351D03*
%TD*%
D11*
%TO.C,S34*%
X225928027Y-23568301D03*
D10*
X227442298Y-27035214D03*
D12*
X222155359Y-28551219D03*
D11*
X220515317Y-22831712D03*
D10*
X216868420Y-30067224D03*
D13*
X217367185Y-23734424D03*
X229076159Y-22665589D03*
D14*
X225211690Y-33223787D03*
X222039527Y-34133391D03*
%TD*%
D10*
%TO.C,S9*%
X74635442Y-76059560D03*
D12*
X79922381Y-77575565D03*
D11*
X85762330Y-75349020D03*
D10*
X85209320Y-79091570D03*
D11*
X81562423Y-71856058D03*
D17*
X78414291Y-70953346D03*
X88910462Y-76251733D03*
D18*
X80038213Y-83157737D03*
X76866050Y-82248133D03*
%TD*%
D11*
%TO.C,S3*%
X46717910Y-62369159D03*
D10*
X40183646Y-67160392D03*
D11*
X51206266Y-65482784D03*
D12*
X45582596Y-68209841D03*
D10*
X50981546Y-69259290D03*
D19*
X43503080Y-61744260D03*
X54421095Y-66107683D03*
D20*
X46184506Y-73760675D03*
X42945136Y-73131006D03*
%TD*%
D11*
%TO.C,S36*%
X214964975Y-50638792D03*
D10*
X205905368Y-57137715D03*
X216479246Y-54105705D03*
D11*
X209552265Y-49902203D03*
D12*
X211192307Y-55621710D03*
D13*
X206404133Y-50804915D03*
D14*
X214248638Y-60294278D03*
D13*
X218113107Y-49736080D03*
D14*
X211076475Y-61203882D03*
%TD*%
D10*
%TO.C,S12*%
X99266825Y-30067224D03*
D11*
X99819835Y-26324674D03*
X95619928Y-22831712D03*
D10*
X88692947Y-27035214D03*
D12*
X93979886Y-28551219D03*
D17*
X92471796Y-21929000D03*
X102967967Y-27227387D03*
D18*
X94095718Y-34133391D03*
X90923555Y-33223787D03*
%TD*%
D11*
%TO.C,S8*%
X76939031Y-22676548D03*
D10*
X70012050Y-26880050D03*
D12*
X75298989Y-28396055D03*
D10*
X80585928Y-29912060D03*
D11*
X81138938Y-26169510D03*
D17*
X73790899Y-21773836D03*
X84287070Y-27072223D03*
D18*
X75414821Y-33978227D03*
X72242658Y-33068623D03*
%TD*%
M02*
