%TF.GenerationSoftware,KiCad,Pcbnew,(6.0.7-1)-1*%
%TF.CreationDate,2022-08-01T14:13:19+02:00*%
%TF.ProjectId,green60-test3,67726565-6e36-4302-9d74-657374332e6b,v1.0.0*%
%TF.SameCoordinates,Original*%
%TF.FileFunction,Legend,Top*%
%TF.FilePolarity,Positive*%
%FSLAX46Y46*%
G04 Gerber Fmt 4.6, Leading zero omitted, Abs format (unit mm)*
G04 Created by KiCad (PCBNEW (6.0.7-1)-1) date 2022-08-01 14:13:19*
%MOMM*%
%LPD*%
G01*
G04 APERTURE LIST*
%ADD10C,0.150000*%
%ADD11R,1.752600X1.752600*%
%ADD12C,1.752600*%
G04 APERTURE END LIST*
D10*
X179895183Y-22300733D02*
X179942802Y-22205495D01*
X179942802Y-22062638D01*
X179895183Y-21919781D01*
X179799944Y-21824543D01*
X179704706Y-21776924D01*
X179514230Y-21729305D01*
X179371373Y-21729305D01*
X179180897Y-21776924D01*
X179085659Y-21824543D01*
X178990421Y-21919781D01*
X178942802Y-22062638D01*
X178942802Y-22157876D01*
X178990421Y-22300733D01*
X179038040Y-22348352D01*
X179371373Y-22348352D01*
X179371373Y-22157876D01*
X178942802Y-22776924D02*
X179609468Y-22776924D01*
X179418992Y-22776924D02*
X179514230Y-22824543D01*
X179561849Y-22872162D01*
X179609468Y-22967400D01*
X179609468Y-23062638D01*
X178990421Y-23776924D02*
X178942802Y-23681686D01*
X178942802Y-23491209D01*
X178990421Y-23395971D01*
X179085659Y-23348352D01*
X179466611Y-23348352D01*
X179561849Y-23395971D01*
X179609468Y-23491209D01*
X179609468Y-23681686D01*
X179561849Y-23776924D01*
X179466611Y-23824543D01*
X179371373Y-23824543D01*
X179276135Y-23348352D01*
X178990421Y-24634067D02*
X178942802Y-24538828D01*
X178942802Y-24348352D01*
X178990421Y-24253114D01*
X179085659Y-24205495D01*
X179466611Y-24205495D01*
X179561849Y-24253114D01*
X179609468Y-24348352D01*
X179609468Y-24538828D01*
X179561849Y-24634067D01*
X179466611Y-24681686D01*
X179371373Y-24681686D01*
X179276135Y-24205495D01*
X179609468Y-25110257D02*
X178942802Y-25110257D01*
X179514230Y-25110257D02*
X179561849Y-25157876D01*
X179609468Y-25253114D01*
X179609468Y-25395971D01*
X179561849Y-25491209D01*
X179466611Y-25538828D01*
X178942802Y-25538828D01*
X179942802Y-26443590D02*
X179942802Y-26253114D01*
X179895183Y-26157876D01*
X179847563Y-26110257D01*
X179704706Y-26015019D01*
X179514230Y-25967400D01*
X179133278Y-25967400D01*
X179038040Y-26015019D01*
X178990421Y-26062638D01*
X178942802Y-26157876D01*
X178942802Y-26348352D01*
X178990421Y-26443590D01*
X179038040Y-26491209D01*
X179133278Y-26538828D01*
X179371373Y-26538828D01*
X179466611Y-26491209D01*
X179514230Y-26443590D01*
X179561849Y-26348352D01*
X179561849Y-26157876D01*
X179514230Y-26062638D01*
X179466611Y-26015019D01*
X179371373Y-25967400D01*
X179942802Y-27157876D02*
X179942802Y-27253114D01*
X179895183Y-27348352D01*
X179847563Y-27395971D01*
X179752325Y-27443590D01*
X179561849Y-27491209D01*
X179323754Y-27491209D01*
X179133278Y-27443590D01*
X179038040Y-27395971D01*
X178990421Y-27348352D01*
X178942802Y-27253114D01*
X178942802Y-27157876D01*
X178990421Y-27062638D01*
X179038040Y-27015019D01*
X179133278Y-26967400D01*
X179323754Y-26919781D01*
X179561849Y-26919781D01*
X179752325Y-26967400D01*
X179847563Y-27015019D01*
X179895183Y-27062638D01*
X179942802Y-27157876D01*
X178942802Y-28681686D02*
X179609468Y-28681686D01*
X179418992Y-28681686D02*
X179514230Y-28729305D01*
X179561849Y-28776924D01*
X179609468Y-28872162D01*
X179609468Y-28967400D01*
X178990421Y-29681686D02*
X178942802Y-29586448D01*
X178942802Y-29395971D01*
X178990421Y-29300733D01*
X179085659Y-29253114D01*
X179466611Y-29253114D01*
X179561849Y-29300733D01*
X179609468Y-29395971D01*
X179609468Y-29586448D01*
X179561849Y-29681686D01*
X179466611Y-29729305D01*
X179371373Y-29729305D01*
X179276135Y-29253114D01*
X179609468Y-30062638D02*
X178942802Y-30300733D01*
X179609468Y-30538828D01*
X179847563Y-30872162D02*
X179895183Y-30919781D01*
X179942802Y-31015019D01*
X179942802Y-31253114D01*
X179895183Y-31348352D01*
X179847563Y-31395971D01*
X179752325Y-31443590D01*
X179657087Y-31443590D01*
X179514230Y-31395971D01*
X178942802Y-30824543D01*
X178942802Y-31443590D01*
%TO.C,MCU1*%
X158587087Y-22602876D02*
X157787087Y-22602876D01*
X157787087Y-22298114D01*
X157825183Y-22221924D01*
X157863278Y-22183828D01*
X157939468Y-22145733D01*
X158053754Y-22145733D01*
X158129944Y-22183828D01*
X158168040Y-22221924D01*
X158206135Y-22298114D01*
X158206135Y-22602876D01*
X157787087Y-21650495D02*
X157787087Y-21574305D01*
X157825183Y-21498114D01*
X157863278Y-21460019D01*
X157939468Y-21421924D01*
X158091849Y-21383828D01*
X158282325Y-21383828D01*
X158434706Y-21421924D01*
X158510897Y-21460019D01*
X158548992Y-21498114D01*
X158587087Y-21574305D01*
X158587087Y-21650495D01*
X158548992Y-21726686D01*
X158510897Y-21764781D01*
X158434706Y-21802876D01*
X158282325Y-21840971D01*
X158091849Y-21840971D01*
X157939468Y-21802876D01*
X157863278Y-21764781D01*
X157825183Y-21726686D01*
X157787087Y-21650495D01*
X157863278Y-21079067D02*
X157825183Y-21040971D01*
X157787087Y-20964781D01*
X157787087Y-20774305D01*
X157825183Y-20698114D01*
X157863278Y-20660019D01*
X157939468Y-20621924D01*
X158015659Y-20621924D01*
X158129944Y-20660019D01*
X158587087Y-21117162D01*
X158587087Y-20621924D01*
X148427087Y-22602876D02*
X147627087Y-22602876D01*
X147627087Y-22298114D01*
X147665183Y-22221924D01*
X147703278Y-22183828D01*
X147779468Y-22145733D01*
X147893754Y-22145733D01*
X147969944Y-22183828D01*
X148008040Y-22221924D01*
X148046135Y-22298114D01*
X148046135Y-22602876D01*
X147627087Y-21650495D02*
X147627087Y-21574305D01*
X147665183Y-21498114D01*
X147703278Y-21460019D01*
X147779468Y-21421924D01*
X147931849Y-21383828D01*
X148122325Y-21383828D01*
X148274706Y-21421924D01*
X148350897Y-21460019D01*
X148388992Y-21498114D01*
X148427087Y-21574305D01*
X148427087Y-21650495D01*
X148388992Y-21726686D01*
X148350897Y-21764781D01*
X148274706Y-21802876D01*
X148122325Y-21840971D01*
X147931849Y-21840971D01*
X147779468Y-21802876D01*
X147703278Y-21764781D01*
X147665183Y-21726686D01*
X147627087Y-21650495D01*
X148427087Y-20621924D02*
X148427087Y-21079067D01*
X148427087Y-20850495D02*
X147627087Y-20850495D01*
X147741373Y-20926686D01*
X147817563Y-21002876D01*
X147855659Y-21079067D01*
X158587087Y-32202876D02*
X157787087Y-32202876D01*
X157787087Y-31898114D01*
X157825183Y-31821924D01*
X157863278Y-31783828D01*
X157939468Y-31745733D01*
X158053754Y-31745733D01*
X158129944Y-31783828D01*
X158168040Y-31821924D01*
X158206135Y-31898114D01*
X158206135Y-32202876D01*
X157863278Y-31440971D02*
X157825183Y-31402876D01*
X157787087Y-31326686D01*
X157787087Y-31136209D01*
X157825183Y-31060019D01*
X157863278Y-31021924D01*
X157939468Y-30983828D01*
X158015659Y-30983828D01*
X158129944Y-31021924D01*
X158587087Y-31479067D01*
X158587087Y-30983828D01*
X158587087Y-30221924D02*
X158587087Y-30679067D01*
X158587087Y-30450495D02*
X157787087Y-30450495D01*
X157901373Y-30526686D01*
X157977563Y-30602876D01*
X158015659Y-30679067D01*
X171287087Y-22602876D02*
X170487087Y-22602876D01*
X170487087Y-22298114D01*
X170525183Y-22221924D01*
X170563278Y-22183828D01*
X170639468Y-22145733D01*
X170753754Y-22145733D01*
X170829944Y-22183828D01*
X170868040Y-22221924D01*
X170906135Y-22298114D01*
X170906135Y-22602876D01*
X170487087Y-21650495D02*
X170487087Y-21574305D01*
X170525183Y-21498114D01*
X170563278Y-21460019D01*
X170639468Y-21421924D01*
X170791849Y-21383828D01*
X170982325Y-21383828D01*
X171134706Y-21421924D01*
X171210897Y-21460019D01*
X171248992Y-21498114D01*
X171287087Y-21574305D01*
X171287087Y-21650495D01*
X171248992Y-21726686D01*
X171210897Y-21764781D01*
X171134706Y-21802876D01*
X170982325Y-21840971D01*
X170791849Y-21840971D01*
X170639468Y-21802876D01*
X170563278Y-21764781D01*
X170525183Y-21726686D01*
X170487087Y-21650495D01*
X170487087Y-21117162D02*
X170487087Y-20583828D01*
X171287087Y-20926686D01*
X171287087Y-32202876D02*
X170487087Y-32202876D01*
X170487087Y-31898114D01*
X170525183Y-31821924D01*
X170563278Y-31783828D01*
X170639468Y-31745733D01*
X170753754Y-31745733D01*
X170829944Y-31783828D01*
X170868040Y-31821924D01*
X170906135Y-31898114D01*
X170906135Y-32202876D01*
X171287087Y-30983828D02*
X171287087Y-31440971D01*
X171287087Y-31212400D02*
X170487087Y-31212400D01*
X170601373Y-31288590D01*
X170677563Y-31364781D01*
X170715659Y-31440971D01*
X170753754Y-30298114D02*
X171287087Y-30298114D01*
X170448992Y-30488590D02*
X171020421Y-30679067D01*
X171020421Y-30183828D01*
X163667087Y-32202876D02*
X162867087Y-32202876D01*
X162867087Y-31898114D01*
X162905183Y-31821924D01*
X162943278Y-31783828D01*
X163019468Y-31745733D01*
X163133754Y-31745733D01*
X163209944Y-31783828D01*
X163248040Y-31821924D01*
X163286135Y-31898114D01*
X163286135Y-32202876D01*
X163667087Y-30983828D02*
X163667087Y-31440971D01*
X163667087Y-31212400D02*
X162867087Y-31212400D01*
X162981373Y-31288590D01*
X163057563Y-31364781D01*
X163095659Y-31440971D01*
X163667087Y-30602876D02*
X163667087Y-30450495D01*
X163628992Y-30374305D01*
X163590897Y-30336209D01*
X163476611Y-30260019D01*
X163324230Y-30221924D01*
X163019468Y-30221924D01*
X162943278Y-30260019D01*
X162905183Y-30298114D01*
X162867087Y-30374305D01*
X162867087Y-30526686D01*
X162905183Y-30602876D01*
X162943278Y-30640971D01*
X163019468Y-30679067D01*
X163209944Y-30679067D01*
X163286135Y-30640971D01*
X163324230Y-30602876D01*
X163362325Y-30526686D01*
X163362325Y-30374305D01*
X163324230Y-30298114D01*
X163286135Y-30260019D01*
X163209944Y-30221924D01*
X176367087Y-32202876D02*
X175567087Y-32202876D01*
X175567087Y-31898114D01*
X175605183Y-31821924D01*
X175643278Y-31783828D01*
X175719468Y-31745733D01*
X175833754Y-31745733D01*
X175909944Y-31783828D01*
X175948040Y-31821924D01*
X175986135Y-31898114D01*
X175986135Y-32202876D01*
X176367087Y-30983828D02*
X176367087Y-31440971D01*
X176367087Y-31212400D02*
X175567087Y-31212400D01*
X175681373Y-31288590D01*
X175757563Y-31364781D01*
X175795659Y-31440971D01*
X175567087Y-30488590D02*
X175567087Y-30412400D01*
X175605183Y-30336209D01*
X175643278Y-30298114D01*
X175719468Y-30260019D01*
X175871849Y-30221924D01*
X176062325Y-30221924D01*
X176214706Y-30260019D01*
X176290897Y-30298114D01*
X176328992Y-30336209D01*
X176367087Y-30412400D01*
X176367087Y-30488590D01*
X176328992Y-30564781D01*
X176290897Y-30602876D01*
X176214706Y-30640971D01*
X176062325Y-30679067D01*
X175871849Y-30679067D01*
X175719468Y-30640971D01*
X175643278Y-30602876D01*
X175605183Y-30564781D01*
X175567087Y-30488590D01*
X163667087Y-22602876D02*
X162867087Y-22602876D01*
X162867087Y-22298114D01*
X162905183Y-22221924D01*
X162943278Y-22183828D01*
X163019468Y-22145733D01*
X163133754Y-22145733D01*
X163209944Y-22183828D01*
X163248040Y-22221924D01*
X163286135Y-22298114D01*
X163286135Y-22602876D01*
X162867087Y-21650495D02*
X162867087Y-21574305D01*
X162905183Y-21498114D01*
X162943278Y-21460019D01*
X163019468Y-21421924D01*
X163171849Y-21383828D01*
X163362325Y-21383828D01*
X163514706Y-21421924D01*
X163590897Y-21460019D01*
X163628992Y-21498114D01*
X163667087Y-21574305D01*
X163667087Y-21650495D01*
X163628992Y-21726686D01*
X163590897Y-21764781D01*
X163514706Y-21802876D01*
X163362325Y-21840971D01*
X163171849Y-21840971D01*
X163019468Y-21802876D01*
X162943278Y-21764781D01*
X162905183Y-21726686D01*
X162867087Y-21650495D01*
X163133754Y-20698114D02*
X163667087Y-20698114D01*
X162828992Y-20888590D02*
X163400421Y-21079067D01*
X163400421Y-20583828D01*
X155247087Y-32298114D02*
X156047087Y-32031448D01*
X155247087Y-31764781D01*
X155970897Y-31040971D02*
X156008992Y-31079067D01*
X156047087Y-31193352D01*
X156047087Y-31269543D01*
X156008992Y-31383828D01*
X155932802Y-31460019D01*
X155856611Y-31498114D01*
X155704230Y-31536209D01*
X155589944Y-31536209D01*
X155437563Y-31498114D01*
X155361373Y-31460019D01*
X155285183Y-31383828D01*
X155247087Y-31269543D01*
X155247087Y-31193352D01*
X155285183Y-31079067D01*
X155323278Y-31040971D01*
X155970897Y-30240971D02*
X156008992Y-30279067D01*
X156047087Y-30393352D01*
X156047087Y-30469543D01*
X156008992Y-30583828D01*
X155932802Y-30660019D01*
X155856611Y-30698114D01*
X155704230Y-30736209D01*
X155589944Y-30736209D01*
X155437563Y-30698114D01*
X155361373Y-30660019D01*
X155285183Y-30583828D01*
X155247087Y-30469543D01*
X155247087Y-30393352D01*
X155285183Y-30279067D01*
X155323278Y-30240971D01*
X176367087Y-22602876D02*
X175567087Y-22602876D01*
X175567087Y-22298114D01*
X175605183Y-22221924D01*
X175643278Y-22183828D01*
X175719468Y-22145733D01*
X175833754Y-22145733D01*
X175909944Y-22183828D01*
X175948040Y-22221924D01*
X175986135Y-22298114D01*
X175986135Y-22602876D01*
X175567087Y-21650495D02*
X175567087Y-21574305D01*
X175605183Y-21498114D01*
X175643278Y-21460019D01*
X175719468Y-21421924D01*
X175871849Y-21383828D01*
X176062325Y-21383828D01*
X176214706Y-21421924D01*
X176290897Y-21460019D01*
X176328992Y-21498114D01*
X176367087Y-21574305D01*
X176367087Y-21650495D01*
X176328992Y-21726686D01*
X176290897Y-21764781D01*
X176214706Y-21802876D01*
X176062325Y-21840971D01*
X175871849Y-21840971D01*
X175719468Y-21802876D01*
X175643278Y-21764781D01*
X175605183Y-21726686D01*
X175567087Y-21650495D01*
X176367087Y-21002876D02*
X176367087Y-20850495D01*
X176328992Y-20774305D01*
X176290897Y-20736209D01*
X176176611Y-20660019D01*
X176024230Y-20621924D01*
X175719468Y-20621924D01*
X175643278Y-20660019D01*
X175605183Y-20698114D01*
X175567087Y-20774305D01*
X175567087Y-20926686D01*
X175605183Y-21002876D01*
X175643278Y-21040971D01*
X175719468Y-21079067D01*
X175909944Y-21079067D01*
X175986135Y-21040971D01*
X176024230Y-21002876D01*
X176062325Y-20926686D01*
X176062325Y-20774305D01*
X176024230Y-20698114D01*
X175986135Y-20660019D01*
X175909944Y-20621924D01*
X166207087Y-32202876D02*
X165407087Y-32202876D01*
X165407087Y-31898114D01*
X165445183Y-31821924D01*
X165483278Y-31783828D01*
X165559468Y-31745733D01*
X165673754Y-31745733D01*
X165749944Y-31783828D01*
X165788040Y-31821924D01*
X165826135Y-31898114D01*
X165826135Y-32202876D01*
X166207087Y-30983828D02*
X166207087Y-31440971D01*
X166207087Y-31212400D02*
X165407087Y-31212400D01*
X165521373Y-31288590D01*
X165597563Y-31364781D01*
X165635659Y-31440971D01*
X165749944Y-30526686D02*
X165711849Y-30602876D01*
X165673754Y-30640971D01*
X165597563Y-30679067D01*
X165559468Y-30679067D01*
X165483278Y-30640971D01*
X165445183Y-30602876D01*
X165407087Y-30526686D01*
X165407087Y-30374305D01*
X165445183Y-30298114D01*
X165483278Y-30260019D01*
X165559468Y-30221924D01*
X165597563Y-30221924D01*
X165673754Y-30260019D01*
X165711849Y-30298114D01*
X165749944Y-30374305D01*
X165749944Y-30526686D01*
X165788040Y-30602876D01*
X165826135Y-30640971D01*
X165902325Y-30679067D01*
X166054706Y-30679067D01*
X166130897Y-30640971D01*
X166168992Y-30602876D01*
X166207087Y-30526686D01*
X166207087Y-30374305D01*
X166168992Y-30298114D01*
X166130897Y-30260019D01*
X166054706Y-30221924D01*
X165902325Y-30221924D01*
X165826135Y-30260019D01*
X165788040Y-30298114D01*
X165749944Y-30374305D01*
X173827087Y-22602876D02*
X173027087Y-22602876D01*
X173027087Y-22298114D01*
X173065183Y-22221924D01*
X173103278Y-22183828D01*
X173179468Y-22145733D01*
X173293754Y-22145733D01*
X173369944Y-22183828D01*
X173408040Y-22221924D01*
X173446135Y-22298114D01*
X173446135Y-22602876D01*
X173027087Y-21650495D02*
X173027087Y-21574305D01*
X173065183Y-21498114D01*
X173103278Y-21460019D01*
X173179468Y-21421924D01*
X173331849Y-21383828D01*
X173522325Y-21383828D01*
X173674706Y-21421924D01*
X173750897Y-21460019D01*
X173788992Y-21498114D01*
X173827087Y-21574305D01*
X173827087Y-21650495D01*
X173788992Y-21726686D01*
X173750897Y-21764781D01*
X173674706Y-21802876D01*
X173522325Y-21840971D01*
X173331849Y-21840971D01*
X173179468Y-21802876D01*
X173103278Y-21764781D01*
X173065183Y-21726686D01*
X173027087Y-21650495D01*
X173369944Y-20926686D02*
X173331849Y-21002876D01*
X173293754Y-21040971D01*
X173217563Y-21079067D01*
X173179468Y-21079067D01*
X173103278Y-21040971D01*
X173065183Y-21002876D01*
X173027087Y-20926686D01*
X173027087Y-20774305D01*
X173065183Y-20698114D01*
X173103278Y-20660019D01*
X173179468Y-20621924D01*
X173217563Y-20621924D01*
X173293754Y-20660019D01*
X173331849Y-20698114D01*
X173369944Y-20774305D01*
X173369944Y-20926686D01*
X173408040Y-21002876D01*
X173446135Y-21040971D01*
X173522325Y-21079067D01*
X173674706Y-21079067D01*
X173750897Y-21040971D01*
X173788992Y-21002876D01*
X173827087Y-20926686D01*
X173827087Y-20774305D01*
X173788992Y-20698114D01*
X173750897Y-20660019D01*
X173674706Y-20621924D01*
X173522325Y-20621924D01*
X173446135Y-20660019D01*
X173408040Y-20698114D01*
X173369944Y-20774305D01*
X166207087Y-22602876D02*
X165407087Y-22602876D01*
X165407087Y-22298114D01*
X165445183Y-22221924D01*
X165483278Y-22183828D01*
X165559468Y-22145733D01*
X165673754Y-22145733D01*
X165749944Y-22183828D01*
X165788040Y-22221924D01*
X165826135Y-22298114D01*
X165826135Y-22602876D01*
X165407087Y-21650495D02*
X165407087Y-21574305D01*
X165445183Y-21498114D01*
X165483278Y-21460019D01*
X165559468Y-21421924D01*
X165711849Y-21383828D01*
X165902325Y-21383828D01*
X166054706Y-21421924D01*
X166130897Y-21460019D01*
X166168992Y-21498114D01*
X166207087Y-21574305D01*
X166207087Y-21650495D01*
X166168992Y-21726686D01*
X166130897Y-21764781D01*
X166054706Y-21802876D01*
X165902325Y-21840971D01*
X165711849Y-21840971D01*
X165559468Y-21802876D01*
X165483278Y-21764781D01*
X165445183Y-21726686D01*
X165407087Y-21650495D01*
X165407087Y-20660019D02*
X165407087Y-21040971D01*
X165788040Y-21079067D01*
X165749944Y-21040971D01*
X165711849Y-20964781D01*
X165711849Y-20774305D01*
X165749944Y-20698114D01*
X165788040Y-20660019D01*
X165864230Y-20621924D01*
X166054706Y-20621924D01*
X166130897Y-20660019D01*
X166168992Y-20698114D01*
X166207087Y-20774305D01*
X166207087Y-20964781D01*
X166168992Y-21040971D01*
X166130897Y-21079067D01*
X161127087Y-32202876D02*
X160327087Y-32202876D01*
X160327087Y-31898114D01*
X160365183Y-31821924D01*
X160403278Y-31783828D01*
X160479468Y-31745733D01*
X160593754Y-31745733D01*
X160669944Y-31783828D01*
X160708040Y-31821924D01*
X160746135Y-31898114D01*
X160746135Y-32202876D01*
X160403278Y-31440971D02*
X160365183Y-31402876D01*
X160327087Y-31326686D01*
X160327087Y-31136209D01*
X160365183Y-31060019D01*
X160403278Y-31021924D01*
X160479468Y-30983828D01*
X160555659Y-30983828D01*
X160669944Y-31021924D01*
X161127087Y-31479067D01*
X161127087Y-30983828D01*
X160327087Y-30488590D02*
X160327087Y-30412400D01*
X160365183Y-30336209D01*
X160403278Y-30298114D01*
X160479468Y-30260019D01*
X160631849Y-30221924D01*
X160822325Y-30221924D01*
X160974706Y-30260019D01*
X161050897Y-30298114D01*
X161088992Y-30336209D01*
X161127087Y-30412400D01*
X161127087Y-30488590D01*
X161088992Y-30564781D01*
X161050897Y-30602876D01*
X160974706Y-30640971D01*
X160822325Y-30679067D01*
X160631849Y-30679067D01*
X160479468Y-30640971D01*
X160403278Y-30602876D01*
X160365183Y-30564781D01*
X160327087Y-30488590D01*
X153507087Y-31669543D02*
X153126135Y-31936209D01*
X153507087Y-32126686D02*
X152707087Y-32126686D01*
X152707087Y-31821924D01*
X152745183Y-31745733D01*
X152783278Y-31707638D01*
X152859468Y-31669543D01*
X152973754Y-31669543D01*
X153049944Y-31707638D01*
X153088040Y-31745733D01*
X153126135Y-31821924D01*
X153126135Y-32126686D01*
X153468992Y-31364781D02*
X153507087Y-31250495D01*
X153507087Y-31060019D01*
X153468992Y-30983828D01*
X153430897Y-30945733D01*
X153354706Y-30907638D01*
X153278516Y-30907638D01*
X153202325Y-30945733D01*
X153164230Y-30983828D01*
X153126135Y-31060019D01*
X153088040Y-31212400D01*
X153049944Y-31288590D01*
X153011849Y-31326686D01*
X152935659Y-31364781D01*
X152859468Y-31364781D01*
X152783278Y-31326686D01*
X152745183Y-31288590D01*
X152707087Y-31212400D01*
X152707087Y-31021924D01*
X152745183Y-30907638D01*
X152707087Y-30679067D02*
X152707087Y-30221924D01*
X153507087Y-30450495D02*
X152707087Y-30450495D01*
X148427087Y-31783828D02*
X148046135Y-32050495D01*
X148427087Y-32240971D02*
X147627087Y-32240971D01*
X147627087Y-31936209D01*
X147665183Y-31860019D01*
X147703278Y-31821924D01*
X147779468Y-31783828D01*
X147893754Y-31783828D01*
X147969944Y-31821924D01*
X148008040Y-31860019D01*
X148046135Y-31936209D01*
X148046135Y-32240971D01*
X148198516Y-31479067D02*
X148198516Y-31098114D01*
X148427087Y-31555257D02*
X147627087Y-31288590D01*
X148427087Y-31021924D01*
X147627087Y-30831448D02*
X148427087Y-30640971D01*
X147855659Y-30488590D01*
X148427087Y-30336209D01*
X147627087Y-30145733D01*
X161127087Y-22602876D02*
X160327087Y-22602876D01*
X160327087Y-22298114D01*
X160365183Y-22221924D01*
X160403278Y-22183828D01*
X160479468Y-22145733D01*
X160593754Y-22145733D01*
X160669944Y-22183828D01*
X160708040Y-22221924D01*
X160746135Y-22298114D01*
X160746135Y-22602876D01*
X160327087Y-21650495D02*
X160327087Y-21574305D01*
X160365183Y-21498114D01*
X160403278Y-21460019D01*
X160479468Y-21421924D01*
X160631849Y-21383828D01*
X160822325Y-21383828D01*
X160974706Y-21421924D01*
X161050897Y-21460019D01*
X161088992Y-21498114D01*
X161127087Y-21574305D01*
X161127087Y-21650495D01*
X161088992Y-21726686D01*
X161050897Y-21764781D01*
X160974706Y-21802876D01*
X160822325Y-21840971D01*
X160631849Y-21840971D01*
X160479468Y-21802876D01*
X160403278Y-21764781D01*
X160365183Y-21726686D01*
X160327087Y-21650495D01*
X160327087Y-21117162D02*
X160327087Y-20621924D01*
X160631849Y-20888590D01*
X160631849Y-20774305D01*
X160669944Y-20698114D01*
X160708040Y-20660019D01*
X160784230Y-20621924D01*
X160974706Y-20621924D01*
X161050897Y-20660019D01*
X161088992Y-20698114D01*
X161127087Y-20774305D01*
X161127087Y-21002876D01*
X161088992Y-21079067D01*
X161050897Y-21117162D01*
X173827087Y-32202876D02*
X173027087Y-32202876D01*
X173027087Y-31898114D01*
X173065183Y-31821924D01*
X173103278Y-31783828D01*
X173179468Y-31745733D01*
X173293754Y-31745733D01*
X173369944Y-31783828D01*
X173408040Y-31821924D01*
X173446135Y-31898114D01*
X173446135Y-32202876D01*
X173827087Y-30983828D02*
X173827087Y-31440971D01*
X173827087Y-31212400D02*
X173027087Y-31212400D01*
X173141373Y-31288590D01*
X173217563Y-31364781D01*
X173255659Y-31440971D01*
X173027087Y-30298114D02*
X173027087Y-30450495D01*
X173065183Y-30526686D01*
X173103278Y-30564781D01*
X173217563Y-30640971D01*
X173369944Y-30679067D01*
X173674706Y-30679067D01*
X173750897Y-30640971D01*
X173788992Y-30602876D01*
X173827087Y-30526686D01*
X173827087Y-30374305D01*
X173788992Y-30298114D01*
X173750897Y-30260019D01*
X173674706Y-30221924D01*
X173484230Y-30221924D01*
X173408040Y-30260019D01*
X173369944Y-30298114D01*
X173331849Y-30374305D01*
X173331849Y-30526686D01*
X173369944Y-30602876D01*
X173408040Y-30640971D01*
X173484230Y-30679067D01*
X152745183Y-22240971D02*
X152707087Y-22317162D01*
X152707087Y-22431448D01*
X152745183Y-22545733D01*
X152821373Y-22621924D01*
X152897563Y-22660019D01*
X153049944Y-22698114D01*
X153164230Y-22698114D01*
X153316611Y-22660019D01*
X153392802Y-22621924D01*
X153468992Y-22545733D01*
X153507087Y-22431448D01*
X153507087Y-22355257D01*
X153468992Y-22240971D01*
X153430897Y-22202876D01*
X153164230Y-22202876D01*
X153164230Y-22355257D01*
X153507087Y-21860019D02*
X152707087Y-21860019D01*
X153507087Y-21402876D01*
X152707087Y-21402876D01*
X153507087Y-21021924D02*
X152707087Y-21021924D01*
X152707087Y-20831448D01*
X152745183Y-20717162D01*
X152821373Y-20640971D01*
X152897563Y-20602876D01*
X153049944Y-20564781D01*
X153164230Y-20564781D01*
X153316611Y-20602876D01*
X153392802Y-20640971D01*
X153468992Y-20717162D01*
X153507087Y-20831448D01*
X153507087Y-21021924D01*
X150967087Y-22602876D02*
X150167087Y-22602876D01*
X150167087Y-22298114D01*
X150205183Y-22221924D01*
X150243278Y-22183828D01*
X150319468Y-22145733D01*
X150433754Y-22145733D01*
X150509944Y-22183828D01*
X150548040Y-22221924D01*
X150586135Y-22298114D01*
X150586135Y-22602876D01*
X150167087Y-21650495D02*
X150167087Y-21574305D01*
X150205183Y-21498114D01*
X150243278Y-21460019D01*
X150319468Y-21421924D01*
X150471849Y-21383828D01*
X150662325Y-21383828D01*
X150814706Y-21421924D01*
X150890897Y-21460019D01*
X150928992Y-21498114D01*
X150967087Y-21574305D01*
X150967087Y-21650495D01*
X150928992Y-21726686D01*
X150890897Y-21764781D01*
X150814706Y-21802876D01*
X150662325Y-21840971D01*
X150471849Y-21840971D01*
X150319468Y-21802876D01*
X150243278Y-21764781D01*
X150205183Y-21726686D01*
X150167087Y-21650495D01*
X150167087Y-20888590D02*
X150167087Y-20812400D01*
X150205183Y-20736209D01*
X150243278Y-20698114D01*
X150319468Y-20660019D01*
X150471849Y-20621924D01*
X150662325Y-20621924D01*
X150814706Y-20660019D01*
X150890897Y-20698114D01*
X150928992Y-20736209D01*
X150967087Y-20812400D01*
X150967087Y-20888590D01*
X150928992Y-20964781D01*
X150890897Y-21002876D01*
X150814706Y-21040971D01*
X150662325Y-21079067D01*
X150471849Y-21079067D01*
X150319468Y-21040971D01*
X150243278Y-21002876D01*
X150205183Y-20964781D01*
X150167087Y-20888590D01*
X168747087Y-22602876D02*
X167947087Y-22602876D01*
X167947087Y-22298114D01*
X167985183Y-22221924D01*
X168023278Y-22183828D01*
X168099468Y-22145733D01*
X168213754Y-22145733D01*
X168289944Y-22183828D01*
X168328040Y-22221924D01*
X168366135Y-22298114D01*
X168366135Y-22602876D01*
X167947087Y-21650495D02*
X167947087Y-21574305D01*
X167985183Y-21498114D01*
X168023278Y-21460019D01*
X168099468Y-21421924D01*
X168251849Y-21383828D01*
X168442325Y-21383828D01*
X168594706Y-21421924D01*
X168670897Y-21460019D01*
X168708992Y-21498114D01*
X168747087Y-21574305D01*
X168747087Y-21650495D01*
X168708992Y-21726686D01*
X168670897Y-21764781D01*
X168594706Y-21802876D01*
X168442325Y-21840971D01*
X168251849Y-21840971D01*
X168099468Y-21802876D01*
X168023278Y-21764781D01*
X167985183Y-21726686D01*
X167947087Y-21650495D01*
X167947087Y-20698114D02*
X167947087Y-20850495D01*
X167985183Y-20926686D01*
X168023278Y-20964781D01*
X168137563Y-21040971D01*
X168289944Y-21079067D01*
X168594706Y-21079067D01*
X168670897Y-21040971D01*
X168708992Y-21002876D01*
X168747087Y-20926686D01*
X168747087Y-20774305D01*
X168708992Y-20698114D01*
X168670897Y-20660019D01*
X168594706Y-20621924D01*
X168404230Y-20621924D01*
X168328040Y-20660019D01*
X168289944Y-20698114D01*
X168251849Y-20774305D01*
X168251849Y-20926686D01*
X168289944Y-21002876D01*
X168328040Y-21040971D01*
X168404230Y-21079067D01*
X168747087Y-32202876D02*
X167947087Y-32202876D01*
X167947087Y-31898114D01*
X167985183Y-31821924D01*
X168023278Y-31783828D01*
X168099468Y-31745733D01*
X168213754Y-31745733D01*
X168289944Y-31783828D01*
X168328040Y-31821924D01*
X168366135Y-31898114D01*
X168366135Y-32202876D01*
X168747087Y-30983828D02*
X168747087Y-31440971D01*
X168747087Y-31212400D02*
X167947087Y-31212400D01*
X168061373Y-31288590D01*
X168137563Y-31364781D01*
X168175659Y-31440971D01*
X167947087Y-30260019D02*
X167947087Y-30640971D01*
X168328040Y-30679067D01*
X168289944Y-30640971D01*
X168251849Y-30564781D01*
X168251849Y-30374305D01*
X168289944Y-30298114D01*
X168328040Y-30260019D01*
X168404230Y-30221924D01*
X168594706Y-30221924D01*
X168670897Y-30260019D01*
X168708992Y-30298114D01*
X168747087Y-30374305D01*
X168747087Y-30564781D01*
X168708992Y-30640971D01*
X168670897Y-30679067D01*
X150205183Y-31840971D02*
X150167087Y-31917162D01*
X150167087Y-32031448D01*
X150205183Y-32145733D01*
X150281373Y-32221924D01*
X150357563Y-32260019D01*
X150509944Y-32298114D01*
X150624230Y-32298114D01*
X150776611Y-32260019D01*
X150852802Y-32221924D01*
X150928992Y-32145733D01*
X150967087Y-32031448D01*
X150967087Y-31955257D01*
X150928992Y-31840971D01*
X150890897Y-31802876D01*
X150624230Y-31802876D01*
X150624230Y-31955257D01*
X150967087Y-31460019D02*
X150167087Y-31460019D01*
X150967087Y-31002876D01*
X150167087Y-31002876D01*
X150967087Y-30621924D02*
X150167087Y-30621924D01*
X150167087Y-30431448D01*
X150205183Y-30317162D01*
X150281373Y-30240971D01*
X150357563Y-30202876D01*
X150509944Y-30164781D01*
X150624230Y-30164781D01*
X150776611Y-30202876D01*
X150852802Y-30240971D01*
X150928992Y-30317162D01*
X150967087Y-30431448D01*
X150967087Y-30621924D01*
X155285183Y-22240971D02*
X155247087Y-22317162D01*
X155247087Y-22431448D01*
X155285183Y-22545733D01*
X155361373Y-22621924D01*
X155437563Y-22660019D01*
X155589944Y-22698114D01*
X155704230Y-22698114D01*
X155856611Y-22660019D01*
X155932802Y-22621924D01*
X156008992Y-22545733D01*
X156047087Y-22431448D01*
X156047087Y-22355257D01*
X156008992Y-22240971D01*
X155970897Y-22202876D01*
X155704230Y-22202876D01*
X155704230Y-22355257D01*
X156047087Y-21860019D02*
X155247087Y-21860019D01*
X156047087Y-21402876D01*
X155247087Y-21402876D01*
X156047087Y-21021924D02*
X155247087Y-21021924D01*
X155247087Y-20831448D01*
X155285183Y-20717162D01*
X155361373Y-20640971D01*
X155437563Y-20602876D01*
X155589944Y-20564781D01*
X155704230Y-20564781D01*
X155856611Y-20602876D01*
X155932802Y-20640971D01*
X156008992Y-20717162D01*
X156047087Y-20831448D01*
X156047087Y-21021924D01*
X146795183Y-32781448D02*
X146795183Y-35321448D01*
X144255183Y-35321448D02*
X177275183Y-35321448D01*
X149335183Y-32781448D02*
X149335183Y-35321448D01*
X177275183Y-17541448D02*
X144255183Y-17541448D01*
X144255183Y-17541448D02*
X144255183Y-35321448D01*
X146795183Y-32781448D02*
X149335183Y-32781448D01*
X177275183Y-35321448D02*
X177275183Y-17541448D01*
%TD*%
D11*
%TO.C,MCU1*%
X148065183Y-34051448D03*
D12*
X150605183Y-34051448D03*
X153145183Y-34051448D03*
X155685183Y-34051448D03*
X158225183Y-34051448D03*
X160765183Y-34051448D03*
X163305183Y-34051448D03*
X165845183Y-34051448D03*
X168385183Y-34051448D03*
X170925183Y-34051448D03*
X173465183Y-34051448D03*
X176005183Y-34051448D03*
X148065183Y-18811448D03*
X150605183Y-18811448D03*
X153145183Y-18811448D03*
X155685183Y-18811448D03*
X158225183Y-18811448D03*
X160765183Y-18811448D03*
X163305183Y-18811448D03*
X165845183Y-18811448D03*
X168385183Y-18811448D03*
X170925183Y-18811448D03*
X173465183Y-18811448D03*
X176005183Y-18811448D03*
%TD*%
M02*
