M48
INCH,TZ
T1C0.0670
T2C0.1181
T3C0.1350
%
G90
G05
T1
X9502Y-21804
X10780Y-15234
X13754Y-22630
X15031Y-16060
X15820Y-26441
X17097Y-19871
X18374Y-13301
X20071Y-27267
X21349Y-20697
X22626Y-14128
X23874Y-23450
X25719Y-17016
X27564Y-10583
X28037Y-24644
X29384Y-29945
X29882Y-18210
X31229Y-23511
X31727Y-11776
X33074Y-17077
X33547Y-31138
X34918Y-10644
X35392Y-24705
X37237Y-18271
X37390Y-27735
X38734Y-35902
X39081Y-11837
X39235Y-21301
X41079Y-14868
X41553Y-28929
X42897Y-37096
X43398Y-22495
X43985Y-30445
X45242Y-16062
X45830Y-24012
X47675Y-17578
X48133Y-38786
X48148Y-31639
X49993Y-25205
X51837Y-18772
X52464Y-38786
X53367Y-31292
X54280Y-20250
X54560Y-27130
X58443Y-21444
X66019Y-21444
X69902Y-27130
X70182Y-20250
X71096Y-31292
X71999Y-38786
X72625Y-18772
X74470Y-25205
X76315Y-31639
X76329Y-38786
X76788Y-17578
X78633Y-24012
X79220Y-16062
X80478Y-30445
X81065Y-22495
X81566Y-37096
X82910Y-28929
X83383Y-14868
X85228Y-21301
X85381Y-11837
X85729Y-35902
X87073Y-27735
X87226Y-18271
X89071Y-24705
X89544Y-10644
X90916Y-31138
X91389Y-17077
X92736Y-11776
X93234Y-23511
X94581Y-18210
X95079Y-29945
X96426Y-24644
X96899Y-10583
X98744Y-17016
X100589Y-23450
X101837Y-14128
X103114Y-20697
X104391Y-27267
X106088Y-13301
X107365Y-19871
X108642Y-26441
X109432Y-16060
X110709Y-22630
X113683Y-15234
X114960Y-21804
T2
X12075Y-19918
X13352Y-13348
X13842Y-21143
X15119Y-14574
X18393Y-24555
X19670Y-17985
X20160Y-25781
X20947Y-11415
X21437Y-19211
X22714Y-12641
X26601Y-21795
X28255Y-23170
X28446Y-15361
X30100Y-16737
X30291Y-8928
X31944Y-10303
X32111Y-28290
X33765Y-29665
X33956Y-21856
X35610Y-23231
X35801Y-15423
X37454Y-16798
X37646Y-8989
X39299Y-10364
X40117Y-26080
X41461Y-34247
X41770Y-27455
X41962Y-19647
X43115Y-35623
X43615Y-21022
X43807Y-13213
X45460Y-14588
X46712Y-28790
X48366Y-30166
X48557Y-22357
X50210Y-23732
X50299Y-36444
X50402Y-15923
X51712Y-28565
X52055Y-17298
X52267Y-37310
X53087Y-26912
X57008Y-18596
X58661Y-19971
X67455Y-18596
X69586Y-18886
X72461Y-30696
X72751Y-28565
X74061Y-15923
X74164Y-36444
X75906Y-22357
X76132Y-37310
X76192Y-16213
X77751Y-28790
X78037Y-22647
X79882Y-29080
X80656Y-13213
X82501Y-19647
X82787Y-13503
X83002Y-34247
X84346Y-26080
X84632Y-19937
X85133Y-34537
X86477Y-26370
X86817Y-8989
X88662Y-15423
X88948Y-9279
X90507Y-21856
X90793Y-15712
X92352Y-28290
X92638Y-22146
X94172Y-8928
X94482Y-28580
X96017Y-15361
X96303Y-9218
X97861Y-21795
X98148Y-15651
X99992Y-22085
X103516Y-11415
X104793Y-17985
X105613Y-11890
X106070Y-24555
X106890Y-18459
X108167Y-25029
X111111Y-13348
X112388Y-19918
X113208Y-13822
X114485Y-20392
T3
X11628Y-22217
X12905Y-15647
X17946Y-26854
X19223Y-20284
X20500Y-13714
X25956Y-24047
X27800Y-17613
X29645Y-11180
X31466Y-30542
X33310Y-24108
X35155Y-17674
X37000Y-11241
X39471Y-28332
X40815Y-36499
X41316Y-21898
X43161Y-15465
X46066Y-31042
X47911Y-24609
X49756Y-18175
X50299Y-38786
X53964Y-29211
X56362Y-20847
X68101Y-20847
X70499Y-29211
X74164Y-38786
X74707Y-18175
X76552Y-24609
X78396Y-31042
X81302Y-15465
X83147Y-21898
X83647Y-36499
X84991Y-28332
X87463Y-11241
X89308Y-17674
X91152Y-24108
X92997Y-30542
X94817Y-11180
X96662Y-17613
X98507Y-24047
X103963Y-13714
X105240Y-20284
X106517Y-26854
X111558Y-15647
X112835Y-22217
T0
M30
