%TF.GenerationSoftware,KiCad,Pcbnew,(6.0.7-1)-1*%
%TF.CreationDate,2022-08-01T14:13:12+02:00*%
%TF.ProjectId,green60-test3,67726565-6e36-4302-9d74-657374332e6b,v1.0.0*%
%TF.SameCoordinates,Original*%
%TF.FileFunction,Drillmap*%
%TF.FilePolarity,Positive*%
%FSLAX45Y45*%
G04 Gerber Fmt 4.5, Leading zero omitted, Abs format (unit mm)*
G04 Created by KiCad (PCBNEW (6.0.7-1)-1) date 2022-08-01 14:13:12*
%MOMM*%
%LPD*%
G01*
G04 APERTURE LIST*
%ADD10C,0.150000*%
%ADD11C,0.200000*%
%ADD12C,0.170180*%
%ADD13C,0.300000*%
%ADD14C,0.342900*%
G04 APERTURE END LIST*
D10*
X1603518Y-1733145D02*
X1603518Y-10793145D01*
X1803518Y-1533145D02*
G75*
G03*
X1603518Y-1733145I0J-200000D01*
G01*
X1803518Y-10993145D02*
X29903518Y-10993145D01*
X29903518Y-10993138D02*
G75*
G03*
X30103518Y-10793145I2J199998D01*
G01*
X30103518Y-10793145D02*
X30103518Y-1733145D01*
X30103515Y-1733145D02*
G75*
G03*
X29903518Y-1533145I-199995J5D01*
G01*
X29903518Y-1533145D02*
X1803518Y-1533145D01*
X1603515Y-10793145D02*
G75*
G03*
X1803518Y-10993145I200005J5D01*
G01*
D11*
D12*
X2328533Y-5453110D02*
X2498713Y-5623290D01*
X2498713Y-5453110D02*
X2328533Y-5623290D01*
X2652909Y-3784344D02*
X2823089Y-3954524D01*
X2823089Y-3784344D02*
X2652909Y-3954524D01*
X3408323Y-5663000D02*
X3578503Y-5833180D01*
X3578503Y-5663000D02*
X3408323Y-5833180D01*
X3732699Y-3994233D02*
X3902879Y-4164413D01*
X3902879Y-3994233D02*
X3732699Y-4164413D01*
X3933275Y-6630949D02*
X4103455Y-6801129D01*
X4103455Y-6630949D02*
X3933275Y-6801129D01*
X4257650Y-4962183D02*
X4427830Y-5132363D01*
X4427830Y-4962183D02*
X4257650Y-5132363D01*
X4582025Y-3293417D02*
X4752205Y-3463597D01*
X4752205Y-3293417D02*
X4582025Y-3463597D01*
X5013065Y-6840839D02*
X5183245Y-7011019D01*
X5183245Y-6840839D02*
X5013065Y-7011019D01*
X5337440Y-5172073D02*
X5507620Y-5342253D01*
X5507620Y-5172073D02*
X5337440Y-5342253D01*
X5661815Y-3503307D02*
X5831995Y-3673487D01*
X5831995Y-3503307D02*
X5661815Y-3673487D01*
X5978948Y-5871205D02*
X6149128Y-6041385D01*
X6149128Y-5871205D02*
X5978948Y-6041385D01*
X6447531Y-4237060D02*
X6617711Y-4407240D01*
X6617711Y-4237060D02*
X6447531Y-4407240D01*
X6916115Y-2602915D02*
X7086295Y-2773095D01*
X7086295Y-2602915D02*
X6916115Y-2773095D01*
X7036336Y-6174406D02*
X7206516Y-6344586D01*
X7206516Y-6174406D02*
X7036336Y-6344586D01*
X7378454Y-7520866D02*
X7548634Y-7691046D01*
X7548634Y-7520866D02*
X7378454Y-7691046D01*
X7504919Y-4540261D02*
X7675099Y-4710441D01*
X7675099Y-4540261D02*
X7504919Y-4710441D01*
X7847038Y-5886721D02*
X8017218Y-6056901D01*
X8017218Y-5886721D02*
X7847038Y-6056901D01*
X7973503Y-2906116D02*
X8143683Y-3076296D01*
X8143683Y-2906116D02*
X7973503Y-3076296D01*
X8315621Y-4252576D02*
X8485801Y-4422756D01*
X8485801Y-4252576D02*
X8315621Y-4422756D01*
X8435842Y-7824067D02*
X8606022Y-7994247D01*
X8606022Y-7824067D02*
X8435842Y-7994247D01*
X8784205Y-2618431D02*
X8954385Y-2788611D01*
X8954385Y-2618431D02*
X8784205Y-2788611D01*
X8904426Y-6189922D02*
X9074606Y-6360102D01*
X9074606Y-6189922D02*
X8904426Y-6360102D01*
X9373009Y-4555777D02*
X9543189Y-4725957D01*
X9543189Y-4555777D02*
X9373009Y-4725957D01*
X9411926Y-6959625D02*
X9582106Y-7129805D01*
X9582106Y-6959625D02*
X9411926Y-7129805D01*
X9753351Y-9034096D02*
X9923531Y-9204276D01*
X9923531Y-9034096D02*
X9753351Y-9204276D01*
X9841593Y-2921632D02*
X10011773Y-3091812D01*
X10011773Y-2921632D02*
X9841593Y-3091812D01*
X9880510Y-5325481D02*
X10050690Y-5495661D01*
X10050690Y-5325481D02*
X9880510Y-5495661D01*
X10349093Y-3691336D02*
X10519273Y-3861516D01*
X10519273Y-3691336D02*
X10349093Y-3861516D01*
X10469314Y-7262826D02*
X10639494Y-7433006D01*
X10639494Y-7262826D02*
X10469314Y-7433006D01*
X10810739Y-9337297D02*
X10980919Y-9507477D01*
X10980919Y-9337297D02*
X10810739Y-9507477D01*
X10937898Y-5628681D02*
X11108078Y-5798861D01*
X11108078Y-5628681D02*
X10937898Y-5798861D01*
X11087070Y-7648025D02*
X11257250Y-7818205D01*
X11257250Y-7648025D02*
X11087070Y-7818205D01*
X11406481Y-3994537D02*
X11576661Y-4164717D01*
X11576661Y-3994537D02*
X11406481Y-4164717D01*
X11555653Y-6013880D02*
X11725833Y-6184060D01*
X11725833Y-6013880D02*
X11555653Y-6184060D01*
X12024237Y-4379735D02*
X12194417Y-4549915D01*
X12194417Y-4379735D02*
X12024237Y-4549915D01*
X12140802Y-9766658D02*
X12310982Y-9936838D01*
X12310982Y-9766658D02*
X12140802Y-9936838D01*
X12144458Y-7951226D02*
X12314638Y-8121406D01*
X12314638Y-7951226D02*
X12144458Y-8121406D01*
X12613041Y-6317081D02*
X12783221Y-6487261D01*
X12783221Y-6317081D02*
X12613041Y-6487261D01*
X13081625Y-4682936D02*
X13251805Y-4853116D01*
X13251805Y-4682936D02*
X13081625Y-4853116D01*
X13240802Y-9766658D02*
X13410982Y-9936838D01*
X13410982Y-9766658D02*
X13240802Y-9936838D01*
X13470072Y-7863205D02*
X13640252Y-8033385D01*
X13640252Y-7863205D02*
X13470072Y-8033385D01*
X13702137Y-5058522D02*
X13872317Y-5228702D01*
X13872317Y-5058522D02*
X13702137Y-5228702D01*
X13773273Y-6805817D02*
X13943453Y-6975997D01*
X13943453Y-6805817D02*
X13773273Y-6975997D01*
X14759525Y-5361723D02*
X14929705Y-5531903D01*
X14929705Y-5361723D02*
X14759525Y-5531903D01*
X16683820Y-5361723D02*
X16854000Y-5531903D01*
X16854000Y-5361723D02*
X16683820Y-5531903D01*
X17670072Y-6805817D02*
X17840252Y-6975997D01*
X17840252Y-6805817D02*
X17670072Y-6975997D01*
X17741208Y-5058522D02*
X17911388Y-5228702D01*
X17911388Y-5058522D02*
X17741208Y-5228702D01*
X17973273Y-7863205D02*
X18143453Y-8033385D01*
X18143453Y-7863205D02*
X17973273Y-8033385D01*
X18202542Y-9766658D02*
X18372722Y-9936838D01*
X18372722Y-9766658D02*
X18202542Y-9936838D01*
X18361720Y-4682936D02*
X18531900Y-4853116D01*
X18531900Y-4682936D02*
X18361720Y-4853116D01*
X18830303Y-6317081D02*
X19000483Y-6487261D01*
X19000483Y-6317081D02*
X18830303Y-6487261D01*
X19298887Y-7951226D02*
X19469067Y-8121406D01*
X19469067Y-7951226D02*
X19298887Y-8121406D01*
X19302542Y-9766658D02*
X19472722Y-9936838D01*
X19472722Y-9766658D02*
X19302542Y-9936838D01*
X19419108Y-4379735D02*
X19589288Y-4549915D01*
X19589288Y-4379735D02*
X19419108Y-4549915D01*
X19887691Y-6013880D02*
X20057871Y-6184060D01*
X20057871Y-6013880D02*
X19887691Y-6184060D01*
X20036863Y-3994537D02*
X20207043Y-4164717D01*
X20207043Y-3994537D02*
X20036863Y-4164717D01*
X20356275Y-7648025D02*
X20526455Y-7818205D01*
X20526455Y-7648025D02*
X20356275Y-7818205D01*
X20505447Y-5628681D02*
X20675627Y-5798861D01*
X20675627Y-5628681D02*
X20505447Y-5798861D01*
X20632606Y-9337297D02*
X20802786Y-9507477D01*
X20802786Y-9337297D02*
X20632606Y-9507477D01*
X20974030Y-7262826D02*
X21144210Y-7433006D01*
X21144210Y-7262826D02*
X20974030Y-7433006D01*
X21094251Y-3691336D02*
X21264431Y-3861516D01*
X21264431Y-3691336D02*
X21094251Y-3861516D01*
X21562835Y-5325481D02*
X21733015Y-5495661D01*
X21733015Y-5325481D02*
X21562835Y-5495661D01*
X21601752Y-2921632D02*
X21771932Y-3091812D01*
X21771932Y-2921632D02*
X21601752Y-3091812D01*
X21689994Y-9034096D02*
X21860174Y-9204276D01*
X21860174Y-9034096D02*
X21689994Y-9204276D01*
X22031418Y-6959625D02*
X22201598Y-7129805D01*
X22201598Y-6959625D02*
X22031418Y-7129805D01*
X22070336Y-4555777D02*
X22240516Y-4725957D01*
X22240516Y-4555777D02*
X22070336Y-4725957D01*
X22538919Y-6189922D02*
X22709099Y-6360102D01*
X22709099Y-6189922D02*
X22538919Y-6360102D01*
X22659140Y-2618431D02*
X22829320Y-2788611D01*
X22829320Y-2618431D02*
X22659140Y-2788611D01*
X23007502Y-7824067D02*
X23177682Y-7994247D01*
X23177682Y-7824067D02*
X23007502Y-7994247D01*
X23127723Y-4252576D02*
X23297903Y-4422756D01*
X23297903Y-4252576D02*
X23127723Y-4422756D01*
X23469842Y-2906116D02*
X23640022Y-3076296D01*
X23640022Y-2906116D02*
X23469842Y-3076296D01*
X23596307Y-5886721D02*
X23766487Y-6056901D01*
X23766487Y-5886721D02*
X23596307Y-6056901D01*
X23938425Y-4540261D02*
X24108605Y-4710441D01*
X24108605Y-4540261D02*
X23938425Y-4710441D01*
X24064890Y-7520866D02*
X24235070Y-7691046D01*
X24235070Y-7520866D02*
X24064890Y-7691046D01*
X24407009Y-6174406D02*
X24577189Y-6344586D01*
X24577189Y-6174406D02*
X24407009Y-6344586D01*
X24527229Y-2602915D02*
X24697409Y-2773095D01*
X24697409Y-2602915D02*
X24527229Y-2773095D01*
X24995813Y-4237060D02*
X25165993Y-4407240D01*
X25165993Y-4237060D02*
X24995813Y-4407240D01*
X25464396Y-5871205D02*
X25634576Y-6041385D01*
X25634576Y-5871205D02*
X25464396Y-6041385D01*
X25781529Y-3503307D02*
X25951709Y-3673487D01*
X25951709Y-3503307D02*
X25781529Y-3673487D01*
X26105905Y-5172073D02*
X26276085Y-5342253D01*
X26276085Y-5172073D02*
X26105905Y-5342253D01*
X26430280Y-6840839D02*
X26600460Y-7011019D01*
X26600460Y-6840839D02*
X26430280Y-7011019D01*
X26861319Y-3293417D02*
X27031499Y-3463597D01*
X27031499Y-3293417D02*
X26861319Y-3463597D01*
X27185695Y-4962183D02*
X27355875Y-5132363D01*
X27355875Y-4962183D02*
X27185695Y-5132363D01*
X27510070Y-6630949D02*
X27680250Y-6801129D01*
X27680250Y-6630949D02*
X27510070Y-6801129D01*
X27710646Y-3994233D02*
X27880826Y-4164413D01*
X27880826Y-3994233D02*
X27710646Y-4164413D01*
X28035021Y-5663000D02*
X28205201Y-5833180D01*
X28205201Y-5663000D02*
X28035021Y-5833180D01*
X28790436Y-3784344D02*
X28960616Y-3954524D01*
X28960616Y-3784344D02*
X28790436Y-3954524D01*
X29114811Y-5453110D02*
X29284991Y-5623290D01*
X29284991Y-5453110D02*
X29114811Y-5623290D01*
D13*
X3217050Y-5059077D02*
G75*
G03*
X3217050Y-5059077I-150000J0D01*
G01*
X3541425Y-3390310D02*
G75*
G03*
X3541425Y-3390310I-150000J0D01*
G01*
X3665885Y-5370439D02*
G75*
G03*
X3665885Y-5370439I-150000J0D01*
G01*
X3990261Y-3701673D02*
G75*
G03*
X3990261Y-3701673I-150000J0D01*
G01*
X4821791Y-6236916D02*
G75*
G03*
X4821791Y-6236916I-150000J0D01*
G01*
X5146166Y-4568150D02*
G75*
G03*
X5146166Y-4568150I-150000J0D01*
G01*
X5270627Y-6548278D02*
G75*
G03*
X5270627Y-6548278I-150000J0D01*
G01*
X5470542Y-2899383D02*
G75*
G03*
X5470542Y-2899383I-150000J0D01*
G01*
X5595002Y-4879512D02*
G75*
G03*
X5595002Y-4879512I-150000J0D01*
G01*
X5919377Y-3210746D02*
G75*
G03*
X5919377Y-3210746I-150000J0D01*
G01*
X6906736Y-5535945D02*
G75*
G03*
X6906736Y-5535945I-150000J0D01*
G01*
X7326727Y-5885241D02*
G75*
G03*
X7326727Y-5885241I-150000J0D01*
G01*
X7375320Y-3901800D02*
G75*
G03*
X7375320Y-3901800I-150000J0D01*
G01*
X7795310Y-4251096D02*
G75*
G03*
X7795310Y-4251096I-150000J0D01*
G01*
X7843903Y-2267655D02*
G75*
G03*
X7843903Y-2267655I-150000J0D01*
G01*
X8263894Y-2616951D02*
G75*
G03*
X8263894Y-2616951I-150000J0D01*
G01*
X8306242Y-7185606D02*
G75*
G03*
X8306242Y-7185606I-150000J0D01*
G01*
X8726233Y-7534902D02*
G75*
G03*
X8726233Y-7534902I-150000J0D01*
G01*
X8774826Y-5551461D02*
G75*
G03*
X8774826Y-5551461I-150000J0D01*
G01*
X9194817Y-5900757D02*
G75*
G03*
X9194817Y-5900757I-150000J0D01*
G01*
X9243409Y-3917316D02*
G75*
G03*
X9243409Y-3917316I-150000J0D01*
G01*
X9663400Y-4266612D02*
G75*
G03*
X9663400Y-4266612I-150000J0D01*
G01*
X9711993Y-2283171D02*
G75*
G03*
X9711993Y-2283171I-150000J0D01*
G01*
X10131984Y-2632467D02*
G75*
G03*
X10131984Y-2632467I-150000J0D01*
G01*
X10339715Y-6624365D02*
G75*
G03*
X10339715Y-6624365I-150000J0D01*
G01*
X10681139Y-8698836D02*
G75*
G03*
X10681139Y-8698836I-150000J0D01*
G01*
X10759705Y-6973661D02*
G75*
G03*
X10759705Y-6973661I-150000J0D01*
G01*
X10808298Y-4990220D02*
G75*
G03*
X10808298Y-4990220I-150000J0D01*
G01*
X11101130Y-9048132D02*
G75*
G03*
X11101130Y-9048132I-150000J0D01*
G01*
X11228289Y-5339517D02*
G75*
G03*
X11228289Y-5339517I-150000J0D01*
G01*
X11276881Y-3356075D02*
G75*
G03*
X11276881Y-3356075I-150000J0D01*
G01*
X11696872Y-3705372D02*
G75*
G03*
X11696872Y-3705372I-150000J0D01*
G01*
X12014858Y-7312765D02*
G75*
G03*
X12014858Y-7312765I-150000J0D01*
G01*
X12434849Y-7662061D02*
G75*
G03*
X12434849Y-7662061I-150000J0D01*
G01*
X12483441Y-5678620D02*
G75*
G03*
X12483441Y-5678620I-150000J0D01*
G01*
X12903432Y-6027916D02*
G75*
G03*
X12903432Y-6027916I-150000J0D01*
G01*
X12925892Y-9256748D02*
G75*
G03*
X12925892Y-9256748I-150000J0D01*
G01*
X12952025Y-4044475D02*
G75*
G03*
X12952025Y-4044475I-150000J0D01*
G01*
X13284812Y-7255597D02*
G75*
G03*
X13284812Y-7255597I-150000J0D01*
G01*
X13372016Y-4393771D02*
G75*
G03*
X13372016Y-4393771I-150000J0D01*
G01*
X13425892Y-9476748D02*
G75*
G03*
X13425892Y-9476748I-150000J0D01*
G01*
X13634108Y-6835606D02*
G75*
G03*
X13634108Y-6835606I-150000J0D01*
G01*
X14629925Y-4723262D02*
G75*
G03*
X14629925Y-4723262I-150000J0D01*
G01*
X15049916Y-5072558D02*
G75*
G03*
X15049916Y-5072558I-150000J0D01*
G01*
X17283600Y-4723262D02*
G75*
G03*
X17283600Y-4723262I-150000J0D01*
G01*
X17824871Y-4796921D02*
G75*
G03*
X17824871Y-4796921I-150000J0D01*
G01*
X18555054Y-7796868D02*
G75*
G03*
X18555054Y-7796868I-150000J0D01*
G01*
X18628713Y-7255597D02*
G75*
G03*
X18628713Y-7255597I-150000J0D01*
G01*
X18961500Y-4044475D02*
G75*
G03*
X18961500Y-4044475I-150000J0D01*
G01*
X18987632Y-9256748D02*
G75*
G03*
X18987632Y-9256748I-150000J0D01*
G01*
X19430083Y-5678620D02*
G75*
G03*
X19430083Y-5678620I-150000J0D01*
G01*
X19487632Y-9476748D02*
G75*
G03*
X19487632Y-9476748I-150000J0D01*
G01*
X19502771Y-4118134D02*
G75*
G03*
X19502771Y-4118134I-150000J0D01*
G01*
X19898667Y-7312765D02*
G75*
G03*
X19898667Y-7312765I-150000J0D01*
G01*
X19971354Y-5752279D02*
G75*
G03*
X19971354Y-5752279I-150000J0D01*
G01*
X20439938Y-7386424D02*
G75*
G03*
X20439938Y-7386424I-150000J0D01*
G01*
X20636643Y-3356075D02*
G75*
G03*
X20636643Y-3356075I-150000J0D01*
G01*
X21105227Y-4990220D02*
G75*
G03*
X21105227Y-4990220I-150000J0D01*
G01*
X21177914Y-3429734D02*
G75*
G03*
X21177914Y-3429734I-150000J0D01*
G01*
X21232386Y-8698836D02*
G75*
G03*
X21232386Y-8698836I-150000J0D01*
G01*
X21573810Y-6624365D02*
G75*
G03*
X21573810Y-6624365I-150000J0D01*
G01*
X21646498Y-5063879D02*
G75*
G03*
X21646498Y-5063879I-150000J0D01*
G01*
X21773657Y-8772495D02*
G75*
G03*
X21773657Y-8772495I-150000J0D01*
G01*
X22115081Y-6698024D02*
G75*
G03*
X22115081Y-6698024I-150000J0D01*
G01*
X22201532Y-2283171D02*
G75*
G03*
X22201532Y-2283171I-150000J0D01*
G01*
X22670115Y-3917316D02*
G75*
G03*
X22670115Y-3917316I-150000J0D01*
G01*
X22742803Y-2356830D02*
G75*
G03*
X22742803Y-2356830I-150000J0D01*
G01*
X23138699Y-5551461D02*
G75*
G03*
X23138699Y-5551461I-150000J0D01*
G01*
X23211386Y-3990975D02*
G75*
G03*
X23211386Y-3990975I-150000J0D01*
G01*
X23607282Y-7185606D02*
G75*
G03*
X23607282Y-7185606I-150000J0D01*
G01*
X23679970Y-5625120D02*
G75*
G03*
X23679970Y-5625120I-150000J0D01*
G01*
X24069621Y-2267655D02*
G75*
G03*
X24069621Y-2267655I-150000J0D01*
G01*
X24148553Y-7259265D02*
G75*
G03*
X24148553Y-7259265I-150000J0D01*
G01*
X24538205Y-3901800D02*
G75*
G03*
X24538205Y-3901800I-150000J0D01*
G01*
X24610892Y-2341314D02*
G75*
G03*
X24610892Y-2341314I-150000J0D01*
G01*
X25006788Y-5535945D02*
G75*
G03*
X25006788Y-5535945I-150000J0D01*
G01*
X25079476Y-3975458D02*
G75*
G03*
X25079476Y-3975458I-150000J0D01*
G01*
X25548059Y-5609603D02*
G75*
G03*
X25548059Y-5609603I-150000J0D01*
G01*
X26442983Y-2899383D02*
G75*
G03*
X26442983Y-2899383I-150000J0D01*
G01*
X26767358Y-4568150D02*
G75*
G03*
X26767358Y-4568150I-150000J0D01*
G01*
X26975774Y-3019937D02*
G75*
G03*
X26975774Y-3019937I-150000J0D01*
G01*
X27091733Y-6236916D02*
G75*
G03*
X27091733Y-6236916I-150000J0D01*
G01*
X27300150Y-4688703D02*
G75*
G03*
X27300150Y-4688703I-150000J0D01*
G01*
X27624525Y-6357469D02*
G75*
G03*
X27624525Y-6357469I-150000J0D01*
G01*
X28372099Y-3390310D02*
G75*
G03*
X28372099Y-3390310I-150000J0D01*
G01*
X28696475Y-5059077D02*
G75*
G03*
X28696475Y-5059077I-150000J0D01*
G01*
X28904891Y-3510864D02*
G75*
G03*
X28904891Y-3510864I-150000J0D01*
G01*
X29229266Y-5179630D02*
G75*
G03*
X29229266Y-5179630I-150000J0D01*
G01*
D14*
X2953518Y-5471695D02*
X2953518Y-5814595D01*
X2782068Y-5643145D02*
X3124968Y-5643145D01*
X3277894Y-3802929D02*
X3277894Y-4145829D01*
X3106444Y-3974379D02*
X3449344Y-3974379D01*
X4558260Y-6649534D02*
X4558260Y-6992434D01*
X4386810Y-6820984D02*
X4729710Y-6820984D01*
X4882635Y-4980768D02*
X4882635Y-5323668D01*
X4711185Y-5152218D02*
X5054085Y-5152218D01*
X5207010Y-3312002D02*
X5207010Y-3654902D01*
X5035560Y-3483452D02*
X5378460Y-3483452D01*
X6592732Y-5936445D02*
X6592732Y-6279345D01*
X6421282Y-6107895D02*
X6764182Y-6107895D01*
X7061315Y-4302300D02*
X7061315Y-4645200D01*
X6889865Y-4473750D02*
X7232765Y-4473750D01*
X7529899Y-2668156D02*
X7529899Y-3011055D01*
X7358449Y-2839605D02*
X7701349Y-2839605D01*
X7992238Y-7586106D02*
X7992238Y-7929006D01*
X7820788Y-7757556D02*
X8163688Y-7757556D01*
X8460822Y-5951962D02*
X8460822Y-6294862D01*
X8289372Y-6123412D02*
X8632272Y-6123412D01*
X8929405Y-4317817D02*
X8929405Y-4660717D01*
X8757955Y-4489267D02*
X9100855Y-4489267D01*
X9397989Y-2683672D02*
X9397989Y-3026572D01*
X9226539Y-2855122D02*
X9569439Y-2855122D01*
X10025710Y-7024866D02*
X10025710Y-7367766D01*
X9854260Y-7196316D02*
X10197160Y-7196316D01*
X10367135Y-9099337D02*
X10367135Y-9442237D01*
X10195685Y-9270787D02*
X10538585Y-9270787D01*
X10494294Y-5390721D02*
X10494294Y-5733621D01*
X10322844Y-5562171D02*
X10665744Y-5562171D01*
X10962877Y-3756576D02*
X10962877Y-4099476D01*
X10791427Y-3928026D02*
X11134327Y-3928026D01*
X11700854Y-7713265D02*
X11700854Y-8056165D01*
X11529404Y-7884715D02*
X11872304Y-7884715D01*
X12169437Y-6079121D02*
X12169437Y-6422021D01*
X11997987Y-6250571D02*
X12340887Y-6250571D01*
X12638021Y-4444976D02*
X12638021Y-4787876D01*
X12466571Y-4616426D02*
X12809471Y-4616426D01*
X12775892Y-9680298D02*
X12775892Y-10023198D01*
X12604442Y-9851748D02*
X12947342Y-9851748D01*
X13706762Y-7248151D02*
X13706762Y-7591051D01*
X13535312Y-7419601D02*
X13878212Y-7419601D01*
X14315921Y-5123763D02*
X14315921Y-5466663D01*
X14144471Y-5295213D02*
X14487371Y-5295213D01*
X17297604Y-5123763D02*
X17297604Y-5466663D01*
X17126154Y-5295213D02*
X17469054Y-5295213D01*
X17906762Y-7248151D02*
X17906762Y-7591051D01*
X17735312Y-7419601D02*
X18078212Y-7419601D01*
X18837632Y-9680298D02*
X18837632Y-10023198D01*
X18666182Y-9851748D02*
X19009082Y-9851748D01*
X18975504Y-4444976D02*
X18975504Y-4787876D01*
X18804054Y-4616426D02*
X19146954Y-4616426D01*
X19444087Y-6079121D02*
X19444087Y-6422021D01*
X19272637Y-6250571D02*
X19615537Y-6250571D01*
X19912671Y-7713265D02*
X19912671Y-8056165D01*
X19741221Y-7884715D02*
X20084121Y-7884715D01*
X20650647Y-3756576D02*
X20650647Y-4099476D01*
X20479197Y-3928026D02*
X20822097Y-3928026D01*
X21119231Y-5390721D02*
X21119231Y-5733621D01*
X20947781Y-5562171D02*
X21290681Y-5562171D01*
X21246390Y-9099337D02*
X21246390Y-9442237D01*
X21074940Y-9270787D02*
X21417840Y-9270787D01*
X21587814Y-7024866D02*
X21587814Y-7367766D01*
X21416364Y-7196316D02*
X21759264Y-7196316D01*
X22215536Y-2683672D02*
X22215536Y-3026572D01*
X22044086Y-2855122D02*
X22386986Y-2855122D01*
X22684119Y-4317817D02*
X22684119Y-4660717D01*
X22512669Y-4489267D02*
X22855569Y-4489267D01*
X23152703Y-5951962D02*
X23152703Y-6294862D01*
X22981253Y-6123412D02*
X23324153Y-6123412D01*
X23621286Y-7586106D02*
X23621286Y-7929006D01*
X23449836Y-7757556D02*
X23792736Y-7757556D01*
X24083626Y-2668156D02*
X24083626Y-3011055D01*
X23912176Y-2839605D02*
X24255076Y-2839605D01*
X24552209Y-4302300D02*
X24552209Y-4645200D01*
X24380759Y-4473750D02*
X24723659Y-4473750D01*
X25020793Y-5936445D02*
X25020793Y-6279345D01*
X24849343Y-6107895D02*
X25192243Y-6107895D01*
X26406514Y-3312002D02*
X26406514Y-3654902D01*
X26235064Y-3483452D02*
X26577964Y-3483452D01*
X26730890Y-4980768D02*
X26730890Y-5323668D01*
X26559440Y-5152218D02*
X26902340Y-5152218D01*
X27055265Y-6649534D02*
X27055265Y-6992434D01*
X26883815Y-6820984D02*
X27226715Y-6820984D01*
X28335631Y-3802929D02*
X28335631Y-4145829D01*
X28164181Y-3974379D02*
X28507081Y-3974379D01*
X28660006Y-5471695D02*
X28660006Y-5814595D01*
X28488556Y-5643145D02*
X28831456Y-5643145D01*
D11*
X1853637Y-11311121D02*
X1853637Y-11111121D01*
X1901256Y-11111121D01*
X1929828Y-11120645D01*
X1948875Y-11139692D01*
X1958399Y-11158740D01*
X1967923Y-11196835D01*
X1967923Y-11225407D01*
X1958399Y-11263502D01*
X1948875Y-11282549D01*
X1929828Y-11301597D01*
X1901256Y-11311121D01*
X1853637Y-11311121D01*
X2053637Y-11311121D02*
X2053637Y-11177788D01*
X2053637Y-11215883D02*
X2063161Y-11196835D01*
X2072685Y-11187311D01*
X2091732Y-11177788D01*
X2110780Y-11177788D01*
X2177447Y-11311121D02*
X2177447Y-11177788D01*
X2177447Y-11111121D02*
X2167923Y-11120645D01*
X2177447Y-11130169D01*
X2186971Y-11120645D01*
X2177447Y-11111121D01*
X2177447Y-11130169D01*
X2301256Y-11311121D02*
X2282209Y-11301597D01*
X2272685Y-11282549D01*
X2272685Y-11111121D01*
X2406018Y-11311121D02*
X2386971Y-11301597D01*
X2377447Y-11282549D01*
X2377447Y-11111121D01*
X2634590Y-11311121D02*
X2634590Y-11111121D01*
X2701256Y-11253978D01*
X2767923Y-11111121D01*
X2767923Y-11311121D01*
X2948875Y-11311121D02*
X2948875Y-11206359D01*
X2939352Y-11187311D01*
X2920304Y-11177788D01*
X2882209Y-11177788D01*
X2863161Y-11187311D01*
X2948875Y-11301597D02*
X2929828Y-11311121D01*
X2882209Y-11311121D01*
X2863161Y-11301597D01*
X2853637Y-11282549D01*
X2853637Y-11263502D01*
X2863161Y-11244454D01*
X2882209Y-11234930D01*
X2929828Y-11234930D01*
X2948875Y-11225407D01*
X3044113Y-11177788D02*
X3044113Y-11377788D01*
X3044113Y-11187311D02*
X3063161Y-11177788D01*
X3101256Y-11177788D01*
X3120304Y-11187311D01*
X3129828Y-11196835D01*
X3139352Y-11215883D01*
X3139352Y-11273026D01*
X3129828Y-11292073D01*
X3120304Y-11301597D01*
X3101256Y-11311121D01*
X3063161Y-11311121D01*
X3044113Y-11301597D01*
X3225066Y-11292073D02*
X3234590Y-11301597D01*
X3225066Y-11311121D01*
X3215542Y-11301597D01*
X3225066Y-11292073D01*
X3225066Y-11311121D01*
X3225066Y-11187311D02*
X3234590Y-11196835D01*
X3225066Y-11206359D01*
X3215542Y-11196835D01*
X3225066Y-11187311D01*
X3225066Y-11206359D01*
D12*
X1425838Y-11555555D02*
X1596018Y-11725735D01*
X1596018Y-11555555D02*
X1425838Y-11725735D01*
D11*
X1958399Y-11731121D02*
X1844113Y-11731121D01*
X1901256Y-11731121D02*
X1901256Y-11531121D01*
X1882209Y-11559692D01*
X1863161Y-11578740D01*
X1844113Y-11588264D01*
X2044113Y-11712073D02*
X2053637Y-11721597D01*
X2044113Y-11731121D01*
X2034590Y-11721597D01*
X2044113Y-11712073D01*
X2044113Y-11731121D01*
X2120304Y-11531121D02*
X2253637Y-11531121D01*
X2167923Y-11731121D01*
X2367923Y-11531121D02*
X2386971Y-11531121D01*
X2406018Y-11540645D01*
X2415542Y-11550169D01*
X2425066Y-11569216D01*
X2434590Y-11607311D01*
X2434590Y-11654930D01*
X2425066Y-11693026D01*
X2415542Y-11712073D01*
X2406018Y-11721597D01*
X2386971Y-11731121D01*
X2367923Y-11731121D01*
X2348875Y-11721597D01*
X2339352Y-11712073D01*
X2329828Y-11693026D01*
X2320304Y-11654930D01*
X2320304Y-11607311D01*
X2329828Y-11569216D01*
X2339352Y-11550169D01*
X2348875Y-11540645D01*
X2367923Y-11531121D01*
X2510780Y-11550169D02*
X2520304Y-11540645D01*
X2539352Y-11531121D01*
X2586971Y-11531121D01*
X2606018Y-11540645D01*
X2615542Y-11550169D01*
X2625066Y-11569216D01*
X2625066Y-11588264D01*
X2615542Y-11616835D01*
X2501256Y-11731121D01*
X2625066Y-11731121D01*
X2710780Y-11731121D02*
X2710780Y-11597788D01*
X2710780Y-11616835D02*
X2720304Y-11607311D01*
X2739352Y-11597788D01*
X2767923Y-11597788D01*
X2786971Y-11607311D01*
X2796494Y-11626359D01*
X2796494Y-11731121D01*
X2796494Y-11626359D02*
X2806018Y-11607311D01*
X2825066Y-11597788D01*
X2853637Y-11597788D01*
X2872685Y-11607311D01*
X2882209Y-11626359D01*
X2882209Y-11731121D01*
X2977447Y-11731121D02*
X2977447Y-11597788D01*
X2977447Y-11616835D02*
X2986971Y-11607311D01*
X3006018Y-11597788D01*
X3034590Y-11597788D01*
X3053637Y-11607311D01*
X3063161Y-11626359D01*
X3063161Y-11731121D01*
X3063161Y-11626359D02*
X3072685Y-11607311D01*
X3091732Y-11597788D01*
X3120304Y-11597788D01*
X3139352Y-11607311D01*
X3148875Y-11626359D01*
X3148875Y-11731121D01*
X3539352Y-11521597D02*
X3367923Y-11778740D01*
X3796494Y-11531121D02*
X3815542Y-11531121D01*
X3834590Y-11540645D01*
X3844113Y-11550169D01*
X3853637Y-11569216D01*
X3863161Y-11607311D01*
X3863161Y-11654930D01*
X3853637Y-11693026D01*
X3844113Y-11712073D01*
X3834590Y-11721597D01*
X3815542Y-11731121D01*
X3796494Y-11731121D01*
X3777447Y-11721597D01*
X3767923Y-11712073D01*
X3758399Y-11693026D01*
X3748875Y-11654930D01*
X3748875Y-11607311D01*
X3758399Y-11569216D01*
X3767923Y-11550169D01*
X3777447Y-11540645D01*
X3796494Y-11531121D01*
X3948875Y-11712073D02*
X3958399Y-11721597D01*
X3948875Y-11731121D01*
X3939352Y-11721597D01*
X3948875Y-11712073D01*
X3948875Y-11731121D01*
X4082209Y-11531121D02*
X4101256Y-11531121D01*
X4120304Y-11540645D01*
X4129828Y-11550169D01*
X4139352Y-11569216D01*
X4148875Y-11607311D01*
X4148875Y-11654930D01*
X4139352Y-11693026D01*
X4129828Y-11712073D01*
X4120304Y-11721597D01*
X4101256Y-11731121D01*
X4082209Y-11731121D01*
X4063161Y-11721597D01*
X4053637Y-11712073D01*
X4044113Y-11693026D01*
X4034590Y-11654930D01*
X4034590Y-11607311D01*
X4044113Y-11569216D01*
X4053637Y-11550169D01*
X4063161Y-11540645D01*
X4082209Y-11531121D01*
X4320304Y-11531121D02*
X4282209Y-11531121D01*
X4263161Y-11540645D01*
X4253637Y-11550169D01*
X4234590Y-11578740D01*
X4225066Y-11616835D01*
X4225066Y-11693026D01*
X4234590Y-11712073D01*
X4244114Y-11721597D01*
X4263161Y-11731121D01*
X4301256Y-11731121D01*
X4320304Y-11721597D01*
X4329828Y-11712073D01*
X4339352Y-11693026D01*
X4339352Y-11645407D01*
X4329828Y-11626359D01*
X4320304Y-11616835D01*
X4301256Y-11607311D01*
X4263161Y-11607311D01*
X4244114Y-11616835D01*
X4234590Y-11626359D01*
X4225066Y-11645407D01*
X4406018Y-11531121D02*
X4539352Y-11531121D01*
X4453637Y-11731121D01*
X4653637Y-11531121D02*
X4672685Y-11531121D01*
X4691733Y-11540645D01*
X4701256Y-11550169D01*
X4710780Y-11569216D01*
X4720304Y-11607311D01*
X4720304Y-11654930D01*
X4710780Y-11693026D01*
X4701256Y-11712073D01*
X4691733Y-11721597D01*
X4672685Y-11731121D01*
X4653637Y-11731121D01*
X4634590Y-11721597D01*
X4625066Y-11712073D01*
X4615542Y-11693026D01*
X4606018Y-11654930D01*
X4606018Y-11607311D01*
X4615542Y-11569216D01*
X4625066Y-11550169D01*
X4634590Y-11540645D01*
X4653637Y-11531121D01*
X4796494Y-11531121D02*
X4796494Y-11569216D01*
X4872685Y-11531121D02*
X4872685Y-11569216D01*
X5167923Y-11807311D02*
X5158399Y-11797788D01*
X5139352Y-11769216D01*
X5129828Y-11750169D01*
X5120304Y-11721597D01*
X5110780Y-11673978D01*
X5110780Y-11635883D01*
X5120304Y-11588264D01*
X5129828Y-11559692D01*
X5139352Y-11540645D01*
X5158399Y-11512073D01*
X5167923Y-11502549D01*
X5272685Y-11616835D02*
X5253637Y-11607311D01*
X5244114Y-11597788D01*
X5234590Y-11578740D01*
X5234590Y-11569216D01*
X5244114Y-11550169D01*
X5253637Y-11540645D01*
X5272685Y-11531121D01*
X5310780Y-11531121D01*
X5329828Y-11540645D01*
X5339352Y-11550169D01*
X5348875Y-11569216D01*
X5348875Y-11578740D01*
X5339352Y-11597788D01*
X5329828Y-11607311D01*
X5310780Y-11616835D01*
X5272685Y-11616835D01*
X5253637Y-11626359D01*
X5244114Y-11635883D01*
X5234590Y-11654930D01*
X5234590Y-11693026D01*
X5244114Y-11712073D01*
X5253637Y-11721597D01*
X5272685Y-11731121D01*
X5310780Y-11731121D01*
X5329828Y-11721597D01*
X5339352Y-11712073D01*
X5348875Y-11693026D01*
X5348875Y-11654930D01*
X5339352Y-11635883D01*
X5329828Y-11626359D01*
X5310780Y-11616835D01*
X5463161Y-11616835D02*
X5444114Y-11607311D01*
X5434590Y-11597788D01*
X5425066Y-11578740D01*
X5425066Y-11569216D01*
X5434590Y-11550169D01*
X5444114Y-11540645D01*
X5463161Y-11531121D01*
X5501256Y-11531121D01*
X5520304Y-11540645D01*
X5529828Y-11550169D01*
X5539352Y-11569216D01*
X5539352Y-11578740D01*
X5529828Y-11597788D01*
X5520304Y-11607311D01*
X5501256Y-11616835D01*
X5463161Y-11616835D01*
X5444114Y-11626359D01*
X5434590Y-11635883D01*
X5425066Y-11654930D01*
X5425066Y-11693026D01*
X5434590Y-11712073D01*
X5444114Y-11721597D01*
X5463161Y-11731121D01*
X5501256Y-11731121D01*
X5520304Y-11721597D01*
X5529828Y-11712073D01*
X5539352Y-11693026D01*
X5539352Y-11654930D01*
X5529828Y-11635883D01*
X5520304Y-11626359D01*
X5501256Y-11616835D01*
X5777447Y-11731121D02*
X5777447Y-11531121D01*
X5863161Y-11731121D02*
X5863161Y-11626359D01*
X5853637Y-11607311D01*
X5834590Y-11597788D01*
X5806018Y-11597788D01*
X5786971Y-11607311D01*
X5777447Y-11616835D01*
X5986971Y-11731121D02*
X5967923Y-11721597D01*
X5958399Y-11712073D01*
X5948875Y-11693026D01*
X5948875Y-11635883D01*
X5958399Y-11616835D01*
X5967923Y-11607311D01*
X5986971Y-11597788D01*
X6015542Y-11597788D01*
X6034590Y-11607311D01*
X6044113Y-11616835D01*
X6053637Y-11635883D01*
X6053637Y-11693026D01*
X6044113Y-11712073D01*
X6034590Y-11721597D01*
X6015542Y-11731121D01*
X5986971Y-11731121D01*
X6167923Y-11731121D02*
X6148875Y-11721597D01*
X6139352Y-11702549D01*
X6139352Y-11531121D01*
X6320304Y-11721597D02*
X6301256Y-11731121D01*
X6263161Y-11731121D01*
X6244113Y-11721597D01*
X6234590Y-11702549D01*
X6234590Y-11626359D01*
X6244113Y-11607311D01*
X6263161Y-11597788D01*
X6301256Y-11597788D01*
X6320304Y-11607311D01*
X6329828Y-11626359D01*
X6329828Y-11645407D01*
X6234590Y-11664454D01*
X6406018Y-11721597D02*
X6425066Y-11731121D01*
X6463161Y-11731121D01*
X6482209Y-11721597D01*
X6491732Y-11702549D01*
X6491732Y-11693026D01*
X6482209Y-11673978D01*
X6463161Y-11664454D01*
X6434590Y-11664454D01*
X6415542Y-11654930D01*
X6406018Y-11635883D01*
X6406018Y-11626359D01*
X6415542Y-11607311D01*
X6434590Y-11597788D01*
X6463161Y-11597788D01*
X6482209Y-11607311D01*
X6558399Y-11807311D02*
X6567923Y-11797788D01*
X6586971Y-11769216D01*
X6596494Y-11750169D01*
X6606018Y-11721597D01*
X6615542Y-11673978D01*
X6615542Y-11635883D01*
X6606018Y-11588264D01*
X6596494Y-11559692D01*
X6586971Y-11540645D01*
X6567923Y-11512073D01*
X6558399Y-11502549D01*
X6920304Y-11807311D02*
X6910780Y-11797788D01*
X6891732Y-11769216D01*
X6882209Y-11750169D01*
X6872685Y-11721597D01*
X6863161Y-11673978D01*
X6863161Y-11635883D01*
X6872685Y-11588264D01*
X6882209Y-11559692D01*
X6891732Y-11540645D01*
X6910780Y-11512073D01*
X6920304Y-11502549D01*
X6996494Y-11597788D02*
X6996494Y-11731121D01*
X6996494Y-11616835D02*
X7006018Y-11607311D01*
X7025066Y-11597788D01*
X7053637Y-11597788D01*
X7072685Y-11607311D01*
X7082209Y-11626359D01*
X7082209Y-11731121D01*
X7206018Y-11731121D02*
X7186971Y-11721597D01*
X7177447Y-11712073D01*
X7167923Y-11693026D01*
X7167923Y-11635883D01*
X7177447Y-11616835D01*
X7186971Y-11607311D01*
X7206018Y-11597788D01*
X7234590Y-11597788D01*
X7253637Y-11607311D01*
X7263161Y-11616835D01*
X7272685Y-11635883D01*
X7272685Y-11693026D01*
X7263161Y-11712073D01*
X7253637Y-11721597D01*
X7234590Y-11731121D01*
X7206018Y-11731121D01*
X7329828Y-11597788D02*
X7406018Y-11597788D01*
X7358399Y-11531121D02*
X7358399Y-11702549D01*
X7367923Y-11721597D01*
X7386971Y-11731121D01*
X7406018Y-11731121D01*
X7625066Y-11597788D02*
X7625066Y-11797788D01*
X7625066Y-11607311D02*
X7644113Y-11597788D01*
X7682209Y-11597788D01*
X7701256Y-11607311D01*
X7710780Y-11616835D01*
X7720304Y-11635883D01*
X7720304Y-11693026D01*
X7710780Y-11712073D01*
X7701256Y-11721597D01*
X7682209Y-11731121D01*
X7644113Y-11731121D01*
X7625066Y-11721597D01*
X7834590Y-11731121D02*
X7815542Y-11721597D01*
X7806018Y-11702549D01*
X7806018Y-11531121D01*
X7996494Y-11731121D02*
X7996494Y-11626359D01*
X7986971Y-11607311D01*
X7967923Y-11597788D01*
X7929828Y-11597788D01*
X7910780Y-11607311D01*
X7996494Y-11721597D02*
X7977447Y-11731121D01*
X7929828Y-11731121D01*
X7910780Y-11721597D01*
X7901256Y-11702549D01*
X7901256Y-11683502D01*
X7910780Y-11664454D01*
X7929828Y-11654930D01*
X7977447Y-11654930D01*
X7996494Y-11645407D01*
X8063161Y-11597788D02*
X8139352Y-11597788D01*
X8091732Y-11531121D02*
X8091732Y-11702549D01*
X8101256Y-11721597D01*
X8120304Y-11731121D01*
X8139352Y-11731121D01*
X8282209Y-11721597D02*
X8263161Y-11731121D01*
X8225066Y-11731121D01*
X8206018Y-11721597D01*
X8196494Y-11702549D01*
X8196494Y-11626359D01*
X8206018Y-11607311D01*
X8225066Y-11597788D01*
X8263161Y-11597788D01*
X8282209Y-11607311D01*
X8291732Y-11626359D01*
X8291732Y-11645407D01*
X8196494Y-11664454D01*
X8463161Y-11731121D02*
X8463161Y-11531121D01*
X8463161Y-11721597D02*
X8444114Y-11731121D01*
X8406018Y-11731121D01*
X8386971Y-11721597D01*
X8377447Y-11712073D01*
X8367923Y-11693026D01*
X8367923Y-11635883D01*
X8377447Y-11616835D01*
X8386971Y-11607311D01*
X8406018Y-11597788D01*
X8444114Y-11597788D01*
X8463161Y-11607311D01*
X8539352Y-11807311D02*
X8548875Y-11797788D01*
X8567923Y-11769216D01*
X8577447Y-11750169D01*
X8586971Y-11721597D01*
X8596494Y-11673978D01*
X8596494Y-11635883D01*
X8586971Y-11588264D01*
X8577447Y-11559692D01*
X8567923Y-11540645D01*
X8548875Y-11512073D01*
X8539352Y-11502549D01*
X1596018Y-11930825D02*
G75*
G03*
X1596018Y-11930825I-100000J0D01*
G01*
X1834590Y-11821301D02*
X1958399Y-11821301D01*
X1891732Y-11897491D01*
X1920304Y-11897491D01*
X1939352Y-11907015D01*
X1948875Y-11916539D01*
X1958399Y-11935587D01*
X1958399Y-11983206D01*
X1948875Y-12002253D01*
X1939352Y-12011777D01*
X1920304Y-12021301D01*
X1863161Y-12021301D01*
X1844113Y-12011777D01*
X1834590Y-12002253D01*
X2044113Y-12002253D02*
X2053637Y-12011777D01*
X2044113Y-12021301D01*
X2034590Y-12011777D01*
X2044113Y-12002253D01*
X2044113Y-12021301D01*
X2177447Y-11821301D02*
X2196494Y-11821301D01*
X2215542Y-11830825D01*
X2225066Y-11840349D01*
X2234590Y-11859396D01*
X2244114Y-11897491D01*
X2244114Y-11945110D01*
X2234590Y-11983206D01*
X2225066Y-12002253D01*
X2215542Y-12011777D01*
X2196494Y-12021301D01*
X2177447Y-12021301D01*
X2158399Y-12011777D01*
X2148875Y-12002253D01*
X2139352Y-11983206D01*
X2129828Y-11945110D01*
X2129828Y-11897491D01*
X2139352Y-11859396D01*
X2148875Y-11840349D01*
X2158399Y-11830825D01*
X2177447Y-11821301D01*
X2367923Y-11821301D02*
X2386971Y-11821301D01*
X2406018Y-11830825D01*
X2415542Y-11840349D01*
X2425066Y-11859396D01*
X2434590Y-11897491D01*
X2434590Y-11945110D01*
X2425066Y-11983206D01*
X2415542Y-12002253D01*
X2406018Y-12011777D01*
X2386971Y-12021301D01*
X2367923Y-12021301D01*
X2348875Y-12011777D01*
X2339352Y-12002253D01*
X2329828Y-11983206D01*
X2320304Y-11945110D01*
X2320304Y-11897491D01*
X2329828Y-11859396D01*
X2339352Y-11840349D01*
X2348875Y-11830825D01*
X2367923Y-11821301D01*
X2558399Y-11821301D02*
X2577447Y-11821301D01*
X2596494Y-11830825D01*
X2606018Y-11840349D01*
X2615542Y-11859396D01*
X2625066Y-11897491D01*
X2625066Y-11945110D01*
X2615542Y-11983206D01*
X2606018Y-12002253D01*
X2596494Y-12011777D01*
X2577447Y-12021301D01*
X2558399Y-12021301D01*
X2539352Y-12011777D01*
X2529828Y-12002253D01*
X2520304Y-11983206D01*
X2510780Y-11945110D01*
X2510780Y-11897491D01*
X2520304Y-11859396D01*
X2529828Y-11840349D01*
X2539352Y-11830825D01*
X2558399Y-11821301D01*
X2710780Y-12021301D02*
X2710780Y-11887968D01*
X2710780Y-11907015D02*
X2720304Y-11897491D01*
X2739352Y-11887968D01*
X2767923Y-11887968D01*
X2786971Y-11897491D01*
X2796494Y-11916539D01*
X2796494Y-12021301D01*
X2796494Y-11916539D02*
X2806018Y-11897491D01*
X2825066Y-11887968D01*
X2853637Y-11887968D01*
X2872685Y-11897491D01*
X2882209Y-11916539D01*
X2882209Y-12021301D01*
X2977447Y-12021301D02*
X2977447Y-11887968D01*
X2977447Y-11907015D02*
X2986971Y-11897491D01*
X3006018Y-11887968D01*
X3034590Y-11887968D01*
X3053637Y-11897491D01*
X3063161Y-11916539D01*
X3063161Y-12021301D01*
X3063161Y-11916539D02*
X3072685Y-11897491D01*
X3091732Y-11887968D01*
X3120304Y-11887968D01*
X3139352Y-11897491D01*
X3148875Y-11916539D01*
X3148875Y-12021301D01*
X3539352Y-11811777D02*
X3367923Y-12068920D01*
X3796494Y-11821301D02*
X3815542Y-11821301D01*
X3834590Y-11830825D01*
X3844113Y-11840349D01*
X3853637Y-11859396D01*
X3863161Y-11897491D01*
X3863161Y-11945110D01*
X3853637Y-11983206D01*
X3844113Y-12002253D01*
X3834590Y-12011777D01*
X3815542Y-12021301D01*
X3796494Y-12021301D01*
X3777447Y-12011777D01*
X3767923Y-12002253D01*
X3758399Y-11983206D01*
X3748875Y-11945110D01*
X3748875Y-11897491D01*
X3758399Y-11859396D01*
X3767923Y-11840349D01*
X3777447Y-11830825D01*
X3796494Y-11821301D01*
X3948875Y-12002253D02*
X3958399Y-12011777D01*
X3948875Y-12021301D01*
X3939352Y-12011777D01*
X3948875Y-12002253D01*
X3948875Y-12021301D01*
X4148875Y-12021301D02*
X4034590Y-12021301D01*
X4091732Y-12021301D02*
X4091732Y-11821301D01*
X4072685Y-11849872D01*
X4053637Y-11868920D01*
X4034590Y-11878444D01*
X4339352Y-12021301D02*
X4225066Y-12021301D01*
X4282209Y-12021301D02*
X4282209Y-11821301D01*
X4263161Y-11849872D01*
X4244114Y-11868920D01*
X4225066Y-11878444D01*
X4453637Y-11907015D02*
X4434590Y-11897491D01*
X4425066Y-11887968D01*
X4415542Y-11868920D01*
X4415542Y-11859396D01*
X4425066Y-11840349D01*
X4434590Y-11830825D01*
X4453637Y-11821301D01*
X4491733Y-11821301D01*
X4510780Y-11830825D01*
X4520304Y-11840349D01*
X4529828Y-11859396D01*
X4529828Y-11868920D01*
X4520304Y-11887968D01*
X4510780Y-11897491D01*
X4491733Y-11907015D01*
X4453637Y-11907015D01*
X4434590Y-11916539D01*
X4425066Y-11926063D01*
X4415542Y-11945110D01*
X4415542Y-11983206D01*
X4425066Y-12002253D01*
X4434590Y-12011777D01*
X4453637Y-12021301D01*
X4491733Y-12021301D01*
X4510780Y-12011777D01*
X4520304Y-12002253D01*
X4529828Y-11983206D01*
X4529828Y-11945110D01*
X4520304Y-11926063D01*
X4510780Y-11916539D01*
X4491733Y-11907015D01*
X4720304Y-12021301D02*
X4606018Y-12021301D01*
X4663161Y-12021301D02*
X4663161Y-11821301D01*
X4644114Y-11849872D01*
X4625066Y-11868920D01*
X4606018Y-11878444D01*
X4796494Y-11821301D02*
X4796494Y-11859396D01*
X4872685Y-11821301D02*
X4872685Y-11859396D01*
X5167923Y-12097491D02*
X5158399Y-12087968D01*
X5139352Y-12059396D01*
X5129828Y-12040349D01*
X5120304Y-12011777D01*
X5110780Y-11964158D01*
X5110780Y-11926063D01*
X5120304Y-11878444D01*
X5129828Y-11849872D01*
X5139352Y-11830825D01*
X5158399Y-11802253D01*
X5167923Y-11792729D01*
X5272685Y-11907015D02*
X5253637Y-11897491D01*
X5244114Y-11887968D01*
X5234590Y-11868920D01*
X5234590Y-11859396D01*
X5244114Y-11840349D01*
X5253637Y-11830825D01*
X5272685Y-11821301D01*
X5310780Y-11821301D01*
X5329828Y-11830825D01*
X5339352Y-11840349D01*
X5348875Y-11859396D01*
X5348875Y-11868920D01*
X5339352Y-11887968D01*
X5329828Y-11897491D01*
X5310780Y-11907015D01*
X5272685Y-11907015D01*
X5253637Y-11916539D01*
X5244114Y-11926063D01*
X5234590Y-11945110D01*
X5234590Y-11983206D01*
X5244114Y-12002253D01*
X5253637Y-12011777D01*
X5272685Y-12021301D01*
X5310780Y-12021301D01*
X5329828Y-12011777D01*
X5339352Y-12002253D01*
X5348875Y-11983206D01*
X5348875Y-11945110D01*
X5339352Y-11926063D01*
X5329828Y-11916539D01*
X5310780Y-11907015D01*
X5463161Y-11907015D02*
X5444114Y-11897491D01*
X5434590Y-11887968D01*
X5425066Y-11868920D01*
X5425066Y-11859396D01*
X5434590Y-11840349D01*
X5444114Y-11830825D01*
X5463161Y-11821301D01*
X5501256Y-11821301D01*
X5520304Y-11830825D01*
X5529828Y-11840349D01*
X5539352Y-11859396D01*
X5539352Y-11868920D01*
X5529828Y-11887968D01*
X5520304Y-11897491D01*
X5501256Y-11907015D01*
X5463161Y-11907015D01*
X5444114Y-11916539D01*
X5434590Y-11926063D01*
X5425066Y-11945110D01*
X5425066Y-11983206D01*
X5434590Y-12002253D01*
X5444114Y-12011777D01*
X5463161Y-12021301D01*
X5501256Y-12021301D01*
X5520304Y-12011777D01*
X5529828Y-12002253D01*
X5539352Y-11983206D01*
X5539352Y-11945110D01*
X5529828Y-11926063D01*
X5520304Y-11916539D01*
X5501256Y-11907015D01*
X5777447Y-12021301D02*
X5777447Y-11821301D01*
X5863161Y-12021301D02*
X5863161Y-11916539D01*
X5853637Y-11897491D01*
X5834590Y-11887968D01*
X5806018Y-11887968D01*
X5786971Y-11897491D01*
X5777447Y-11907015D01*
X5986971Y-12021301D02*
X5967923Y-12011777D01*
X5958399Y-12002253D01*
X5948875Y-11983206D01*
X5948875Y-11926063D01*
X5958399Y-11907015D01*
X5967923Y-11897491D01*
X5986971Y-11887968D01*
X6015542Y-11887968D01*
X6034590Y-11897491D01*
X6044113Y-11907015D01*
X6053637Y-11926063D01*
X6053637Y-11983206D01*
X6044113Y-12002253D01*
X6034590Y-12011777D01*
X6015542Y-12021301D01*
X5986971Y-12021301D01*
X6167923Y-12021301D02*
X6148875Y-12011777D01*
X6139352Y-11992729D01*
X6139352Y-11821301D01*
X6320304Y-12011777D02*
X6301256Y-12021301D01*
X6263161Y-12021301D01*
X6244113Y-12011777D01*
X6234590Y-11992729D01*
X6234590Y-11916539D01*
X6244113Y-11897491D01*
X6263161Y-11887968D01*
X6301256Y-11887968D01*
X6320304Y-11897491D01*
X6329828Y-11916539D01*
X6329828Y-11935587D01*
X6234590Y-11954634D01*
X6406018Y-12011777D02*
X6425066Y-12021301D01*
X6463161Y-12021301D01*
X6482209Y-12011777D01*
X6491732Y-11992729D01*
X6491732Y-11983206D01*
X6482209Y-11964158D01*
X6463161Y-11954634D01*
X6434590Y-11954634D01*
X6415542Y-11945110D01*
X6406018Y-11926063D01*
X6406018Y-11916539D01*
X6415542Y-11897491D01*
X6434590Y-11887968D01*
X6463161Y-11887968D01*
X6482209Y-11897491D01*
X6558399Y-12097491D02*
X6567923Y-12087968D01*
X6586971Y-12059396D01*
X6596494Y-12040349D01*
X6606018Y-12011777D01*
X6615542Y-11964158D01*
X6615542Y-11926063D01*
X6606018Y-11878444D01*
X6596494Y-11849872D01*
X6586971Y-11830825D01*
X6567923Y-11802253D01*
X6558399Y-11792729D01*
X6920304Y-12097491D02*
X6910780Y-12087968D01*
X6891732Y-12059396D01*
X6882209Y-12040349D01*
X6872685Y-12011777D01*
X6863161Y-11964158D01*
X6863161Y-11926063D01*
X6872685Y-11878444D01*
X6882209Y-11849872D01*
X6891732Y-11830825D01*
X6910780Y-11802253D01*
X6920304Y-11792729D01*
X6996494Y-11887968D02*
X6996494Y-12021301D01*
X6996494Y-11907015D02*
X7006018Y-11897491D01*
X7025066Y-11887968D01*
X7053637Y-11887968D01*
X7072685Y-11897491D01*
X7082209Y-11916539D01*
X7082209Y-12021301D01*
X7206018Y-12021301D02*
X7186971Y-12011777D01*
X7177447Y-12002253D01*
X7167923Y-11983206D01*
X7167923Y-11926063D01*
X7177447Y-11907015D01*
X7186971Y-11897491D01*
X7206018Y-11887968D01*
X7234590Y-11887968D01*
X7253637Y-11897491D01*
X7263161Y-11907015D01*
X7272685Y-11926063D01*
X7272685Y-11983206D01*
X7263161Y-12002253D01*
X7253637Y-12011777D01*
X7234590Y-12021301D01*
X7206018Y-12021301D01*
X7329828Y-11887968D02*
X7406018Y-11887968D01*
X7358399Y-11821301D02*
X7358399Y-11992729D01*
X7367923Y-12011777D01*
X7386971Y-12021301D01*
X7406018Y-12021301D01*
X7625066Y-11887968D02*
X7625066Y-12087968D01*
X7625066Y-11897491D02*
X7644113Y-11887968D01*
X7682209Y-11887968D01*
X7701256Y-11897491D01*
X7710780Y-11907015D01*
X7720304Y-11926063D01*
X7720304Y-11983206D01*
X7710780Y-12002253D01*
X7701256Y-12011777D01*
X7682209Y-12021301D01*
X7644113Y-12021301D01*
X7625066Y-12011777D01*
X7834590Y-12021301D02*
X7815542Y-12011777D01*
X7806018Y-11992729D01*
X7806018Y-11821301D01*
X7996494Y-12021301D02*
X7996494Y-11916539D01*
X7986971Y-11897491D01*
X7967923Y-11887968D01*
X7929828Y-11887968D01*
X7910780Y-11897491D01*
X7996494Y-12011777D02*
X7977447Y-12021301D01*
X7929828Y-12021301D01*
X7910780Y-12011777D01*
X7901256Y-11992729D01*
X7901256Y-11973682D01*
X7910780Y-11954634D01*
X7929828Y-11945110D01*
X7977447Y-11945110D01*
X7996494Y-11935587D01*
X8063161Y-11887968D02*
X8139352Y-11887968D01*
X8091732Y-11821301D02*
X8091732Y-11992729D01*
X8101256Y-12011777D01*
X8120304Y-12021301D01*
X8139352Y-12021301D01*
X8282209Y-12011777D02*
X8263161Y-12021301D01*
X8225066Y-12021301D01*
X8206018Y-12011777D01*
X8196494Y-11992729D01*
X8196494Y-11916539D01*
X8206018Y-11897491D01*
X8225066Y-11887968D01*
X8263161Y-11887968D01*
X8282209Y-11897491D01*
X8291732Y-11916539D01*
X8291732Y-11935587D01*
X8196494Y-11954634D01*
X8463161Y-12021301D02*
X8463161Y-11821301D01*
X8463161Y-12011777D02*
X8444114Y-12021301D01*
X8406018Y-12021301D01*
X8386971Y-12011777D01*
X8377447Y-12002253D01*
X8367923Y-11983206D01*
X8367923Y-11926063D01*
X8377447Y-11907015D01*
X8386971Y-11897491D01*
X8406018Y-11887968D01*
X8444114Y-11887968D01*
X8463161Y-11897491D01*
X8539352Y-12097491D02*
X8548875Y-12087968D01*
X8567923Y-12059396D01*
X8577447Y-12040349D01*
X8586971Y-12011777D01*
X8596494Y-11964158D01*
X8596494Y-11926063D01*
X8586971Y-11878444D01*
X8577447Y-11849872D01*
X8567923Y-11830825D01*
X8548875Y-11802253D01*
X8539352Y-11792729D01*
X1496018Y-12150825D02*
X1496018Y-12350825D01*
X1396018Y-12250825D02*
X1596018Y-12250825D01*
X1834590Y-12141301D02*
X1958399Y-12141301D01*
X1891732Y-12217491D01*
X1920304Y-12217491D01*
X1939352Y-12227015D01*
X1948875Y-12236539D01*
X1958399Y-12255587D01*
X1958399Y-12303206D01*
X1948875Y-12322253D01*
X1939352Y-12331777D01*
X1920304Y-12341301D01*
X1863161Y-12341301D01*
X1844113Y-12331777D01*
X1834590Y-12322253D01*
X2044113Y-12322253D02*
X2053637Y-12331777D01*
X2044113Y-12341301D01*
X2034590Y-12331777D01*
X2044113Y-12322253D01*
X2044113Y-12341301D01*
X2225066Y-12207968D02*
X2225066Y-12341301D01*
X2177447Y-12131777D02*
X2129828Y-12274634D01*
X2253637Y-12274634D01*
X2320304Y-12160349D02*
X2329828Y-12150825D01*
X2348875Y-12141301D01*
X2396494Y-12141301D01*
X2415542Y-12150825D01*
X2425066Y-12160349D01*
X2434590Y-12179396D01*
X2434590Y-12198444D01*
X2425066Y-12227015D01*
X2310780Y-12341301D01*
X2434590Y-12341301D01*
X2529828Y-12341301D02*
X2567923Y-12341301D01*
X2586971Y-12331777D01*
X2596494Y-12322253D01*
X2615542Y-12293682D01*
X2625066Y-12255587D01*
X2625066Y-12179396D01*
X2615542Y-12160349D01*
X2606018Y-12150825D01*
X2586971Y-12141301D01*
X2548875Y-12141301D01*
X2529828Y-12150825D01*
X2520304Y-12160349D01*
X2510780Y-12179396D01*
X2510780Y-12227015D01*
X2520304Y-12246063D01*
X2529828Y-12255587D01*
X2548875Y-12265110D01*
X2586971Y-12265110D01*
X2606018Y-12255587D01*
X2615542Y-12246063D01*
X2625066Y-12227015D01*
X2710780Y-12341301D02*
X2710780Y-12207968D01*
X2710780Y-12227015D02*
X2720304Y-12217491D01*
X2739352Y-12207968D01*
X2767923Y-12207968D01*
X2786971Y-12217491D01*
X2796494Y-12236539D01*
X2796494Y-12341301D01*
X2796494Y-12236539D02*
X2806018Y-12217491D01*
X2825066Y-12207968D01*
X2853637Y-12207968D01*
X2872685Y-12217491D01*
X2882209Y-12236539D01*
X2882209Y-12341301D01*
X2977447Y-12341301D02*
X2977447Y-12207968D01*
X2977447Y-12227015D02*
X2986971Y-12217491D01*
X3006018Y-12207968D01*
X3034590Y-12207968D01*
X3053637Y-12217491D01*
X3063161Y-12236539D01*
X3063161Y-12341301D01*
X3063161Y-12236539D02*
X3072685Y-12217491D01*
X3091732Y-12207968D01*
X3120304Y-12207968D01*
X3139352Y-12217491D01*
X3148875Y-12236539D01*
X3148875Y-12341301D01*
X3539352Y-12131777D02*
X3367923Y-12388920D01*
X3796494Y-12141301D02*
X3815542Y-12141301D01*
X3834590Y-12150825D01*
X3844113Y-12160349D01*
X3853637Y-12179396D01*
X3863161Y-12217491D01*
X3863161Y-12265110D01*
X3853637Y-12303206D01*
X3844113Y-12322253D01*
X3834590Y-12331777D01*
X3815542Y-12341301D01*
X3796494Y-12341301D01*
X3777447Y-12331777D01*
X3767923Y-12322253D01*
X3758399Y-12303206D01*
X3748875Y-12265110D01*
X3748875Y-12217491D01*
X3758399Y-12179396D01*
X3767923Y-12160349D01*
X3777447Y-12150825D01*
X3796494Y-12141301D01*
X3948875Y-12322253D02*
X3958399Y-12331777D01*
X3948875Y-12341301D01*
X3939352Y-12331777D01*
X3948875Y-12322253D01*
X3948875Y-12341301D01*
X4148875Y-12341301D02*
X4034590Y-12341301D01*
X4091732Y-12341301D02*
X4091732Y-12141301D01*
X4072685Y-12169872D01*
X4053637Y-12188920D01*
X4034590Y-12198444D01*
X4215542Y-12141301D02*
X4339352Y-12141301D01*
X4272685Y-12217491D01*
X4301256Y-12217491D01*
X4320304Y-12227015D01*
X4329828Y-12236539D01*
X4339352Y-12255587D01*
X4339352Y-12303206D01*
X4329828Y-12322253D01*
X4320304Y-12331777D01*
X4301256Y-12341301D01*
X4244114Y-12341301D01*
X4225066Y-12331777D01*
X4215542Y-12322253D01*
X4520304Y-12141301D02*
X4425066Y-12141301D01*
X4415542Y-12236539D01*
X4425066Y-12227015D01*
X4444114Y-12217491D01*
X4491733Y-12217491D01*
X4510780Y-12227015D01*
X4520304Y-12236539D01*
X4529828Y-12255587D01*
X4529828Y-12303206D01*
X4520304Y-12322253D01*
X4510780Y-12331777D01*
X4491733Y-12341301D01*
X4444114Y-12341301D01*
X4425066Y-12331777D01*
X4415542Y-12322253D01*
X4653637Y-12141301D02*
X4672685Y-12141301D01*
X4691733Y-12150825D01*
X4701256Y-12160349D01*
X4710780Y-12179396D01*
X4720304Y-12217491D01*
X4720304Y-12265110D01*
X4710780Y-12303206D01*
X4701256Y-12322253D01*
X4691733Y-12331777D01*
X4672685Y-12341301D01*
X4653637Y-12341301D01*
X4634590Y-12331777D01*
X4625066Y-12322253D01*
X4615542Y-12303206D01*
X4606018Y-12265110D01*
X4606018Y-12217491D01*
X4615542Y-12179396D01*
X4625066Y-12160349D01*
X4634590Y-12150825D01*
X4653637Y-12141301D01*
X4796494Y-12141301D02*
X4796494Y-12179396D01*
X4872685Y-12141301D02*
X4872685Y-12179396D01*
X5167923Y-12417491D02*
X5158399Y-12407968D01*
X5139352Y-12379396D01*
X5129828Y-12360349D01*
X5120304Y-12331777D01*
X5110780Y-12284158D01*
X5110780Y-12246063D01*
X5120304Y-12198444D01*
X5129828Y-12169872D01*
X5139352Y-12150825D01*
X5158399Y-12122253D01*
X5167923Y-12112729D01*
X5329828Y-12207968D02*
X5329828Y-12341301D01*
X5282209Y-12131777D02*
X5234590Y-12274634D01*
X5358399Y-12274634D01*
X5520304Y-12207968D02*
X5520304Y-12341301D01*
X5472685Y-12131777D02*
X5425066Y-12274634D01*
X5548875Y-12274634D01*
X5777447Y-12341301D02*
X5777447Y-12141301D01*
X5863161Y-12341301D02*
X5863161Y-12236539D01*
X5853637Y-12217491D01*
X5834590Y-12207968D01*
X5806018Y-12207968D01*
X5786971Y-12217491D01*
X5777447Y-12227015D01*
X5986971Y-12341301D02*
X5967923Y-12331777D01*
X5958399Y-12322253D01*
X5948875Y-12303206D01*
X5948875Y-12246063D01*
X5958399Y-12227015D01*
X5967923Y-12217491D01*
X5986971Y-12207968D01*
X6015542Y-12207968D01*
X6034590Y-12217491D01*
X6044113Y-12227015D01*
X6053637Y-12246063D01*
X6053637Y-12303206D01*
X6044113Y-12322253D01*
X6034590Y-12331777D01*
X6015542Y-12341301D01*
X5986971Y-12341301D01*
X6167923Y-12341301D02*
X6148875Y-12331777D01*
X6139352Y-12312729D01*
X6139352Y-12141301D01*
X6320304Y-12331777D02*
X6301256Y-12341301D01*
X6263161Y-12341301D01*
X6244113Y-12331777D01*
X6234590Y-12312729D01*
X6234590Y-12236539D01*
X6244113Y-12217491D01*
X6263161Y-12207968D01*
X6301256Y-12207968D01*
X6320304Y-12217491D01*
X6329828Y-12236539D01*
X6329828Y-12255587D01*
X6234590Y-12274634D01*
X6406018Y-12331777D02*
X6425066Y-12341301D01*
X6463161Y-12341301D01*
X6482209Y-12331777D01*
X6491732Y-12312729D01*
X6491732Y-12303206D01*
X6482209Y-12284158D01*
X6463161Y-12274634D01*
X6434590Y-12274634D01*
X6415542Y-12265110D01*
X6406018Y-12246063D01*
X6406018Y-12236539D01*
X6415542Y-12217491D01*
X6434590Y-12207968D01*
X6463161Y-12207968D01*
X6482209Y-12217491D01*
X6558399Y-12417491D02*
X6567923Y-12407968D01*
X6586971Y-12379396D01*
X6596494Y-12360349D01*
X6606018Y-12331777D01*
X6615542Y-12284158D01*
X6615542Y-12246063D01*
X6606018Y-12198444D01*
X6596494Y-12169872D01*
X6586971Y-12150825D01*
X6567923Y-12122253D01*
X6558399Y-12112729D01*
X6920304Y-12417491D02*
X6910780Y-12407968D01*
X6891732Y-12379396D01*
X6882209Y-12360349D01*
X6872685Y-12331777D01*
X6863161Y-12284158D01*
X6863161Y-12246063D01*
X6872685Y-12198444D01*
X6882209Y-12169872D01*
X6891732Y-12150825D01*
X6910780Y-12122253D01*
X6920304Y-12112729D01*
X6996494Y-12207968D02*
X6996494Y-12341301D01*
X6996494Y-12227015D02*
X7006018Y-12217491D01*
X7025066Y-12207968D01*
X7053637Y-12207968D01*
X7072685Y-12217491D01*
X7082209Y-12236539D01*
X7082209Y-12341301D01*
X7206018Y-12341301D02*
X7186971Y-12331777D01*
X7177447Y-12322253D01*
X7167923Y-12303206D01*
X7167923Y-12246063D01*
X7177447Y-12227015D01*
X7186971Y-12217491D01*
X7206018Y-12207968D01*
X7234590Y-12207968D01*
X7253637Y-12217491D01*
X7263161Y-12227015D01*
X7272685Y-12246063D01*
X7272685Y-12303206D01*
X7263161Y-12322253D01*
X7253637Y-12331777D01*
X7234590Y-12341301D01*
X7206018Y-12341301D01*
X7329828Y-12207968D02*
X7406018Y-12207968D01*
X7358399Y-12141301D02*
X7358399Y-12312729D01*
X7367923Y-12331777D01*
X7386971Y-12341301D01*
X7406018Y-12341301D01*
X7625066Y-12207968D02*
X7625066Y-12407968D01*
X7625066Y-12217491D02*
X7644113Y-12207968D01*
X7682209Y-12207968D01*
X7701256Y-12217491D01*
X7710780Y-12227015D01*
X7720304Y-12246063D01*
X7720304Y-12303206D01*
X7710780Y-12322253D01*
X7701256Y-12331777D01*
X7682209Y-12341301D01*
X7644113Y-12341301D01*
X7625066Y-12331777D01*
X7834590Y-12341301D02*
X7815542Y-12331777D01*
X7806018Y-12312729D01*
X7806018Y-12141301D01*
X7996494Y-12341301D02*
X7996494Y-12236539D01*
X7986971Y-12217491D01*
X7967923Y-12207968D01*
X7929828Y-12207968D01*
X7910780Y-12217491D01*
X7996494Y-12331777D02*
X7977447Y-12341301D01*
X7929828Y-12341301D01*
X7910780Y-12331777D01*
X7901256Y-12312729D01*
X7901256Y-12293682D01*
X7910780Y-12274634D01*
X7929828Y-12265110D01*
X7977447Y-12265110D01*
X7996494Y-12255587D01*
X8063161Y-12207968D02*
X8139352Y-12207968D01*
X8091732Y-12141301D02*
X8091732Y-12312729D01*
X8101256Y-12331777D01*
X8120304Y-12341301D01*
X8139352Y-12341301D01*
X8282209Y-12331777D02*
X8263161Y-12341301D01*
X8225066Y-12341301D01*
X8206018Y-12331777D01*
X8196494Y-12312729D01*
X8196494Y-12236539D01*
X8206018Y-12217491D01*
X8225066Y-12207968D01*
X8263161Y-12207968D01*
X8282209Y-12217491D01*
X8291732Y-12236539D01*
X8291732Y-12255587D01*
X8196494Y-12274634D01*
X8463161Y-12341301D02*
X8463161Y-12141301D01*
X8463161Y-12331777D02*
X8444114Y-12341301D01*
X8406018Y-12341301D01*
X8386971Y-12331777D01*
X8377447Y-12322253D01*
X8367923Y-12303206D01*
X8367923Y-12246063D01*
X8377447Y-12227015D01*
X8386971Y-12217491D01*
X8406018Y-12207968D01*
X8444114Y-12207968D01*
X8463161Y-12217491D01*
X8539352Y-12417491D02*
X8548875Y-12407968D01*
X8567923Y-12379396D01*
X8577447Y-12360349D01*
X8586971Y-12331777D01*
X8596494Y-12284158D01*
X8596494Y-12246063D01*
X8586971Y-12198444D01*
X8577447Y-12169872D01*
X8567923Y-12150825D01*
X8548875Y-12122253D01*
X8539352Y-12112729D01*
M02*
