%TF.GenerationSoftware,KiCad,Pcbnew,(6.0.7-1)-1*%
%TF.CreationDate,2022-08-01T14:13:12+02:00*%
%TF.ProjectId,green60-test3,67726565-6e36-4302-9d74-657374332e6b,v1.0.0*%
%TF.SameCoordinates,Original*%
%TF.FileFunction,Drillmap*%
%TF.FilePolarity,Positive*%
%FSLAX45Y45*%
G04 Gerber Fmt 4.5, Leading zero omitted, Abs format (unit mm)*
G04 Created by KiCad (PCBNEW (6.0.7-1)-1) date 2022-08-01 14:13:12*
%MOMM*%
%LPD*%
G01*
G04 APERTURE LIST*
%ADD10C,0.150000*%
%ADD11C,0.200000*%
%ADD12C,0.050000*%
%ADD13C,0.109220*%
G04 APERTURE END LIST*
D10*
X1603518Y-1733145D02*
X1603518Y-10793145D01*
X1803518Y-1533145D02*
G75*
G03*
X1603518Y-1733145I0J-200000D01*
G01*
X1803518Y-10993145D02*
X29903518Y-10993145D01*
X29903518Y-10993138D02*
G75*
G03*
X30103518Y-10793145I2J199998D01*
G01*
X30103518Y-10793145D02*
X30103518Y-1733145D01*
X30103515Y-1733145D02*
G75*
G03*
X29903518Y-1533145I-199995J5D01*
G01*
X29903518Y-1533145D02*
X1803518Y-1533145D01*
X1603515Y-10793145D02*
G75*
G03*
X1803518Y-10993145I200005J5D01*
G01*
D11*
D12*
X2801518Y-4348145D02*
X2851518Y-4398145D01*
X2851518Y-4348145D02*
X2801518Y-4398145D01*
X4389018Y-5554645D02*
X4439018Y-5604645D01*
X4439018Y-5554645D02*
X4389018Y-5604645D01*
X4706518Y-3903645D02*
X4756518Y-3953645D01*
X4756518Y-3903645D02*
X4706518Y-3953645D01*
X6548018Y-4856145D02*
X6598018Y-4906145D01*
X6598018Y-4856145D02*
X6548018Y-4906145D01*
X6992518Y-3205145D02*
X7042518Y-3255145D01*
X7042518Y-3205145D02*
X6992518Y-3255145D01*
X8389518Y-4919645D02*
X8439518Y-4969645D01*
X8439518Y-4919645D02*
X8389518Y-4969645D01*
X8834018Y-3268645D02*
X8884018Y-3318645D01*
X8884018Y-3268645D02*
X8834018Y-3318645D01*
X9977018Y-5935645D02*
X10027018Y-5985645D01*
X10027018Y-5935645D02*
X9977018Y-5985645D01*
X10421518Y-4284645D02*
X10471518Y-4334645D01*
X10471518Y-4284645D02*
X10421518Y-4334645D01*
X11628018Y-6697645D02*
X11678018Y-6747645D01*
X11678018Y-6697645D02*
X11628018Y-6747645D01*
X12072518Y-4983145D02*
X12122518Y-5033145D01*
X12122518Y-4983145D02*
X12072518Y-5033145D01*
X13723518Y-5681645D02*
X13773518Y-5731645D01*
X13773518Y-5681645D02*
X13723518Y-5731645D01*
X17025518Y-7396145D02*
X17075518Y-7446145D01*
X17075518Y-7396145D02*
X17025518Y-7446145D01*
X17089018Y-5808645D02*
X17139018Y-5858645D01*
X17139018Y-5808645D02*
X17089018Y-5858645D01*
X18422518Y-10317145D02*
X18472518Y-10367145D01*
X18472518Y-10317145D02*
X18422518Y-10367145D01*
X18740018Y-5173645D02*
X18790018Y-5223645D01*
X18790018Y-5173645D02*
X18740018Y-5223645D01*
X19248018Y-6824645D02*
X19298018Y-6874645D01*
X19298018Y-6824645D02*
X19248018Y-6874645D01*
X20454518Y-4475145D02*
X20504518Y-4525145D01*
X20504518Y-4475145D02*
X20454518Y-4525145D01*
X20899018Y-6126145D02*
X20949018Y-6176145D01*
X20949018Y-6126145D02*
X20899018Y-6176145D01*
X22042018Y-3395645D02*
X22092018Y-3445645D01*
X22092018Y-3395645D02*
X22042018Y-3445645D01*
X22486518Y-5046645D02*
X22536518Y-5096645D01*
X22536518Y-5046645D02*
X22486518Y-5096645D01*
X23883518Y-3395645D02*
X23933518Y-3445645D01*
X23933518Y-3395645D02*
X23883518Y-3445645D01*
X24328018Y-5046645D02*
X24378018Y-5096645D01*
X24378018Y-5046645D02*
X24328018Y-5096645D01*
X26169518Y-4030645D02*
X26219518Y-4080645D01*
X26219518Y-4030645D02*
X26169518Y-4080645D01*
X26487018Y-5681645D02*
X26537018Y-5731645D01*
X26537018Y-5681645D02*
X26487018Y-5731645D01*
X28074518Y-4538645D02*
X28124518Y-4588645D01*
X28124518Y-4538645D02*
X28074518Y-4588645D01*
D13*
X14861128Y-1881145D02*
G75*
G03*
X14861128Y-1881145I-54610J0D01*
G01*
X14861128Y-3405145D02*
G75*
G03*
X14861128Y-3405145I-54610J0D01*
G01*
X15115128Y-1881145D02*
G75*
G03*
X15115128Y-1881145I-54610J0D01*
G01*
X15115128Y-3405145D02*
G75*
G03*
X15115128Y-3405145I-54610J0D01*
G01*
X15369128Y-1881145D02*
G75*
G03*
X15369128Y-1881145I-54610J0D01*
G01*
X15369128Y-3405145D02*
G75*
G03*
X15369128Y-3405145I-54610J0D01*
G01*
X15623128Y-1881145D02*
G75*
G03*
X15623128Y-1881145I-54610J0D01*
G01*
X15623128Y-3405145D02*
G75*
G03*
X15623128Y-3405145I-54610J0D01*
G01*
X15877128Y-1881145D02*
G75*
G03*
X15877128Y-1881145I-54610J0D01*
G01*
X15877128Y-3405145D02*
G75*
G03*
X15877128Y-3405145I-54610J0D01*
G01*
X16131128Y-1881145D02*
G75*
G03*
X16131128Y-1881145I-54610J0D01*
G01*
X16131128Y-3405145D02*
G75*
G03*
X16131128Y-3405145I-54610J0D01*
G01*
X16385128Y-1881145D02*
G75*
G03*
X16385128Y-1881145I-54610J0D01*
G01*
X16385128Y-3405145D02*
G75*
G03*
X16385128Y-3405145I-54610J0D01*
G01*
X16639128Y-1881145D02*
G75*
G03*
X16639128Y-1881145I-54610J0D01*
G01*
X16639128Y-3405145D02*
G75*
G03*
X16639128Y-3405145I-54610J0D01*
G01*
X16893128Y-1881145D02*
G75*
G03*
X16893128Y-1881145I-54610J0D01*
G01*
X16893128Y-3405145D02*
G75*
G03*
X16893128Y-3405145I-54610J0D01*
G01*
X17147128Y-1881145D02*
G75*
G03*
X17147128Y-1881145I-54610J0D01*
G01*
X17147128Y-3405145D02*
G75*
G03*
X17147128Y-3405145I-54610J0D01*
G01*
X17401128Y-1881145D02*
G75*
G03*
X17401128Y-1881145I-54610J0D01*
G01*
X17401128Y-3405145D02*
G75*
G03*
X17401128Y-3405145I-54610J0D01*
G01*
X17655128Y-1881145D02*
G75*
G03*
X17655128Y-1881145I-54610J0D01*
G01*
X17655128Y-3405145D02*
G75*
G03*
X17655128Y-3405145I-54610J0D01*
G01*
D11*
X1853637Y-11311121D02*
X1853637Y-11111121D01*
X1901256Y-11111121D01*
X1929828Y-11120645D01*
X1948875Y-11139692D01*
X1958399Y-11158740D01*
X1967923Y-11196835D01*
X1967923Y-11225407D01*
X1958399Y-11263502D01*
X1948875Y-11282549D01*
X1929828Y-11301597D01*
X1901256Y-11311121D01*
X1853637Y-11311121D01*
X2053637Y-11311121D02*
X2053637Y-11177788D01*
X2053637Y-11215883D02*
X2063161Y-11196835D01*
X2072685Y-11187311D01*
X2091732Y-11177788D01*
X2110780Y-11177788D01*
X2177447Y-11311121D02*
X2177447Y-11177788D01*
X2177447Y-11111121D02*
X2167923Y-11120645D01*
X2177447Y-11130169D01*
X2186971Y-11120645D01*
X2177447Y-11111121D01*
X2177447Y-11130169D01*
X2301256Y-11311121D02*
X2282209Y-11301597D01*
X2272685Y-11282549D01*
X2272685Y-11111121D01*
X2406018Y-11311121D02*
X2386971Y-11301597D01*
X2377447Y-11282549D01*
X2377447Y-11111121D01*
X2634590Y-11311121D02*
X2634590Y-11111121D01*
X2701256Y-11253978D01*
X2767923Y-11111121D01*
X2767923Y-11311121D01*
X2948875Y-11311121D02*
X2948875Y-11206359D01*
X2939352Y-11187311D01*
X2920304Y-11177788D01*
X2882209Y-11177788D01*
X2863161Y-11187311D01*
X2948875Y-11301597D02*
X2929828Y-11311121D01*
X2882209Y-11311121D01*
X2863161Y-11301597D01*
X2853637Y-11282549D01*
X2853637Y-11263502D01*
X2863161Y-11244454D01*
X2882209Y-11234930D01*
X2929828Y-11234930D01*
X2948875Y-11225407D01*
X3044113Y-11177788D02*
X3044113Y-11377788D01*
X3044113Y-11187311D02*
X3063161Y-11177788D01*
X3101256Y-11177788D01*
X3120304Y-11187311D01*
X3129828Y-11196835D01*
X3139352Y-11215883D01*
X3139352Y-11273026D01*
X3129828Y-11292073D01*
X3120304Y-11301597D01*
X3101256Y-11311121D01*
X3063161Y-11311121D01*
X3044113Y-11301597D01*
X3225066Y-11292073D02*
X3234590Y-11301597D01*
X3225066Y-11311121D01*
X3215542Y-11301597D01*
X3225066Y-11292073D01*
X3225066Y-11311121D01*
X3225066Y-11187311D02*
X3234590Y-11196835D01*
X3225066Y-11206359D01*
X3215542Y-11196835D01*
X3225066Y-11187311D01*
X3225066Y-11206359D01*
D12*
X1546018Y-11615645D02*
X1596018Y-11665645D01*
X1596018Y-11615645D02*
X1546018Y-11665645D01*
D11*
X1891732Y-11531121D02*
X1910780Y-11531121D01*
X1929828Y-11540645D01*
X1939352Y-11550169D01*
X1948875Y-11569216D01*
X1958399Y-11607311D01*
X1958399Y-11654930D01*
X1948875Y-11693026D01*
X1939352Y-11712073D01*
X1929828Y-11721597D01*
X1910780Y-11731121D01*
X1891732Y-11731121D01*
X1872685Y-11721597D01*
X1863161Y-11712073D01*
X1853637Y-11693026D01*
X1844113Y-11654930D01*
X1844113Y-11607311D01*
X1853637Y-11569216D01*
X1863161Y-11550169D01*
X1872685Y-11540645D01*
X1891732Y-11531121D01*
X2044113Y-11712073D02*
X2053637Y-11721597D01*
X2044113Y-11731121D01*
X2034590Y-11721597D01*
X2044113Y-11712073D01*
X2044113Y-11731121D01*
X2234590Y-11531121D02*
X2139352Y-11531121D01*
X2129828Y-11626359D01*
X2139352Y-11616835D01*
X2158399Y-11607311D01*
X2206018Y-11607311D01*
X2225066Y-11616835D01*
X2234590Y-11626359D01*
X2244114Y-11645407D01*
X2244114Y-11693026D01*
X2234590Y-11712073D01*
X2225066Y-11721597D01*
X2206018Y-11731121D01*
X2158399Y-11731121D01*
X2139352Y-11721597D01*
X2129828Y-11712073D01*
X2367923Y-11531121D02*
X2386971Y-11531121D01*
X2406018Y-11540645D01*
X2415542Y-11550169D01*
X2425066Y-11569216D01*
X2434590Y-11607311D01*
X2434590Y-11654930D01*
X2425066Y-11693026D01*
X2415542Y-11712073D01*
X2406018Y-11721597D01*
X2386971Y-11731121D01*
X2367923Y-11731121D01*
X2348875Y-11721597D01*
X2339352Y-11712073D01*
X2329828Y-11693026D01*
X2320304Y-11654930D01*
X2320304Y-11607311D01*
X2329828Y-11569216D01*
X2339352Y-11550169D01*
X2348875Y-11540645D01*
X2367923Y-11531121D01*
X2558399Y-11531121D02*
X2577447Y-11531121D01*
X2596494Y-11540645D01*
X2606018Y-11550169D01*
X2615542Y-11569216D01*
X2625066Y-11607311D01*
X2625066Y-11654930D01*
X2615542Y-11693026D01*
X2606018Y-11712073D01*
X2596494Y-11721597D01*
X2577447Y-11731121D01*
X2558399Y-11731121D01*
X2539352Y-11721597D01*
X2529828Y-11712073D01*
X2520304Y-11693026D01*
X2510780Y-11654930D01*
X2510780Y-11607311D01*
X2520304Y-11569216D01*
X2529828Y-11550169D01*
X2539352Y-11540645D01*
X2558399Y-11531121D01*
X2710780Y-11731121D02*
X2710780Y-11597788D01*
X2710780Y-11616835D02*
X2720304Y-11607311D01*
X2739352Y-11597788D01*
X2767923Y-11597788D01*
X2786971Y-11607311D01*
X2796494Y-11626359D01*
X2796494Y-11731121D01*
X2796494Y-11626359D02*
X2806018Y-11607311D01*
X2825066Y-11597788D01*
X2853637Y-11597788D01*
X2872685Y-11607311D01*
X2882209Y-11626359D01*
X2882209Y-11731121D01*
X2977447Y-11731121D02*
X2977447Y-11597788D01*
X2977447Y-11616835D02*
X2986971Y-11607311D01*
X3006018Y-11597788D01*
X3034590Y-11597788D01*
X3053637Y-11607311D01*
X3063161Y-11626359D01*
X3063161Y-11731121D01*
X3063161Y-11626359D02*
X3072685Y-11607311D01*
X3091732Y-11597788D01*
X3120304Y-11597788D01*
X3139352Y-11607311D01*
X3148875Y-11626359D01*
X3148875Y-11731121D01*
X3539352Y-11521597D02*
X3367923Y-11778740D01*
X3796494Y-11531121D02*
X3815542Y-11531121D01*
X3834590Y-11540645D01*
X3844113Y-11550169D01*
X3853637Y-11569216D01*
X3863161Y-11607311D01*
X3863161Y-11654930D01*
X3853637Y-11693026D01*
X3844113Y-11712073D01*
X3834590Y-11721597D01*
X3815542Y-11731121D01*
X3796494Y-11731121D01*
X3777447Y-11721597D01*
X3767923Y-11712073D01*
X3758399Y-11693026D01*
X3748875Y-11654930D01*
X3748875Y-11607311D01*
X3758399Y-11569216D01*
X3767923Y-11550169D01*
X3777447Y-11540645D01*
X3796494Y-11531121D01*
X3948875Y-11712073D02*
X3958399Y-11721597D01*
X3948875Y-11731121D01*
X3939352Y-11721597D01*
X3948875Y-11712073D01*
X3948875Y-11731121D01*
X4082209Y-11531121D02*
X4101256Y-11531121D01*
X4120304Y-11540645D01*
X4129828Y-11550169D01*
X4139352Y-11569216D01*
X4148875Y-11607311D01*
X4148875Y-11654930D01*
X4139352Y-11693026D01*
X4129828Y-11712073D01*
X4120304Y-11721597D01*
X4101256Y-11731121D01*
X4082209Y-11731121D01*
X4063161Y-11721597D01*
X4053637Y-11712073D01*
X4044113Y-11693026D01*
X4034590Y-11654930D01*
X4034590Y-11607311D01*
X4044113Y-11569216D01*
X4053637Y-11550169D01*
X4063161Y-11540645D01*
X4082209Y-11531121D01*
X4339352Y-11731121D02*
X4225066Y-11731121D01*
X4282209Y-11731121D02*
X4282209Y-11531121D01*
X4263161Y-11559692D01*
X4244114Y-11578740D01*
X4225066Y-11588264D01*
X4434590Y-11731121D02*
X4472685Y-11731121D01*
X4491733Y-11721597D01*
X4501256Y-11712073D01*
X4520304Y-11683502D01*
X4529828Y-11645407D01*
X4529828Y-11569216D01*
X4520304Y-11550169D01*
X4510780Y-11540645D01*
X4491733Y-11531121D01*
X4453637Y-11531121D01*
X4434590Y-11540645D01*
X4425066Y-11550169D01*
X4415542Y-11569216D01*
X4415542Y-11616835D01*
X4425066Y-11635883D01*
X4434590Y-11645407D01*
X4453637Y-11654930D01*
X4491733Y-11654930D01*
X4510780Y-11645407D01*
X4520304Y-11635883D01*
X4529828Y-11616835D01*
X4596494Y-11531121D02*
X4729828Y-11531121D01*
X4644114Y-11731121D01*
X4796494Y-11531121D02*
X4796494Y-11569216D01*
X4872685Y-11531121D02*
X4872685Y-11569216D01*
X5167923Y-11807311D02*
X5158399Y-11797788D01*
X5139352Y-11769216D01*
X5129828Y-11750169D01*
X5120304Y-11721597D01*
X5110780Y-11673978D01*
X5110780Y-11635883D01*
X5120304Y-11588264D01*
X5129828Y-11559692D01*
X5139352Y-11540645D01*
X5158399Y-11512073D01*
X5167923Y-11502549D01*
X5234590Y-11550169D02*
X5244114Y-11540645D01*
X5263161Y-11531121D01*
X5310780Y-11531121D01*
X5329828Y-11540645D01*
X5339352Y-11550169D01*
X5348875Y-11569216D01*
X5348875Y-11588264D01*
X5339352Y-11616835D01*
X5225066Y-11731121D01*
X5348875Y-11731121D01*
X5520304Y-11531121D02*
X5482209Y-11531121D01*
X5463161Y-11540645D01*
X5453637Y-11550169D01*
X5434590Y-11578740D01*
X5425066Y-11616835D01*
X5425066Y-11693026D01*
X5434590Y-11712073D01*
X5444114Y-11721597D01*
X5463161Y-11731121D01*
X5501256Y-11731121D01*
X5520304Y-11721597D01*
X5529828Y-11712073D01*
X5539352Y-11693026D01*
X5539352Y-11645407D01*
X5529828Y-11626359D01*
X5520304Y-11616835D01*
X5501256Y-11607311D01*
X5463161Y-11607311D01*
X5444114Y-11616835D01*
X5434590Y-11626359D01*
X5425066Y-11645407D01*
X5777447Y-11731121D02*
X5777447Y-11531121D01*
X5863161Y-11731121D02*
X5863161Y-11626359D01*
X5853637Y-11607311D01*
X5834590Y-11597788D01*
X5806018Y-11597788D01*
X5786971Y-11607311D01*
X5777447Y-11616835D01*
X5986971Y-11731121D02*
X5967923Y-11721597D01*
X5958399Y-11712073D01*
X5948875Y-11693026D01*
X5948875Y-11635883D01*
X5958399Y-11616835D01*
X5967923Y-11607311D01*
X5986971Y-11597788D01*
X6015542Y-11597788D01*
X6034590Y-11607311D01*
X6044113Y-11616835D01*
X6053637Y-11635883D01*
X6053637Y-11693026D01*
X6044113Y-11712073D01*
X6034590Y-11721597D01*
X6015542Y-11731121D01*
X5986971Y-11731121D01*
X6167923Y-11731121D02*
X6148875Y-11721597D01*
X6139352Y-11702549D01*
X6139352Y-11531121D01*
X6320304Y-11721597D02*
X6301256Y-11731121D01*
X6263161Y-11731121D01*
X6244113Y-11721597D01*
X6234590Y-11702549D01*
X6234590Y-11626359D01*
X6244113Y-11607311D01*
X6263161Y-11597788D01*
X6301256Y-11597788D01*
X6320304Y-11607311D01*
X6329828Y-11626359D01*
X6329828Y-11645407D01*
X6234590Y-11664454D01*
X6406018Y-11721597D02*
X6425066Y-11731121D01*
X6463161Y-11731121D01*
X6482209Y-11721597D01*
X6491732Y-11702549D01*
X6491732Y-11693026D01*
X6482209Y-11673978D01*
X6463161Y-11664454D01*
X6434590Y-11664454D01*
X6415542Y-11654930D01*
X6406018Y-11635883D01*
X6406018Y-11626359D01*
X6415542Y-11607311D01*
X6434590Y-11597788D01*
X6463161Y-11597788D01*
X6482209Y-11607311D01*
X6558399Y-11807311D02*
X6567923Y-11797788D01*
X6586971Y-11769216D01*
X6596494Y-11750169D01*
X6606018Y-11721597D01*
X6615542Y-11673978D01*
X6615542Y-11635883D01*
X6606018Y-11588264D01*
X6596494Y-11559692D01*
X6586971Y-11540645D01*
X6567923Y-11512073D01*
X6558399Y-11502549D01*
D13*
X1596018Y-11904645D02*
G75*
G03*
X1596018Y-11904645I-54610J0D01*
G01*
D11*
X1958399Y-11995121D02*
X1844113Y-11995121D01*
X1901256Y-11995121D02*
X1901256Y-11795121D01*
X1882209Y-11823692D01*
X1863161Y-11842740D01*
X1844113Y-11852264D01*
X2044113Y-11976073D02*
X2053637Y-11985597D01*
X2044113Y-11995121D01*
X2034590Y-11985597D01*
X2044113Y-11976073D01*
X2044113Y-11995121D01*
X2177447Y-11795121D02*
X2196494Y-11795121D01*
X2215542Y-11804645D01*
X2225066Y-11814169D01*
X2234590Y-11833216D01*
X2244114Y-11871311D01*
X2244114Y-11918930D01*
X2234590Y-11957026D01*
X2225066Y-11976073D01*
X2215542Y-11985597D01*
X2196494Y-11995121D01*
X2177447Y-11995121D01*
X2158399Y-11985597D01*
X2148875Y-11976073D01*
X2139352Y-11957026D01*
X2129828Y-11918930D01*
X2129828Y-11871311D01*
X2139352Y-11833216D01*
X2148875Y-11814169D01*
X2158399Y-11804645D01*
X2177447Y-11795121D01*
X2339352Y-11995121D02*
X2377447Y-11995121D01*
X2396494Y-11985597D01*
X2406018Y-11976073D01*
X2425066Y-11947502D01*
X2434590Y-11909407D01*
X2434590Y-11833216D01*
X2425066Y-11814169D01*
X2415542Y-11804645D01*
X2396494Y-11795121D01*
X2358399Y-11795121D01*
X2339352Y-11804645D01*
X2329828Y-11814169D01*
X2320304Y-11833216D01*
X2320304Y-11880835D01*
X2329828Y-11899883D01*
X2339352Y-11909407D01*
X2358399Y-11918930D01*
X2396494Y-11918930D01*
X2415542Y-11909407D01*
X2425066Y-11899883D01*
X2434590Y-11880835D01*
X2510780Y-11814169D02*
X2520304Y-11804645D01*
X2539352Y-11795121D01*
X2586971Y-11795121D01*
X2606018Y-11804645D01*
X2615542Y-11814169D01*
X2625066Y-11833216D01*
X2625066Y-11852264D01*
X2615542Y-11880835D01*
X2501256Y-11995121D01*
X2625066Y-11995121D01*
X2710780Y-11995121D02*
X2710780Y-11861788D01*
X2710780Y-11880835D02*
X2720304Y-11871311D01*
X2739352Y-11861788D01*
X2767923Y-11861788D01*
X2786971Y-11871311D01*
X2796494Y-11890359D01*
X2796494Y-11995121D01*
X2796494Y-11890359D02*
X2806018Y-11871311D01*
X2825066Y-11861788D01*
X2853637Y-11861788D01*
X2872685Y-11871311D01*
X2882209Y-11890359D01*
X2882209Y-11995121D01*
X2977447Y-11995121D02*
X2977447Y-11861788D01*
X2977447Y-11880835D02*
X2986971Y-11871311D01*
X3006018Y-11861788D01*
X3034590Y-11861788D01*
X3053637Y-11871311D01*
X3063161Y-11890359D01*
X3063161Y-11995121D01*
X3063161Y-11890359D02*
X3072685Y-11871311D01*
X3091732Y-11861788D01*
X3120304Y-11861788D01*
X3139352Y-11871311D01*
X3148875Y-11890359D01*
X3148875Y-11995121D01*
X3539352Y-11785597D02*
X3367923Y-12042740D01*
X3796494Y-11795121D02*
X3815542Y-11795121D01*
X3834590Y-11804645D01*
X3844113Y-11814169D01*
X3853637Y-11833216D01*
X3863161Y-11871311D01*
X3863161Y-11918930D01*
X3853637Y-11957026D01*
X3844113Y-11976073D01*
X3834590Y-11985597D01*
X3815542Y-11995121D01*
X3796494Y-11995121D01*
X3777447Y-11985597D01*
X3767923Y-11976073D01*
X3758399Y-11957026D01*
X3748875Y-11918930D01*
X3748875Y-11871311D01*
X3758399Y-11833216D01*
X3767923Y-11814169D01*
X3777447Y-11804645D01*
X3796494Y-11795121D01*
X3948875Y-11976073D02*
X3958399Y-11985597D01*
X3948875Y-11995121D01*
X3939352Y-11985597D01*
X3948875Y-11976073D01*
X3948875Y-11995121D01*
X4082209Y-11795121D02*
X4101256Y-11795121D01*
X4120304Y-11804645D01*
X4129828Y-11814169D01*
X4139352Y-11833216D01*
X4148875Y-11871311D01*
X4148875Y-11918930D01*
X4139352Y-11957026D01*
X4129828Y-11976073D01*
X4120304Y-11985597D01*
X4101256Y-11995121D01*
X4082209Y-11995121D01*
X4063161Y-11985597D01*
X4053637Y-11976073D01*
X4044113Y-11957026D01*
X4034590Y-11918930D01*
X4034590Y-11871311D01*
X4044113Y-11833216D01*
X4053637Y-11814169D01*
X4063161Y-11804645D01*
X4082209Y-11795121D01*
X4320304Y-11861788D02*
X4320304Y-11995121D01*
X4272685Y-11785597D02*
X4225066Y-11928454D01*
X4348875Y-11928454D01*
X4406018Y-11795121D02*
X4529828Y-11795121D01*
X4463161Y-11871311D01*
X4491733Y-11871311D01*
X4510780Y-11880835D01*
X4520304Y-11890359D01*
X4529828Y-11909407D01*
X4529828Y-11957026D01*
X4520304Y-11976073D01*
X4510780Y-11985597D01*
X4491733Y-11995121D01*
X4434590Y-11995121D01*
X4415542Y-11985597D01*
X4406018Y-11976073D01*
X4653637Y-11795121D02*
X4672685Y-11795121D01*
X4691733Y-11804645D01*
X4701256Y-11814169D01*
X4710780Y-11833216D01*
X4720304Y-11871311D01*
X4720304Y-11918930D01*
X4710780Y-11957026D01*
X4701256Y-11976073D01*
X4691733Y-11985597D01*
X4672685Y-11995121D01*
X4653637Y-11995121D01*
X4634590Y-11985597D01*
X4625066Y-11976073D01*
X4615542Y-11957026D01*
X4606018Y-11918930D01*
X4606018Y-11871311D01*
X4615542Y-11833216D01*
X4625066Y-11814169D01*
X4634590Y-11804645D01*
X4653637Y-11795121D01*
X4796494Y-11795121D02*
X4796494Y-11833216D01*
X4872685Y-11795121D02*
X4872685Y-11833216D01*
X5167923Y-12071311D02*
X5158399Y-12061788D01*
X5139352Y-12033216D01*
X5129828Y-12014169D01*
X5120304Y-11985597D01*
X5110780Y-11937978D01*
X5110780Y-11899883D01*
X5120304Y-11852264D01*
X5129828Y-11823692D01*
X5139352Y-11804645D01*
X5158399Y-11776073D01*
X5167923Y-11766549D01*
X5234590Y-11814169D02*
X5244114Y-11804645D01*
X5263161Y-11795121D01*
X5310780Y-11795121D01*
X5329828Y-11804645D01*
X5339352Y-11814169D01*
X5348875Y-11833216D01*
X5348875Y-11852264D01*
X5339352Y-11880835D01*
X5225066Y-11995121D01*
X5348875Y-11995121D01*
X5520304Y-11861788D02*
X5520304Y-11995121D01*
X5472685Y-11785597D02*
X5425066Y-11928454D01*
X5548875Y-11928454D01*
X5777447Y-11995121D02*
X5777447Y-11795121D01*
X5863161Y-11995121D02*
X5863161Y-11890359D01*
X5853637Y-11871311D01*
X5834590Y-11861788D01*
X5806018Y-11861788D01*
X5786971Y-11871311D01*
X5777447Y-11880835D01*
X5986971Y-11995121D02*
X5967923Y-11985597D01*
X5958399Y-11976073D01*
X5948875Y-11957026D01*
X5948875Y-11899883D01*
X5958399Y-11880835D01*
X5967923Y-11871311D01*
X5986971Y-11861788D01*
X6015542Y-11861788D01*
X6034590Y-11871311D01*
X6044113Y-11880835D01*
X6053637Y-11899883D01*
X6053637Y-11957026D01*
X6044113Y-11976073D01*
X6034590Y-11985597D01*
X6015542Y-11995121D01*
X5986971Y-11995121D01*
X6167923Y-11995121D02*
X6148875Y-11985597D01*
X6139352Y-11966549D01*
X6139352Y-11795121D01*
X6320304Y-11985597D02*
X6301256Y-11995121D01*
X6263161Y-11995121D01*
X6244113Y-11985597D01*
X6234590Y-11966549D01*
X6234590Y-11890359D01*
X6244113Y-11871311D01*
X6263161Y-11861788D01*
X6301256Y-11861788D01*
X6320304Y-11871311D01*
X6329828Y-11890359D01*
X6329828Y-11909407D01*
X6234590Y-11928454D01*
X6406018Y-11985597D02*
X6425066Y-11995121D01*
X6463161Y-11995121D01*
X6482209Y-11985597D01*
X6491732Y-11966549D01*
X6491732Y-11957026D01*
X6482209Y-11937978D01*
X6463161Y-11928454D01*
X6434590Y-11928454D01*
X6415542Y-11918930D01*
X6406018Y-11899883D01*
X6406018Y-11890359D01*
X6415542Y-11871311D01*
X6434590Y-11861788D01*
X6463161Y-11861788D01*
X6482209Y-11871311D01*
X6558399Y-12071311D02*
X6567923Y-12061788D01*
X6586971Y-12033216D01*
X6596494Y-12014169D01*
X6606018Y-11985597D01*
X6615542Y-11937978D01*
X6615542Y-11899883D01*
X6606018Y-11852264D01*
X6596494Y-11823692D01*
X6586971Y-11804645D01*
X6567923Y-11776073D01*
X6558399Y-11766549D01*
M02*
