M48
INCH,TZ
T1C0.0197
T2C0.0430
%
G90
G05
T1
X11128Y-17217
X17378Y-21967
X18628Y-15467
X25878Y-19217
X27628Y-12717
X33128Y-19467
X34878Y-12967
X39378Y-23467
X41128Y-16967
X45878Y-26467
X47628Y-19717
X54128Y-22467
X67128Y-29217
X67378Y-22967
X72628Y-40717
X73878Y-20467
X75878Y-26967
X80628Y-17717
X82378Y-24217
X86878Y-13467
X88628Y-19967
X94128Y-13467
X95878Y-19967
X103128Y-15967
X104378Y-22467
X110628Y-17967
T2
X58293Y-7406
X58293Y-13406
X59293Y-7406
X59293Y-13406
X60293Y-7406
X60293Y-13406
X61293Y-7406
X61293Y-13406
X62293Y-7406
X62293Y-13406
X63293Y-7406
X63293Y-13406
X64293Y-7406
X64293Y-13406
X65293Y-7406
X65293Y-13406
X66293Y-7406
X66293Y-13406
X67293Y-7406
X67293Y-13406
X68293Y-7406
X68293Y-13406
X69293Y-7406
X69293Y-13406
T0
M30
