%TF.GenerationSoftware,KiCad,Pcbnew,(6.0.7-1)-1*%
%TF.CreationDate,2022-08-01T13:34:11+02:00*%
%TF.ProjectId,green60-test2,67726565-6e36-4302-9d74-657374322e6b,v1.0.0*%
%TF.SameCoordinates,Original*%
%TF.FileFunction,Copper,L1,Top*%
%TF.FilePolarity,Positive*%
%FSLAX46Y46*%
G04 Gerber Fmt 4.6, Leading zero omitted, Abs format (unit mm)*
G04 Created by KiCad (PCBNEW (6.0.7-1)-1) date 2022-08-01 13:34:11*
%MOMM*%
%LPD*%
G01*
G04 APERTURE LIST*
%TA.AperFunction,ComponentPad*%
%ADD10R,1.752600X1.752600*%
%TD*%
%TA.AperFunction,ComponentPad*%
%ADD11C,1.752600*%
%TD*%
%TA.AperFunction,ViaPad*%
%ADD12C,0.800000*%
%TD*%
%TA.AperFunction,Conductor*%
%ADD13C,0.250000*%
%TD*%
G04 APERTURE END LIST*
D10*
%TO.P,MCU1,1*%
%TO.N,RAW*%
X148065183Y-34051448D03*
D11*
%TO.P,MCU1,2*%
%TO.N,N/C*%
X150605183Y-34051448D03*
%TO.P,MCU1,3*%
%TO.N,RST*%
X153145183Y-34051448D03*
%TO.P,MCU1,4*%
%TO.N,VCC*%
X155685183Y-34051448D03*
%TO.P,MCU1,5*%
%TO.N,P21*%
X158225183Y-34051448D03*
%TO.P,MCU1,6*%
%TO.N,P20*%
X160765183Y-34051448D03*
%TO.P,MCU1,7*%
%TO.N,P19*%
X163305183Y-34051448D03*
%TO.P,MCU1,8*%
%TO.N,P18*%
X165845183Y-34051448D03*
%TO.P,MCU1,9*%
%TO.N,P15*%
X168385183Y-34051448D03*
%TO.P,MCU1,10*%
%TO.N,P14*%
X170925183Y-34051448D03*
%TO.P,MCU1,11*%
%TO.N,P16*%
X173465183Y-34051448D03*
%TO.P,MCU1,12*%
%TO.N,P10*%
X176005183Y-34051448D03*
%TO.P,MCU1,13*%
%TO.N,P1*%
X148065183Y-18811448D03*
%TO.P,MCU1,14*%
%TO.N,P0*%
X150605183Y-18811448D03*
%TO.P,MCU1,15*%
%TO.N,N/C*%
X153145183Y-18811448D03*
%TO.P,MCU1,16*%
X155685183Y-18811448D03*
%TO.P,MCU1,17*%
%TO.N,P2*%
X158225183Y-18811448D03*
%TO.P,MCU1,18*%
%TO.N,P3*%
X160765183Y-18811448D03*
%TO.P,MCU1,19*%
%TO.N,P4*%
X163305183Y-18811448D03*
%TO.P,MCU1,20*%
%TO.N,P5*%
X165845183Y-18811448D03*
%TO.P,MCU1,21*%
%TO.N,P6*%
X168385183Y-18811448D03*
%TO.P,MCU1,22*%
%TO.N,P7*%
X170925183Y-18811448D03*
%TO.P,MCU1,23*%
%TO.N,P8*%
X173465183Y-18811448D03*
%TO.P,MCU1,24*%
%TO.N,P9*%
X176005183Y-18811448D03*
%TD*%
D12*
%TO.N,P19*%
X184475183Y-103421448D03*
%TO.N,P15*%
X28265183Y-43731448D03*
X225115183Y-50716448D03*
X84145183Y-49446448D03*
X209240183Y-61511448D03*
X116530183Y-67226448D03*
X44140183Y-55796448D03*
X265120183Y-57066448D03*
X243530183Y-50716448D03*
X100020183Y-59606448D03*
X280995183Y-45636448D03*
X192730183Y-68496448D03*
X65730183Y-48811448D03*
%TO.N,P14*%
X70175183Y-32301448D03*
X104465183Y-43096448D03*
X120975183Y-50081448D03*
X187650183Y-51986448D03*
X47315183Y-39286448D03*
X204795183Y-45001448D03*
X261945183Y-40556448D03*
X137485183Y-57066448D03*
X171140183Y-58336448D03*
X239085183Y-34206448D03*
X88590183Y-32936448D03*
X220670183Y-34206448D03*
%TO.N,P18*%
X170505183Y-74211448D03*
%TD*%
D13*
%TO.N,P19*%
X169235183Y-63416448D02*
X163520183Y-57701448D01*
X163305183Y-39071448D02*
X163305183Y-34051448D01*
X184475183Y-103421448D02*
X169235183Y-88181448D01*
X169235183Y-88181448D02*
X169235183Y-63416448D01*
X163520183Y-39286448D02*
X163305183Y-39071448D01*
X163520183Y-57701448D02*
X163520183Y-39286448D01*
%TO.N,P15*%
X112085183Y-62781448D02*
X116530183Y-67226448D01*
X66365183Y-48176448D02*
X73350183Y-48176448D01*
X100020183Y-59606448D02*
X103195183Y-62781448D01*
X212415183Y-58336448D02*
X209240183Y-61511448D01*
X73350183Y-48176448D02*
X74620183Y-49446448D01*
X209240183Y-61511448D02*
X205430183Y-65321448D01*
X244800183Y-51986448D02*
X243530183Y-50716448D01*
X96845183Y-56431448D02*
X100020183Y-59606448D01*
X44140183Y-55796448D02*
X57475183Y-55796448D01*
X225115183Y-50716448D02*
X217495183Y-58336448D01*
X91130183Y-56431448D02*
X96845183Y-56431448D01*
X217495183Y-58336448D02*
X212415183Y-58336448D01*
X205430183Y-65321448D02*
X195905183Y-65321448D01*
X166060183Y-40556448D02*
X168385183Y-38231448D01*
X74620183Y-49446448D02*
X84145183Y-49446448D01*
X166695183Y-29126448D02*
X168385183Y-30816448D01*
X260040183Y-57066448D02*
X254960183Y-51986448D01*
X84145183Y-49446448D02*
X91130183Y-56431448D01*
X117800183Y-65956448D02*
X130500183Y-65956448D01*
X176220183Y-66591448D02*
X166060183Y-56431448D01*
X265120183Y-57066448D02*
X260040183Y-57066448D01*
X195905183Y-65321448D02*
X192730183Y-68496448D01*
X166060183Y-56431448D02*
X166060183Y-40556448D01*
X140660183Y-55796448D02*
X140660183Y-32936448D01*
X280995183Y-45636448D02*
X280995183Y-47541448D01*
X190825183Y-66591448D02*
X176220183Y-66591448D01*
X64460183Y-48811448D02*
X65730183Y-48811448D01*
X37155183Y-48176448D02*
X44140183Y-55161448D01*
X65730183Y-48811448D02*
X66365183Y-48176448D01*
X271470183Y-57066448D02*
X265120183Y-57066448D01*
X116530183Y-67226448D02*
X117800183Y-65956448D01*
X140660183Y-32936448D02*
X144470183Y-29126448D01*
X32710183Y-48176448D02*
X37155183Y-48176448D01*
X192730183Y-68496448D02*
X190825183Y-66591448D01*
X130500183Y-65956448D02*
X140660183Y-55796448D01*
X28265183Y-43731448D02*
X32710183Y-48176448D01*
X168385183Y-30816448D02*
X168385183Y-34051448D01*
X103195183Y-62781448D02*
X112085183Y-62781448D01*
X44140183Y-55161448D02*
X44140183Y-55796448D01*
X57475183Y-55796448D02*
X64460183Y-48811448D01*
X243530183Y-50716448D02*
X225115183Y-50716448D01*
X254960183Y-51986448D02*
X244800183Y-51986448D01*
X168385183Y-38231448D02*
X168385183Y-34051448D01*
X280995183Y-47541448D02*
X271470183Y-57066448D01*
X144470183Y-29126448D02*
X166695183Y-29126448D01*
%TO.N,P14*%
X47950183Y-38651448D02*
X47315183Y-39286448D01*
X201620183Y-45001448D02*
X194635183Y-51986448D01*
X187650183Y-51986448D02*
X183205183Y-56431448D01*
X137485183Y-57066448D02*
X139390183Y-55161448D01*
X93035183Y-37381448D02*
X88590183Y-32936448D01*
X63825183Y-38651448D02*
X47950183Y-38651448D01*
X139390183Y-32936448D02*
X144470183Y-27856448D01*
X104465183Y-43096448D02*
X98750183Y-37381448D01*
X261945183Y-40556448D02*
X258135183Y-40556448D01*
X194635183Y-51986448D02*
X187650183Y-51986448D01*
X239085183Y-34206448D02*
X220670183Y-34206448D01*
X220670183Y-34206448D02*
X209875183Y-45001448D01*
X133040183Y-52621448D02*
X123515183Y-52621448D01*
X75890183Y-31666448D02*
X70810183Y-31666448D01*
X170925183Y-29546448D02*
X170925183Y-34051448D01*
X183205183Y-56431448D02*
X173045183Y-56431448D01*
X137485183Y-57066448D02*
X133040183Y-52621448D01*
X167965183Y-41191448D02*
X170925183Y-38231448D01*
X170886536Y-58082801D02*
X170886536Y-54907801D01*
X252420183Y-34841448D02*
X239720183Y-34841448D01*
X120975183Y-50081448D02*
X111450183Y-50081448D01*
X70810183Y-31666448D02*
X70175183Y-32301448D01*
X170886536Y-54907801D02*
X167965183Y-51986448D01*
X173045183Y-56431448D02*
X171140183Y-58336448D01*
X111450183Y-50081448D02*
X104465183Y-43096448D01*
X209875183Y-45001448D02*
X204795183Y-45001448D01*
X144470183Y-27856448D02*
X169235183Y-27856448D01*
X204795183Y-45001448D02*
X201620183Y-45001448D01*
X70175183Y-32301448D02*
X63825183Y-38651448D01*
X170925183Y-38231448D02*
X170925183Y-34051448D01*
X123515183Y-52621448D02*
X120975183Y-50081448D01*
X171140183Y-58336448D02*
X170886536Y-58082801D01*
X239720183Y-34841448D02*
X239085183Y-34206448D01*
X167965183Y-51986448D02*
X167965183Y-41191448D01*
X98750183Y-37381448D02*
X93035183Y-37381448D01*
X258135183Y-40556448D02*
X252420183Y-34841448D01*
X169235183Y-27856448D02*
X170925183Y-29546448D01*
X77160183Y-32936448D02*
X75890183Y-31666448D01*
X139390183Y-55161448D02*
X139390183Y-32936448D01*
X88590183Y-32936448D02*
X77160183Y-32936448D01*
%TO.N,P18*%
X164790183Y-57066448D02*
X164790183Y-39921448D01*
X164790183Y-39921448D02*
X165845183Y-38866448D01*
X170505183Y-74211448D02*
X170505183Y-62781448D01*
X165845183Y-38866448D02*
X165845183Y-34051448D01*
X170505183Y-62781448D02*
X164790183Y-57066448D01*
%TD*%
M02*
