0
SECTION
2
HEADER
9
$INSUNITS
70
4
0
ENDSEC
0
SECTION
2
TABLES
0
TABLE
2
LTYPE
0
LTYPE
72
65
70
64
2
CONTINUOUS
3
______
73
0
40
0
0
ENDTAB
0
TABLE
2
LAYER
0
ENDTAB
0
ENDSEC
0
SECTION
2
ENTITIES
0
LINE
8
0
10
-10.7496302
20
-6.8242546
11
6.9196592
21
-10.2588166
0
LINE
8
0
10
-7.4104727
20
10.3542211
11
-7.5058773
21
9.8634075
0
LINE
8
0
10
-7.5058773
20
9.8634075
11
-10.7496302
21
-6.8242546
0
LINE
8
0
10
13.5025695
20
23.6073212
11
-4.1667198
21
27.0418832
0
LINE
8
0
10
-4.1667198
20
27.0418832
11
-7.4104727
21
10.3542211
0
LINE
8
0
10
5.2977827
20
-18.6026476
11
23.4578856
21
-22.1326141
0
LINE
8
0
10
23.4578856
20
-22.1326141
11
25.6841164
21
-10.6796492
0
LINE
8
0
10
6.9196592
20
-10.2588166
11
5.2977827
21
-18.6026476
0
LINE
8
0
10
15.124446
20
31.9511524
11
36.0950118
21
27.8748873
0
LINE
8
0
10
15.124446
20
31.9511524
11
13.5025695
21
23.6073212
0
LINE
8
0
10
25.6841164
20
-10.6796492
11
42.3913488
21
-15.470371
0
LINE
8
0
10
56.5866727
20
34.0346063
11
39.2839622
21
38.9960787
0
LINE
8
0
10
39.2839622
20
38.9960787
11
36.0950118
21
27.8748873
0
LINE
8
0
10
39.0837005
20
-27.0055113
11
56.8670419
21
-32.1048024
0
LINE
8
0
10
56.8670419
20
-32.1048024
11
59.8990529
21
-21.5309237
0
LINE
8
0
10
42.3913488
20
-15.470371
11
39.0837005
21
-27.0055113
0
LINE
8
0
10
74.0943767
20
27.9740535
11
75.7482009
21
33.7416237
0
LINE
8
0
10
75.7482009
20
33.7416237
11
57.9648595
21
38.8409148
0
LINE
8
0
10
57.9648595
20
38.8409148
11
56.5866727
21
34.0346063
0
LINE
8
0
10
59.8990529
20
-21.5309237
11
68.0697773
21
-23.8738412
0
LINE
8
0
10
90.8458126
20
21.0900578
11
91.3970873
21
23.0125811
0
LINE
8
0
10
91.3970873
20
23.0125811
11
74.0943767
21
27.9740535
0
LINE
8
0
10
92.9919375
20
-33.1007547
11
93.8124618
21
-33.3360362
0
LINE
8
0
10
93.964771
20
-33.3360362
11
96.5717541
21
-24.2444059
0
LINE
8
0
10
101.6710452
20
-6.4610645
11
102.8011583
21
-2.5198916
0
LINE
8
0
10
107.6248121
20
14.3021881
11
108.1485231
21
16.1285854
0
LINE
8
0
10
108.1485231
20
16.1285854
11
90.8458126
21
21.0900578
0
LINE
8
0
10
113.3938338
20
-29.0680597
11
118.4931249
21
-11.2847183
0
LINE
8
0
10
118.4931249
20
-11.2847183
11
101.6710452
21
-6.4610645
0
LINE
8
0
10
96.5717541
20
-24.2444059
11
113.3938338
21
-29.0680597
0
LINE
8
0
10
102.8011583
20
-2.5198916
11
120.1038689
21
-7.481364
0
LINE
8
0
10
120.1038689
20
-7.481364
11
124.9275227
21
9.3407157
0
LINE
8
0
10
124.9275227
20
9.3407157
11
107.6248121
21
14.3021881
0
LINE
8
0
10
62.8326675
20
-42.1378135
11
88.3061025
21
-49.4422034
0
LINE
8
0
10
62.8326675
20
-42.1378135
11
68.0697773
21
-23.8738412
0
LINE
8
0
10
92.9919375
20
-33.1007547
11
92.9244717
21
-33.3360362
0
LINE
8
0
10
88.9737384
20
-47.1138804
11
88.3061025
21
-49.4422034
0
LINE
8
0
10
88.9737384
20
-50.8360362
11
107.4737384
21
-50.8360362
0
LINE
8
0
10
107.4737384
20
-50.8360362
11
107.4737384
21
-33.3360362
0
LINE
8
0
10
107.4737384
20
-33.3360362
11
93.964771
21
-33.3360362
0
LINE
8
0
10
93.8124618
20
-33.3360362
11
92.9244717
21
-33.3360362
0
LINE
8
0
10
88.9737384
20
-47.1138804
11
88.9737384
21
-50.8360362
0
LINE
8
0
10
250.1452198
20
-10.2588166
11
267.8145092
21
-6.8242546
0
LINE
8
0
10
267.8145092
20
-6.8242546
11
264.5707563
21
9.8634075
0
LINE
8
0
10
264.5707563
20
9.8634075
11
264.4753517
21
10.3542211
0
LINE
8
0
10
264.4753517
20
10.3542211
11
261.2315988
21
27.0418832
0
LINE
8
0
10
261.2315988
20
27.0418832
11
243.5623095
21
23.6073212
0
LINE
8
0
10
233.6069934
20
-22.1326141
11
251.7670963
21
-18.6026476
0
LINE
8
0
10
251.7670963
20
-18.6026476
11
250.1452198
21
-10.2588166
0
LINE
8
0
10
231.3807626
20
-10.6796492
11
233.6069934
21
-22.1326141
0
LINE
8
0
10
243.5623095
20
23.6073212
11
241.940433
21
31.9511524
0
LINE
8
0
10
220.9698672
20
27.8748873
11
241.940433
21
31.9511524
0
LINE
8
0
10
214.6735302
20
-15.470371
11
231.3807626
21
-10.6796492
0
LINE
8
0
10
220.9698672
20
27.8748873
11
217.7809168
21
38.9960787
0
LINE
8
0
10
217.7809168
20
38.9960787
11
200.4782063
21
34.0346063
0
LINE
8
0
10
200.1978371
20
-32.1048024
11
217.9811785
21
-27.0055113
0
LINE
8
0
10
217.9811785
20
-27.0055113
11
214.6735302
21
-15.470371
0
LINE
8
0
10
197.1658261
20
-21.5309237
11
200.1978371
21
-32.1048024
0
LINE
8
0
10
200.4782063
20
34.0346063
11
199.1000195
21
38.8409148
0
LINE
8
0
10
199.1000195
20
38.8409148
11
181.3166781
21
33.7416237
0
LINE
8
0
10
181.3166781
20
33.7416237
11
182.9705023
21
27.9740535
0
LINE
8
0
10
188.9951017
20
-23.8738412
11
197.1658261
21
-21.5309237
0
LINE
8
0
10
182.9705023
20
27.9740535
11
165.6677917
21
23.0125811
0
LINE
8
0
10
165.6677917
20
23.0125811
11
166.2190664
21
21.0900578
0
LINE
8
0
10
163.2524172
20
-33.3360362
11
164.0729415
21
-33.1007547
0
LINE
8
0
10
160.4931249
20
-24.2444059
11
163.100108
21
-33.3360362
0
LINE
8
0
10
154.2637207
20
-2.5198916
11
155.3938338
21
-6.4610645
0
LINE
8
0
10
166.2190664
20
21.0900578
11
148.9163559
21
16.1285854
0
LINE
8
0
10
148.9163559
20
16.1285854
11
149.4400669
21
14.3021881
0
LINE
8
0
10
138.5717541
20
-11.2847183
11
143.6710452
21
-29.0680597
0
LINE
8
0
10
143.6710452
20
-29.0680597
11
160.4931249
21
-24.2444059
0
LINE
8
0
10
155.3938338
20
-6.4610645
11
138.5717541
21
-11.2847183
0
LINE
8
0
10
136.9610101
20
-7.481364
11
154.2637207
21
-2.5198916
0
LINE
8
0
10
149.4400669
20
14.3021881
11
132.1373563
21
9.3407157
0
LINE
8
0
10
132.1373563
20
9.3407157
11
136.9610101
21
-7.481364
0
LINE
8
0
10
168.7587765
20
-49.4422034
11
194.2322115
21
-42.1378135
0
LINE
8
0
10
188.9951017
20
-23.8738412
11
194.2322115
21
-42.1378135
0
LINE
8
0
10
168.7587765
20
-49.4422034
11
168.0911406
21
-47.1138804
0
LINE
8
0
10
164.1404073
20
-33.3360362
11
164.0729415
21
-33.1007547
0
LINE
8
0
10
149.5911406
20
-50.8360362
11
168.0911406
21
-50.8360362
0
LINE
8
0
10
168.0911406
20
-50.8360362
11
168.0911406
21
-47.1138804
0
LINE
8
0
10
163.100108
20
-33.3360362
11
149.5911406
21
-33.3360362
0
LINE
8
0
10
164.1404073
20
-33.3360362
11
163.2524172
21
-33.3360362
0
LINE
8
0
10
149.5911406
20
-33.3360362
11
149.5911406
21
-50.8360362
0
ENDSEC
0
EOF