0
SECTION
2
HEADER
9
$INSUNITS
70
4
0
ENDSEC
0
SECTION
2
TABLES
0
TABLE
2
LTYPE
0
LTYPE
72
65
70
64
2
CONTINUOUS
3
______
73
0
40
0
0
ENDTAB
0
TABLE
2
LAYER
0
ENDTAB
0
ENDSEC
0
SECTION
2
ENTITIES
0
LINE
8
0
10
40.0514293
20
-78.9786196
11
57.229905
21
-82.317777
0
LINE
8
0
10
57.229905
20
-82.317777
11
60.3782535
21
-66.1209284
0
LINE
8
0
10
60.3782535
20
-66.1209284
11
43.1997778
21
-62.781771
0
LINE
8
0
10
43.1997778
20
-62.781771
11
40.0514293
21
-78.9786196
0
LINE
8
0
10
43.2951822
20
-62.2909575
11
60.4736579
21
-65.6301149
0
LINE
8
0
10
60.4736579
20
-65.6301149
11
63.6220064
21
-49.4332663
0
LINE
8
0
10
63.6220064
20
-49.4332663
11
46.4435307
21
-46.0941089
0
LINE
8
0
10
46.4435307
20
-46.0941089
11
43.2951822
21
-62.2909575
0
LINE
8
0
10
56.0988422
20
-90.7570125
11
73.2773179
21
-94.0961699
0
LINE
8
0
10
73.2773179
20
-94.0961699
11
76.4256664
21
-77.8993213
0
LINE
8
0
10
76.4256664
20
-77.8993213
11
59.2471907
21
-74.5601639
0
LINE
8
0
10
59.2471907
20
-74.5601639
11
56.0988422
21
-90.7570125
0
LINE
8
0
10
59.3425951
20
-74.0693504
11
76.5210708
21
-77.4085078
0
LINE
8
0
10
76.5210708
20
-77.4085078
11
79.6694193
21
-61.2116592
0
LINE
8
0
10
79.6694193
20
-61.2116592
11
62.4909436
21
-57.8725018
0
LINE
8
0
10
62.4909436
20
-57.8725018
11
59.3425951
21
-74.0693504
0
LINE
8
0
10
62.586348
20
-57.3816883
11
79.7648237
21
-60.7208457
0
LINE
8
0
10
79.7648237
20
-60.7208457
11
82.9131722
21
-44.5239971
0
LINE
8
0
10
82.9131722
20
-44.5239971
11
65.7346965
21
-41.1848397
0
LINE
8
0
10
65.7346965
20
-41.1848397
11
62.586348
21
-57.3816883
0
LINE
8
0
10
75.9219294
20
-82.7158603
11
92.7440091
21
-87.5395141
0
LINE
8
0
10
92.7440091
20
-87.5395141
11
97.2920254
21
-71.6786961
0
LINE
8
0
10
97.2920254
20
-71.6786961
11
80.4699457
21
-66.8550423
0
LINE
8
0
10
80.4699457
20
-66.8550423
11
75.9219294
21
-82.7158603
0
LINE
8
0
10
80.6077643
20
-66.3744115
11
97.429844
21
-71.1980653
0
LINE
8
0
10
97.429844
20
-71.1980653
11
101.9778603
21
-55.3372473
0
LINE
8
0
10
101.9778603
20
-55.3372473
11
85.1557806
21
-50.5135935
0
LINE
8
0
10
85.1557806
20
-50.5135935
11
80.6077643
21
-66.3744115
0
LINE
8
0
10
85.2935994
20
-50.0329628
11
102.1156791
21
-54.8566166
0
LINE
8
0
10
102.1156791
20
-54.8566166
11
106.6636954
21
-38.9957986
0
LINE
8
0
10
106.6636954
20
-38.9957986
11
89.8416157
21
-34.1721448
0
LINE
8
0
10
89.8416157
20
-34.1721448
11
85.2935994
21
-50.0329628
0
LINE
8
0
10
89.9169915
20
-99.2124731
11
106.7390712
21
-104.0361269
0
LINE
8
0
10
106.7390712
20
-104.0361269
11
111.2870875
21
-88.1753089
0
LINE
8
0
10
111.2870875
20
-88.1753089
11
94.4650078
21
-83.3516551
0
LINE
8
0
10
94.4650078
20
-83.3516551
11
89.9169915
21
-99.2124731
0
LINE
8
0
10
94.6028266
20
-82.8710243
11
111.4249063
21
-87.6946781
0
LINE
8
0
10
111.4249063
20
-87.6946781
11
115.9729226
21
-71.8338601
0
LINE
8
0
10
115.9729226
20
-71.8338601
11
99.1508429
21
-67.0102063
0
LINE
8
0
10
99.1508429
20
-67.0102063
11
94.6028266
21
-82.8710243
0
LINE
8
0
10
99.2886616
20
-66.5295754
11
116.1107413
21
-71.3532292
0
LINE
8
0
10
116.1107413
20
-71.3532292
11
120.6587576
21
-55.4924112
0
LINE
8
0
10
120.6587576
20
-55.4924112
11
103.8366779
21
-50.6687574
0
LINE
8
0
10
103.8366779
20
-50.6687574
11
99.2886616
21
-66.5295754
0
LINE
8
0
10
103.9744967
20
-50.1881267
11
120.7965764
21
-55.0117805
0
LINE
8
0
10
120.7965764
20
-55.0117805
11
125.3445927
21
-39.1509625
0
LINE
8
0
10
125.3445927
20
-39.1509625
11
108.522513
21
-34.3273087
0
LINE
8
0
10
108.522513
20
-34.3273087
11
103.9744967
21
-50.1881267
0
LINE
8
0
10
110.251713
20
-93.6000668
11
127.0737927
21
-98.4237206
0
LINE
8
0
10
127.0737927
20
-98.4237206
11
131.621809
21
-82.5629026
0
LINE
8
0
10
131.621809
20
-82.5629026
11
114.7997293
21
-77.7392488
0
LINE
8
0
10
114.7997293
20
-77.7392488
11
110.251713
21
-93.6000668
0
LINE
8
0
10
114.9375481
20
-77.258618
11
131.7596278
21
-82.0822718
0
LINE
8
0
10
131.7596278
20
-82.0822718
11
136.3076441
21
-66.2214538
0
LINE
8
0
10
136.3076441
20
-66.2214538
11
119.4855644
21
-61.3978
0
LINE
8
0
10
119.4855644
20
-61.3978
11
114.9375481
21
-77.258618
0
LINE
8
0
10
119.623383
20
-60.9171693
11
136.4454627
21
-65.7408231
0
LINE
8
0
10
136.4454627
20
-65.7408231
11
140.993479
21
-49.8800051
0
LINE
8
0
10
140.993479
20
-49.8800051
11
124.1713993
21
-45.0563513
0
LINE
8
0
10
124.1713993
20
-45.0563513
11
119.623383
21
-60.9171693
0
LINE
8
0
10
127.0031488
20
-100.4840627
11
143.8252285
21
-105.3077165
0
LINE
8
0
10
143.8252285
20
-105.3077165
11
148.3732448
21
-89.4468985
0
LINE
8
0
10
148.3732448
20
-89.4468985
11
131.5511651
21
-84.6232447
0
LINE
8
0
10
131.5511651
20
-84.6232447
11
127.0031488
21
-100.4840627
0
LINE
8
0
10
131.6889838
20
-84.1426139
11
148.5110635
21
-88.9662677
0
LINE
8
0
10
148.5110635
20
-88.9662677
11
153.0590798
21
-73.1054497
0
LINE
8
0
10
153.0590798
20
-73.1054497
11
136.2370001
21
-68.2817959
0
LINE
8
0
10
136.2370001
20
-68.2817959
11
131.6889838
21
-84.1426139
0
LINE
8
0
10
136.3748189
20
-67.801165
11
153.1968986
21
-72.6248188
0
LINE
8
0
10
153.1968986
20
-72.6248188
11
157.7449149
21
-56.7640008
0
LINE
8
0
10
157.7449149
20
-56.7640008
11
140.9228352
21
-51.940347
0
LINE
8
0
10
140.9228352
20
-51.940347
11
136.3748189
21
-67.801165
0
LINE
8
0
10
153.1538185
20
-74.5890347
11
169.9758982
21
-79.4126885
0
LINE
8
0
10
169.9758982
20
-79.4126885
11
174.5239145
21
-63.5518705
0
LINE
8
0
10
174.5239145
20
-63.5518705
11
157.7018348
21
-58.7282167
0
LINE
8
0
10
157.7018348
20
-58.7282167
11
153.1538185
21
-74.5890347
0
LINE
8
0
10
113.6659585
20
-114.3447753
11
130.4880382
21
-119.1684291
0
LINE
8
0
10
130.4880382
20
-119.1684291
11
135.0360545
21
-103.3076111
0
LINE
8
0
10
135.0360545
20
-103.3076111
11
118.2139748
21
-98.4839573
0
LINE
8
0
10
118.2139748
20
-98.4839573
11
113.6659585
21
-114.3447753
0
LINE
8
0
10
162.0254949
20
-105.3250617
11
169.3298849
21
-79.8516267
0
LINE
8
0
10
169.3298849
20
-79.8516267
11
153.4690669
21
-75.3036103
0
LINE
8
0
10
153.4690669
20
-75.3036103
11
146.1646769
21
-100.7770453
0
LINE
8
0
10
146.1646769
20
-100.7770453
11
162.0254949
21
-105.3250617
0
LINE
8
0
10
135.1885798
20
-122.8858102
11
161.6885798
21
-122.8858102
0
LINE
8
0
10
161.6885798
20
-122.8858102
11
161.6885798
21
-106.3858102
0
LINE
8
0
10
161.6885798
20
-106.3858102
11
135.1885798
21
-106.3858102
0
LINE
8
0
10
135.1885798
20
-106.3858102
11
135.1885798
21
-122.8858102
0
LINE
8
0
10
128.7305849
20
-125.8
11
173.56
21
-125.8
0
LINE
8
0
10
175.56
20
-123.8
11
175.56
21
-51.3353309
0
LINE
8
0
10
112.3445058
20
-31.2
11
74.077341
21
-31.2
0
LINE
8
0
10
39.0600001
20
-39.979701
11
39.0600001
21
-90.4159681
0
ARC
8
0
10
14.9759554
20
-290.7247862
40
200
50
55.726651
51
82.5807403
0
ARC
8
0
10
93.2109234
20
-210.1686583
40
180
50
63.1665025
51
83.8292375
0
ARC
8
0
10
93.2109234
20
-210.1686583
40
180
50
96.1707625
51
107.0366115
0
ARC
8
0
10
173.56
20
-123.8
40
2
50
270
51
0
0
ARC
8
0
10
173.56
20
-51.3353309
40
2
50
0
51
63.1665025
0
ARC
8
0
10
112.3445058
20
-33.2
40
2
50
83.8292375
51
90
0
ARC
8
0
10
74.077341
20
-33.2
40
2
50
90
51
96.1707625
0
ARC
8
0
10
41.0600001
20
-39.979701
40
2
50
107.0366115
51
180
0
ARC
8
0
10
41.0600002
20
-90.4159681
40
2
50
180
51
262.5807403
0
ARC
8
0
10
128.7305849
20
-123.8
40
2
50
235.726651
51
270
0
ENDSEC
0
EOF