%TF.GenerationSoftware,KiCad,Pcbnew,(6.0.7-1)-1*%
%TF.CreationDate,2022-08-01T13:03:47+02:00*%
%TF.ProjectId,green60-test2,67726565-6e36-4302-9d74-657374322e6b,v1.0.0*%
%TF.SameCoordinates,Original*%
%TF.FileFunction,Legend,Bot*%
%TF.FilePolarity,Positive*%
%FSLAX46Y46*%
G04 Gerber Fmt 4.6, Leading zero omitted, Abs format (unit mm)*
G04 Created by KiCad (PCBNEW (6.0.7-1)-1) date 2022-08-01 13:03:47*
%MOMM*%
%LPD*%
G01*
G04 APERTURE LIST*
%ADD10C,0.120000*%
%ADD11C,1.752600*%
%ADD12R,1.752600X1.752600*%
G04 APERTURE END LIST*
D10*
%TO.C,S1*%
X26114885Y-62235460D02*
X29943231Y-62979615D01*
X26496503Y-60272206D02*
X30324849Y-61016361D01*
X26114885Y-62235460D02*
X26496503Y-60272206D01*
%TO.C,S2*%
X29358638Y-45547798D02*
X33186984Y-46291953D01*
X29740256Y-43584544D02*
X33568602Y-44328699D01*
X29358638Y-45547798D02*
X29740256Y-43584544D01*
%TO.C,S3*%
X42162298Y-74013853D02*
X45990644Y-74758008D01*
X42543916Y-72050599D02*
X46372262Y-72794754D01*
X42162298Y-74013853D02*
X42543916Y-72050599D01*
%TO.C,S4*%
X45406051Y-57326191D02*
X49234397Y-58070346D01*
X45787669Y-55362937D02*
X49616015Y-56107092D01*
X45406051Y-57326191D02*
X45787669Y-55362937D01*
%TO.C,S5*%
X48649804Y-40638529D02*
X52478150Y-41382684D01*
X49031422Y-38675275D02*
X52859768Y-39419430D01*
X48649804Y-40638529D02*
X49031422Y-38675275D01*
%TO.C,S6*%
X62014183Y-66562780D02*
X65763104Y-67637765D01*
X62565458Y-64640256D02*
X66314378Y-65715242D01*
X62014183Y-66562780D02*
X62565458Y-64640256D01*
%TO.C,S7*%
X66700018Y-50221331D02*
X70448939Y-51296316D01*
X67251293Y-48298807D02*
X71000213Y-49373793D01*
X66700018Y-50221331D02*
X67251293Y-48298807D01*
%TO.C,S8*%
X71385853Y-33879883D02*
X75134774Y-34954868D01*
X71937128Y-31957359D02*
X75686048Y-33032345D01*
X71385853Y-33879883D02*
X71937128Y-31957359D01*
%TO.C,S9*%
X76009245Y-83059393D02*
X79758166Y-84134378D01*
X76560520Y-81136869D02*
X80309440Y-82211855D01*
X76009245Y-83059393D02*
X76560520Y-81136869D01*
%TO.C,S10*%
X80695080Y-66717944D02*
X84444001Y-67792929D01*
X81246355Y-64795420D02*
X84995275Y-65870406D01*
X80695080Y-66717944D02*
X81246355Y-64795420D01*
%TO.C,S11*%
X85380915Y-50376495D02*
X89129836Y-51451480D01*
X85932190Y-48453971D02*
X89681110Y-49528957D01*
X85380915Y-50376495D02*
X85932190Y-48453971D01*
%TO.C,S12*%
X90066750Y-34035047D02*
X93815671Y-35110032D01*
X90618025Y-32112523D02*
X94366945Y-33187509D01*
X90066750Y-34035047D02*
X90618025Y-32112523D01*
%TO.C,S13*%
X96343967Y-77446987D02*
X100092888Y-78521972D01*
X96895242Y-75524463D02*
X100644162Y-76599449D01*
X96343967Y-77446987D02*
X96895242Y-75524463D01*
%TO.C,S14*%
X101029802Y-61105538D02*
X104778723Y-62180523D01*
X101581077Y-59183014D02*
X105329997Y-60258000D01*
X101029802Y-61105538D02*
X101581077Y-59183014D01*
%TO.C,S15*%
X105715637Y-44764089D02*
X109464558Y-45839074D01*
X106266912Y-42841565D02*
X110015832Y-43916551D01*
X105715637Y-44764089D02*
X106266912Y-42841565D01*
%TO.C,S16*%
X113095402Y-84330983D02*
X116844323Y-85405968D01*
X113646677Y-82408459D02*
X117395597Y-83483445D01*
X113095402Y-84330983D02*
X113646677Y-82408459D01*
%TO.C,S17*%
X117781237Y-67989534D02*
X121530158Y-69064519D01*
X118332512Y-66067010D02*
X122081432Y-67141996D01*
X117781237Y-67989534D02*
X118332512Y-66067010D01*
%TO.C,S18*%
X122467073Y-51648085D02*
X126215994Y-52723070D01*
X123018348Y-49725561D02*
X126767268Y-50800547D01*
X122467073Y-51648085D02*
X123018348Y-49725561D01*
%TO.C,S19*%
X142551451Y-78109146D02*
X143626436Y-74360225D01*
X140628927Y-77557871D02*
X141703913Y-73808951D01*
X142551451Y-78109146D02*
X140628927Y-77557871D01*
%TO.C,S20*%
X139246072Y-58435955D02*
X142994993Y-59510940D01*
X139797347Y-56513431D02*
X143546267Y-57588417D01*
X139246072Y-58435955D02*
X139797347Y-56513431D01*
%TO.C,S21*%
X99758212Y-98191695D02*
X103507133Y-99266680D01*
X100309487Y-96269171D02*
X104058407Y-97344157D01*
X99758212Y-98191695D02*
X100309487Y-96269171D01*
%TO.C,S22*%
X125508921Y-104867484D02*
X129408921Y-104867484D01*
X125508921Y-102867484D02*
X129408921Y-102867484D01*
X125508921Y-104867484D02*
X125508921Y-102867484D01*
%TO.C,S23*%
X285603038Y-63094101D02*
X289431384Y-62349946D01*
X285221420Y-61130846D02*
X289049766Y-60386691D01*
X285603038Y-63094101D02*
X285221420Y-61130846D01*
%TO.C,S24*%
X282359285Y-46406439D02*
X286187631Y-45662284D01*
X281977667Y-44443184D02*
X285806013Y-43699029D01*
X282359285Y-46406439D02*
X281977667Y-44443184D01*
%TO.C,S25*%
X269555625Y-74872494D02*
X273383971Y-74128339D01*
X269174007Y-72909239D02*
X273002353Y-72165084D01*
X269555625Y-74872494D02*
X269174007Y-72909239D01*
%TO.C,S26*%
X266311872Y-58184832D02*
X270140218Y-57440677D01*
X265930254Y-56221577D02*
X269758600Y-55477422D01*
X266311872Y-58184832D02*
X265930254Y-56221577D01*
%TO.C,S27*%
X263068119Y-41497170D02*
X266896465Y-40753015D01*
X262686501Y-39533915D02*
X266514847Y-38789760D01*
X263068119Y-41497170D02*
X262686501Y-39533915D01*
%TO.C,S28*%
X249795384Y-67803148D02*
X253544305Y-66728162D01*
X249244110Y-65880624D02*
X252993030Y-64805639D01*
X249795384Y-67803148D02*
X249244110Y-65880624D01*
%TO.C,S29*%
X245109549Y-51461699D02*
X248858470Y-50386713D01*
X244558275Y-49539175D02*
X248307195Y-48464190D01*
X245109549Y-51461699D02*
X244558275Y-49539175D01*
%TO.C,S30*%
X240423714Y-35120251D02*
X244172635Y-34045265D01*
X239872440Y-33197727D02*
X243621360Y-32122742D01*
X240423714Y-35120251D02*
X239872440Y-33197727D01*
%TO.C,S31*%
X235800322Y-84299761D02*
X239549243Y-83224775D01*
X235249048Y-82377237D02*
X238997968Y-81302252D01*
X235800322Y-84299761D02*
X235249048Y-82377237D01*
%TO.C,S32*%
X231114487Y-67958312D02*
X234863408Y-66883326D01*
X230563213Y-66035788D02*
X234312133Y-64960803D01*
X231114487Y-67958312D02*
X230563213Y-66035788D01*
%TO.C,S33*%
X226428652Y-51616863D02*
X230177573Y-50541877D01*
X225877378Y-49694339D02*
X229626298Y-48619354D01*
X226428652Y-51616863D02*
X225877378Y-49694339D01*
%TO.C,S34*%
X221742817Y-35275415D02*
X225491738Y-34200429D01*
X221191543Y-33352891D02*
X224940463Y-32277906D01*
X221742817Y-35275415D02*
X221191543Y-33352891D01*
%TO.C,S35*%
X215465600Y-78687355D02*
X219214521Y-77612369D01*
X214914326Y-76764831D02*
X218663246Y-75689846D01*
X215465600Y-78687355D02*
X214914326Y-76764831D01*
%TO.C,S36*%
X210779765Y-62345906D02*
X214528686Y-61270920D01*
X210228491Y-60423382D02*
X213977411Y-59348397D01*
X210779765Y-62345906D02*
X210228491Y-60423382D01*
%TO.C,S37*%
X206093930Y-46004457D02*
X209842851Y-44929471D01*
X205542656Y-44081933D02*
X209291576Y-43006948D01*
X206093930Y-46004457D02*
X205542656Y-44081933D01*
%TO.C,S38*%
X198714165Y-85571351D02*
X202463086Y-84496365D01*
X198162891Y-83648827D02*
X201911811Y-82573842D01*
X198714165Y-85571351D02*
X198162891Y-83648827D01*
%TO.C,S39*%
X194028330Y-69229902D02*
X197777251Y-68154916D01*
X193477056Y-67307378D02*
X197225976Y-66232393D01*
X194028330Y-69229902D02*
X193477056Y-67307378D01*
%TO.C,S40*%
X189342495Y-52888453D02*
X193091416Y-51813467D01*
X188791221Y-50965929D02*
X192540141Y-49890944D01*
X189342495Y-52888453D02*
X188791221Y-50965929D01*
%TO.C,S41*%
X172343427Y-73783468D02*
X173418413Y-77532389D01*
X174265951Y-73232194D02*
X175340936Y-76981114D01*
X172343427Y-73783468D02*
X174265951Y-73232194D01*
%TO.C,S42*%
X172563495Y-59676323D02*
X176312416Y-58601337D01*
X172012221Y-57753799D02*
X175761141Y-56678814D01*
X172563495Y-59676323D02*
X172012221Y-57753799D01*
%TO.C,S43*%
X212051355Y-99432063D02*
X215800276Y-98357077D01*
X211500081Y-97509539D02*
X215249001Y-96434554D01*
X212051355Y-99432063D02*
X211500081Y-97509539D01*
%TO.C,S44*%
X186126324Y-104867484D02*
X190026324Y-104867484D01*
X186126324Y-102867484D02*
X190026324Y-102867484D01*
X186126324Y-104867484D02*
X186126324Y-102867484D01*
%TD*%
D11*
%TO.C,MCU1*%
X176005183Y-18811448D03*
X173465183Y-18811448D03*
X170925183Y-18811448D03*
X168385183Y-18811448D03*
X165845183Y-18811448D03*
X163305183Y-18811448D03*
X160765183Y-18811448D03*
X158225183Y-18811448D03*
X155685183Y-18811448D03*
X153145183Y-18811448D03*
X150605183Y-18811448D03*
X148065183Y-18811448D03*
X176005183Y-34051448D03*
X173465183Y-34051448D03*
X170925183Y-34051448D03*
X168385183Y-34051448D03*
X165845183Y-34051448D03*
X163305183Y-34051448D03*
X160765183Y-34051448D03*
X158225183Y-34051448D03*
X155685183Y-34051448D03*
X153145183Y-34051448D03*
X150605183Y-34051448D03*
D12*
X148065183Y-34051448D03*
%TD*%
M02*
