0
SECTION
2
HEADER
9
$INSUNITS
70
4
0
ENDSEC
0
SECTION
2
TABLES
0
TABLE
2
LTYPE
0
LTYPE
72
65
70
64
2
CONTINUOUS
3
______
73
0
40
0
0
ENDTAB
0
TABLE
2
LAYER
0
ENDTAB
0
ENDSEC
0
SECTION
2
ENTITIES
0
LINE
8
0
10
-10.1634121
20
-6.4288456
11
7.0150636
21
-9.768003
0
LINE
8
0
10
7.0150636
20
-9.768003
11
10.1634121
21
6.4288456
0
LINE
8
0
10
10.1634121
20
6.4288456
11
-7.0150636
21
9.768003
0
LINE
8
0
10
-7.0150636
20
9.768003
11
-10.1634121
21
-6.4288456
0
LINE
8
0
10
-6.9196592
20
10.2588165
11
10.2588165
21
6.9196591
0
LINE
8
0
10
10.2588165
20
6.9196591
11
13.407165
21
23.1165077
0
LINE
8
0
10
13.407165
20
23.1165077
11
-3.7713107
21
26.4556651
0
LINE
8
0
10
-3.7713107
20
26.4556651
11
-6.9196592
21
10.2588165
0
LINE
8
0
10
5.8840008
20
-18.2072386
11
23.0624765
21
-21.546396
0
LINE
8
0
10
23.0624765
20
-21.546396
11
26.210825
21
-5.3495474
0
LINE
8
0
10
26.210825
20
-5.3495474
11
9.0323493
21
-2.01039
0
LINE
8
0
10
9.0323493
20
-2.01039
11
5.8840008
21
-18.2072386
0
LINE
8
0
10
9.1277537
20
-1.5195764
11
26.3062294
21
-4.8587338
0
LINE
8
0
10
26.3062294
20
-4.8587338
11
29.4545779
21
11.3381148
0
LINE
8
0
10
29.4545779
20
11.3381148
11
12.2761022
21
14.6772722
0
LINE
8
0
10
12.2761022
20
14.6772722
11
9.1277537
21
-1.5195764
0
LINE
8
0
10
12.3715066
20
15.1680857
11
29.5499823
21
11.8289283
0
LINE
8
0
10
29.5499823
20
11.8289283
11
32.6983308
21
28.0257769
0
LINE
8
0
10
32.6983308
20
28.0257769
11
15.5198551
21
31.3649343
0
LINE
8
0
10
15.5198551
20
31.3649343
11
12.3715066
21
15.1680857
0
LINE
8
0
10
25.707088
20
-10.1660864
11
42.5291677
21
-14.9897402
0
LINE
8
0
10
42.5291677
20
-14.9897402
11
47.077184
21
0.8710778
0
LINE
8
0
10
47.077184
20
0.8710778
11
30.2551043
21
5.6947316
0
LINE
8
0
10
30.2551043
20
5.6947316
11
25.707088
21
-10.1660864
0
LINE
8
0
10
30.392923
20
6.1753624
11
47.2150027
21
1.3517086
0
LINE
8
0
10
47.2150027
20
1.3517086
11
51.763019
21
17.2125266
0
LINE
8
0
10
51.763019
20
17.2125266
11
34.9409393
21
22.0361804
0
LINE
8
0
10
34.9409393
20
22.0361804
11
30.392923
21
6.1753624
0
LINE
8
0
10
35.078758
20
22.5168112
11
51.9008377
21
17.6931574
0
LINE
8
0
10
51.9008377
20
17.6931574
11
56.448854
21
33.5539754
0
LINE
8
0
10
56.448854
20
33.5539754
11
39.6267743
21
38.3776292
0
LINE
8
0
10
39.6267743
20
38.3776292
11
35.078758
21
22.5168112
0
LINE
8
0
10
39.7021501
20
-26.6626991
11
56.5242298
21
-31.4863529
0
LINE
8
0
10
56.5242298
20
-31.4863529
11
61.0722461
21
-15.6255349
0
LINE
8
0
10
61.0722461
20
-15.6255349
11
44.2501664
21
-10.8018811
0
LINE
8
0
10
44.2501664
20
-10.8018811
11
39.7021501
21
-26.6626991
0
LINE
8
0
10
44.3879852
20
-10.3212503
11
61.2100649
21
-15.1449041
0
LINE
8
0
10
61.2100649
20
-15.1449041
11
65.7580812
21
0.7159139
0
LINE
8
0
10
65.7580812
20
0.7159139
11
48.9360015
21
5.5395677
0
LINE
8
0
10
48.9360015
20
5.5395677
11
44.3879852
21
-10.3212503
0
LINE
8
0
10
49.0738202
20
6.0201985
11
65.8958999
21
1.1965447
0
LINE
8
0
10
65.8958999
20
1.1965447
11
70.4439162
21
17.0573627
0
LINE
8
0
10
70.4439162
20
17.0573627
11
53.6218365
21
21.8810165
0
LINE
8
0
10
53.6218365
20
21.8810165
11
49.0738202
21
6.0201985
0
LINE
8
0
10
53.7596553
20
22.3616473
11
70.581735
21
17.5379935
0
LINE
8
0
10
70.581735
20
17.5379935
11
75.1297513
21
33.3988115
0
LINE
8
0
10
75.1297513
20
33.3988115
11
58.3076716
21
38.2224653
0
LINE
8
0
10
58.3076716
20
38.2224653
11
53.7596553
21
22.3616473
0
LINE
8
0
10
60.0368716
20
-21.0502928
11
76.8589513
21
-25.8739466
0
LINE
8
0
10
76.8589513
20
-25.8739466
11
81.4069676
21
-10.0131286
0
LINE
8
0
10
81.4069676
20
-10.0131286
11
64.5848879
21
-5.1894748
0
LINE
8
0
10
64.5848879
20
-5.1894748
11
60.0368716
21
-21.0502928
0
LINE
8
0
10
64.7227067
20
-4.708844
11
81.5447864
21
-9.5324978
0
LINE
8
0
10
81.5447864
20
-9.5324978
11
86.0928027
21
6.3283202
0
LINE
8
0
10
86.0928027
20
6.3283202
11
69.270723
21
11.151974
0
LINE
8
0
10
69.270723
20
11.151974
11
64.7227067
21
-4.708844
0
LINE
8
0
10
69.4085417
20
11.6326047
11
86.2306214
21
6.8089509
0
LINE
8
0
10
86.2306214
20
6.8089509
11
90.7786377
21
22.6697689
0
LINE
8
0
10
90.7786377
20
22.6697689
11
73.956558
21
27.4934227
0
LINE
8
0
10
73.956558
20
27.4934227
11
69.4085417
21
11.6326047
0
LINE
8
0
10
76.7883074
20
-27.9342887
11
93.6103871
21
-32.7579425
0
LINE
8
0
10
93.6103871
20
-32.7579425
11
98.1584034
21
-16.8971245
0
LINE
8
0
10
98.1584034
20
-16.8971245
11
81.3363237
21
-12.0734707
0
LINE
8
0
10
81.3363237
20
-12.0734707
11
76.7883074
21
-27.9342887
0
LINE
8
0
10
81.4741424
20
-11.5928399
11
98.2962221
21
-16.4164937
0
LINE
8
0
10
98.2962221
20
-16.4164937
11
102.8442384
21
-0.5556757
0
LINE
8
0
10
102.8442384
20
-0.5556757
11
86.0221587
21
4.2679781
0
LINE
8
0
10
86.0221587
20
4.2679781
11
81.4741424
21
-11.5928399
0
LINE
8
0
10
86.1599775
20
4.748609
11
102.9820572
21
-0.0750448
0
LINE
8
0
10
102.9820572
20
-0.0750448
11
107.5300735
21
15.7857732
0
LINE
8
0
10
107.5300735
20
15.7857732
11
90.7079938
21
20.609427
0
LINE
8
0
10
90.7079938
20
20.609427
11
86.1599775
21
4.748609
0
LINE
8
0
10
102.9389771
20
-2.0392607
11
119.7610568
21
-6.8629145
0
LINE
8
0
10
119.7610568
20
-6.8629145
11
124.3090731
21
8.9979035
0
LINE
8
0
10
124.3090731
20
8.9979035
11
107.4869934
21
13.8215573
0
LINE
8
0
10
107.4869934
20
13.8215573
11
102.9389771
21
-2.0392607
0
LINE
8
0
10
63.4511171
20
-41.7950013
11
80.2731968
21
-46.6186551
0
LINE
8
0
10
80.2731968
20
-46.6186551
11
84.8212131
21
-30.7578371
0
LINE
8
0
10
84.8212131
20
-30.7578371
11
67.9991334
21
-25.9341833
0
LINE
8
0
10
67.9991334
20
-25.9341833
11
63.4511171
21
-41.7950013
0
LINE
8
0
10
250.0498154
20
-9.768003
11
267.2282911
21
-6.4288456
0
LINE
8
0
10
267.2282911
20
-6.4288456
11
264.0799426
21
9.768003
0
LINE
8
0
10
264.0799426
20
9.768003
11
246.9014669
21
6.4288456
0
LINE
8
0
10
246.9014669
20
6.4288456
11
250.0498154
21
-9.768003
0
LINE
8
0
10
246.8060625
20
6.9196591
11
263.9845382
21
10.2588165
0
LINE
8
0
10
263.9845382
20
10.2588165
11
260.8361897
21
26.4556651
0
LINE
8
0
10
260.8361897
20
26.4556651
11
243.657714
21
23.1165077
0
LINE
8
0
10
243.657714
20
23.1165077
11
246.8060625
21
6.9196591
0
LINE
8
0
10
234.0024025
20
-21.546396
11
251.1808782
21
-18.2072386
0
LINE
8
0
10
251.1808782
20
-18.2072386
11
248.0325297
21
-2.01039
0
LINE
8
0
10
248.0325297
20
-2.01039
11
230.854054
21
-5.3495474
0
LINE
8
0
10
230.854054
20
-5.3495474
11
234.0024025
21
-21.546396
0
LINE
8
0
10
230.7586496
20
-4.8587338
11
247.9371253
21
-1.5195764
0
LINE
8
0
10
247.9371253
20
-1.5195764
11
244.7887768
21
14.6772722
0
LINE
8
0
10
244.7887768
20
14.6772722
11
227.6103011
21
11.3381148
0
LINE
8
0
10
227.6103011
20
11.3381148
11
230.7586496
21
-4.8587338
0
LINE
8
0
10
227.5148967
20
11.8289283
11
244.6933724
21
15.1680857
0
LINE
8
0
10
244.6933724
20
15.1680857
11
241.5450239
21
31.3649343
0
LINE
8
0
10
241.5450239
20
31.3649343
11
224.3665482
21
28.0257769
0
LINE
8
0
10
224.3665482
20
28.0257769
11
227.5148967
21
11.8289283
0
LINE
8
0
10
214.5357113
20
-14.9897402
11
231.357791
21
-10.1660864
0
LINE
8
0
10
231.357791
20
-10.1660864
11
226.8097747
21
5.6947316
0
LINE
8
0
10
226.8097747
20
5.6947316
11
209.987695
21
0.8710778
0
LINE
8
0
10
209.987695
20
0.8710778
11
214.5357113
21
-14.9897402
0
LINE
8
0
10
209.8498763
20
1.3517086
11
226.671956
21
6.1753624
0
LINE
8
0
10
226.671956
20
6.1753624
11
222.1239397
21
22.0361804
0
LINE
8
0
10
222.1239397
20
22.0361804
11
205.30186
21
17.2125266
0
LINE
8
0
10
205.30186
20
17.2125266
11
209.8498763
21
1.3517086
0
LINE
8
0
10
205.1640413
20
17.6931574
11
221.986121
21
22.5168112
0
LINE
8
0
10
221.986121
20
22.5168112
11
217.4381047
21
38.3776292
0
LINE
8
0
10
217.4381047
20
38.3776292
11
200.616025
21
33.5539754
0
LINE
8
0
10
200.616025
20
33.5539754
11
205.1640413
21
17.6931574
0
LINE
8
0
10
200.5406492
20
-31.4863529
11
217.3627289
21
-26.6626991
0
LINE
8
0
10
217.3627289
20
-26.6626991
11
212.8147126
21
-10.8018811
0
LINE
8
0
10
212.8147126
20
-10.8018811
11
195.9926329
21
-15.6255349
0
LINE
8
0
10
195.9926329
20
-15.6255349
11
200.5406492
21
-31.4863529
0
LINE
8
0
10
195.8548141
20
-15.1449041
11
212.6768938
21
-10.3212503
0
LINE
8
0
10
212.6768938
20
-10.3212503
11
208.1288775
21
5.5395677
0
LINE
8
0
10
208.1288775
20
5.5395677
11
191.3067978
21
0.7159139
0
LINE
8
0
10
191.3067978
20
0.7159139
11
195.8548141
21
-15.1449041
0
LINE
8
0
10
191.1689791
20
1.1965447
11
207.9910588
21
6.0201985
0
LINE
8
0
10
207.9910588
20
6.0201985
11
203.4430425
21
21.8810165
0
LINE
8
0
10
203.4430425
20
21.8810165
11
186.6209628
21
17.0573627
0
LINE
8
0
10
186.6209628
20
17.0573627
11
191.1689791
21
1.1965447
0
LINE
8
0
10
186.483144
20
17.5379935
11
203.3052237
21
22.3616473
0
LINE
8
0
10
203.3052237
20
22.3616473
11
198.7572074
21
38.2224653
0
LINE
8
0
10
198.7572074
20
38.2224653
11
181.9351277
21
33.3988115
0
LINE
8
0
10
181.9351277
20
33.3988115
11
186.483144
21
17.5379935
0
LINE
8
0
10
180.2059277
20
-25.8739466
11
197.0280074
21
-21.0502928
0
LINE
8
0
10
197.0280074
20
-21.0502928
11
192.4799911
21
-5.1894748
0
LINE
8
0
10
192.4799911
20
-5.1894748
11
175.6579114
21
-10.0131286
0
LINE
8
0
10
175.6579114
20
-10.0131286
11
180.2059277
21
-25.8739466
0
LINE
8
0
10
175.5200926
20
-9.5324978
11
192.3421723
21
-4.708844
0
LINE
8
0
10
192.3421723
20
-4.708844
11
187.794156
21
11.151974
0
LINE
8
0
10
187.794156
20
11.151974
11
170.9720763
21
6.3283202
0
LINE
8
0
10
170.9720763
20
6.3283202
11
175.5200926
21
-9.5324978
0
LINE
8
0
10
170.8342576
20
6.8089509
11
187.6563373
21
11.6326047
0
LINE
8
0
10
187.6563373
20
11.6326047
11
183.108321
21
27.4934227
0
LINE
8
0
10
183.108321
20
27.4934227
11
166.2862413
21
22.6697689
0
LINE
8
0
10
166.2862413
20
22.6697689
11
170.8342576
21
6.8089509
0
LINE
8
0
10
163.4544919
20
-32.7579425
11
180.2765716
21
-27.9342887
0
LINE
8
0
10
180.2765716
20
-27.9342887
11
175.7285553
21
-12.0734707
0
LINE
8
0
10
175.7285553
20
-12.0734707
11
158.9064756
21
-16.8971245
0
LINE
8
0
10
158.9064756
20
-16.8971245
11
163.4544919
21
-32.7579425
0
LINE
8
0
10
158.7686569
20
-16.4164937
11
175.5907366
21
-11.5928399
0
LINE
8
0
10
175.5907366
20
-11.5928399
11
171.0427203
21
4.2679781
0
LINE
8
0
10
171.0427203
20
4.2679781
11
154.2206406
21
-0.5556757
0
LINE
8
0
10
154.2206406
20
-0.5556757
11
158.7686569
21
-16.4164937
0
LINE
8
0
10
154.0828218
20
-0.0750448
11
170.9049015
21
4.748609
0
LINE
8
0
10
170.9049015
20
4.748609
11
166.3568852
21
20.609427
0
LINE
8
0
10
166.3568852
20
20.609427
11
149.5348055
21
15.7857732
0
LINE
8
0
10
149.5348055
20
15.7857732
11
154.0828218
21
-0.0750448
0
LINE
8
0
10
137.3038222
20
-6.8629145
11
154.1259019
21
-2.0392607
0
LINE
8
0
10
154.1259019
20
-2.0392607
11
149.5778856
21
13.8215573
0
LINE
8
0
10
149.5778856
20
13.8215573
11
132.7558059
21
8.9979035
0
LINE
8
0
10
132.7558059
20
8.9979035
11
137.3038222
21
-6.8629145
0
LINE
8
0
10
176.7916822
20
-46.6186551
11
193.6137619
21
-41.7950013
0
LINE
8
0
10
193.6137619
20
-41.7950013
11
189.0657456
21
-25.9341833
0
LINE
8
0
10
189.0657456
20
-25.9341833
11
172.2436659
21
-30.7578371
0
LINE
8
0
10
172.2436659
20
-30.7578371
11
176.7916822
21
-46.6186551
0
LINE
8
0
10
111.8106535
20
-32.7752878
11
119.1150435
21
-7.3018528
0
LINE
8
0
10
119.1150435
20
-7.3018528
11
103.2542255
21
-2.7538364
0
LINE
8
0
10
103.2542255
20
-2.7538364
11
95.9498355
21
-28.2272714
0
LINE
8
0
10
95.9498355
20
-28.2272714
11
111.8106535
21
-32.7752878
0
LINE
8
0
10
84.9737384
20
-50.3360362
11
111.4737384
21
-50.3360362
0
LINE
8
0
10
111.4737384
20
-50.3360362
11
111.4737384
21
-33.8360362
0
LINE
8
0
10
111.4737384
20
-33.8360362
11
84.9737384
21
-33.8360362
0
LINE
8
0
10
84.9737384
20
-33.8360362
11
84.9737384
21
-50.3360362
0
LINE
8
0
10
137.9498355
20
-7.3018528
11
145.2542255
21
-32.7752878
0
LINE
8
0
10
145.2542255
20
-32.7752878
11
161.1150435
21
-28.2272714
0
LINE
8
0
10
161.1150435
20
-28.2272714
11
153.8106535
21
-2.7538364
0
LINE
8
0
10
153.8106535
20
-2.7538364
11
137.9498355
21
-7.3018528
0
LINE
8
0
10
145.5911406
20
-50.3360362
11
172.0911406
21
-50.3360362
0
LINE
8
0
10
172.0911406
20
-50.3360362
11
172.0911406
21
-33.8360362
0
LINE
8
0
10
172.0911406
20
-33.8360362
11
145.5911406
21
-33.8360362
0
LINE
8
0
10
145.5911406
20
-33.8360362
11
145.5911406
21
-50.3360362
0
LINE
8
0
10
-13.5
20
-53.5
11
271.5
21
-53.5
0
LINE
8
0
10
271.5
20
-53.5
11
271.5
21
41.1
0
LINE
8
0
10
271.5
20
41.1
11
-13.5
21
41.1
0
LINE
8
0
10
-13.5
20
41.1
11
-13.5
21
-53.5
0
ENDSEC
0
EOF